STARTFONT 2.1
FONT -FontForge-Bitstream Vera Sans-Book-R-Normal-Sans--64-610-75-75-P-385-ISO8859-1
SIZE 61 75 75
FONTBOUNDINGBOX 96 74 -12 -15
COMMENT "Generated by fontforge, http://fontforge.sourceforge.net"
COMMENT "Copyright (c) 2003 by Bitstream, Inc. All Rights Reserved."
STARTPROPERTIES 40
FOUNDRY "FontForge"
FAMILY_NAME "Bitstream Vera Sans"
WEIGHT_NAME "Book"
SLANT "R"
SETWIDTH_NAME "Normal"
ADD_STYLE_NAME "Sans"
PIXEL_SIZE 64
POINT_SIZE 610
RESOLUTION_X 75
RESOLUTION_Y 75
SPACING "P"
AVERAGE_WIDTH 385
CHARSET_REGISTRY "ISO8859"
CHARSET_ENCODING "1"
FONTNAME_REGISTRY ""
CHARSET_COLLECTIONS "ISO8859-9 ISOLatin1Encoding"
FONT_NAME "BitstreamVeraSans-Roman"
FACE_NAME "Bitstream Vera Sans"
COPYRIGHT "Copyright (c) 2003 by Bitstream, Inc. All Rights Reserved."
FONT_VERSION "Release 1.10"
FONT_ASCENT 49
FONT_DESCENT 15
UNDERLINE_POSITION -9
UNDERLINE_THICKNESS 5
X_HEIGHT 34
CAP_HEIGHT 46
RAW_ASCENT 759
RAW_DESCENT 240
NORM_SPACE 20
RELATIVE_WEIGHT 40
RELATIVE_SETWIDTH 50
SUPERSCRIPT_X 0
SUPERSCRIPT_Y 18
SUPERSCRIPT_SIZE 38
SUBSCRIPT_X 0
SUBSCRIPT_Y -13
SUBSCRIPT_SIZE 38
FIGURE_WIDTH 41
AVG_LOWERCASE_WIDTH 366
AVG_UPPERCASE_WIDTH 428
ENDPROPERTIES
CHARS 268
STARTCHAR space
ENCODING 32
SWIDTH 317 0
DWIDTH 20 0
BBX 1 1 0 0
BITMAP
00
ENDCHAR
STARTCHAR exclam
ENCODING 33
SWIDTH 400 0
DWIDTH 26 0
BBX 6 47 10 0
BITMAP
FC
FC
FC
FC
FC
FC
FC
FC
FC
FC
FC
FC
FC
FC
FC
FC
FC
FC
FC
FC
FC
FC
FC
FC
FC
FC
FC
FC
FC
FC
78
78
00
00
00
00
00
00
00
FC
FC
FC
FC
FC
FC
FC
FC
ENDCHAR
STARTCHAR quotedbl
ENCODING 34
SWIDTH 459 0
DWIDTH 29 0
BBX 17 17 6 30
BITMAP
F80F80
F80F80
F80F80
F80F80
F80F80
F80F80
F80F80
F80F80
F80F80
F80F80
F80F80
F80F80
F80F80
F80F80
F80F80
F80F80
F80F80
ENDCHAR
STARTCHAR numbersign
ENCODING 35
SWIDTH 837 0
DWIDTH 54 0
BBX 44 46 5 0
BITMAP
00003E00F800
00003E00F800
00007E00F800
00007C00F800
00007C01F000
00007C01F000
00007C01F000
0000F803F000
0000F803E000
0000F803E000
0000F803E000
0001F007E000
0001F007C000
0FFFFFFFFFF0
0FFFFFFFFFF0
0FFFFFFFFFF0
0FFFFFFFFFF0
0FFFFFFFFFF0
0003E00F8000
0007C00F8000
0007C01F0000
0007C01F0000
000FC01F0000
000F803F0000
000F803E0000
000F803E0000
001F803E0000
001F007E0000
FFFFFFFFFF00
FFFFFFFFFF00
FFFFFFFFFF00
FFFFFFFFFF00
FFFFFFFFFF00
003E00F80000
007E00F80000
007C01F80000
007C01F00000
007C01F00000
00FC01F00000
00F803F00000
00F803E00000
00F803E00000
01F803E00000
01F007E00000
01F007C00000
01F007C00000
ENDCHAR
STARTCHAR dollar
ENCODING 36
SWIDTH 636 0
DWIDTH 41 0
BBX 30 57 5 -9
BITMAP
00070000
00070000
00070000
00070000
00070000
00070000
00070000
007FF800
03FFFF80
0FFFFFE0
1FFFFFE0
3FFFFFE0
7FC707E0
7F070060
FE070000
FE070000
FC070000
FC070000
FC070000
FC070000
FE070000
FE070000
7F070000
7FE70000
3FFF0000
1FFFFC00
07FFFF80
01FFFFC0
003FFFE0
0007FFF0
00071FF8
000707F8
000701FC
000701FC
000700FC
000700FC
000700FC
000700FC
000700FC
800701FC
E00703F8
F80707F8
FF073FF0
FFFFFFE0
FFFFFFC0
7FFFFF80
0FFFFE00
00FFE000
00070000
00070000
00070000
00070000
00070000
00070000
00070000
00070000
00070000
ENDCHAR
STARTCHAR percent
ENCODING 37
SWIDTH 950 0
DWIDTH 61 0
BBX 54 49 4 -1
BITMAP
01FE000001F000
07FF800003E000
0FFFC00003E000
1FFFE00007C000
3F87F000078000
3E01F0000F8000
7C00F8001F0000
7C00F8001F0000
FC00FC003E0000
F8007C003C0000
F8007C007C0000
F8007C00F80000
F8007C00F80000
F8007C01F00000
F8007C01E00000
F8007C03E00000
FC00FC07C00000
7C00F807C00000
7C00F80F800000
7E01F00F000000
3F87F01F000000
1FFFE03E000000
0FFFC03E000000
07FF807C000000
01FE007801FE00
000000F807FF80
000001F00FFFC0
000001F01FFFE0
000003E03F87F0
000003C03E01F0
000007C07C00F8
00000F807C00F8
00000F80FC00FC
00001F00F8007C
00001E00F8007C
00003E00F8007C
00007C00F8007C
00007C00F8007C
0000F800F8007C
0000F000F8007C
0001F000FC00FC
0003E0007C00F8
0003E0007C00F8
0007C0007E01F8
000780003F87F0
000F80001FFFE0
001F00000FFFC0
001F000007FF80
003E000001FE00
ENDCHAR
STARTCHAR ampersand
ENCODING 38
SWIDTH 779 0
DWIDTH 50 0
BBX 44 49 4 -1
BITMAP
0007FE000000
001FFFE00000
007FFFF00000
00FFFFF00000
01FFFFF00000
01FE03F00000
03F800700000
03F000100000
07F000000000
07E000000000
07E000000000
07E000000000
07E000000000
07E000000000
07F000000000
07F000000000
03F800000000
03FC00000000
01FE00000000
01FF00000000
03FF80000000
07FFC0000000
0FFFE0000000
0FDFF0000FC0
1F8FF8000FC0
3F87FC000FC0
3F03FE000F80
7E01FF001F80
7E00FF801F80
7C007FC01F80
FC003FE03F00
FC001FE03F00
FC000FF03E00
FC0007F87E00
FC0003FCFC00
FC0001FEFC00
FC0000FFF800
FE00007FF800
7E00003FF000
7F00001FF000
3F80001FF800
3FC0003FFC00
1FE000FFFE00
0FFC07FFFF00
07FFFFFCFF80
03FFFFF87FC0
01FFFFE03FE0
007FFF801FF0
000FFC000000
ENDCHAR
STARTCHAR quotesingle
ENCODING 39
SWIDTH 274 0
DWIDTH 18 0
BBX 5 17 6 30
BITMAP
F8
F8
F8
F8
F8
F8
F8
F8
F8
F8
F8
F8
F8
F8
F8
F8
F8
ENDCHAR
STARTCHAR parenleft
ENCODING 40
SWIDTH 390 0
DWIDTH 25 0
BBX 14 57 6 -8
BITMAP
007C
00F8
00F8
01F0
01F0
03E0
07E0
07C0
07C0
0FC0
0F80
1F80
1F00
1F00
3F00
3F00
3E00
7E00
7E00
7E00
7E00
7C00
FC00
FC00
FC00
FC00
FC00
FC00
FC00
FC00
FC00
FC00
FC00
FC00
FC00
7C00
7E00
7E00
7E00
7E00
3E00
3F00
3F00
1F00
1F00
1F80
0F80
0FC0
07C0
07C0
03E0
03E0
01F0
01F0
00F8
00F8
007C
ENDCHAR
STARTCHAR parenright
ENCODING 41
SWIDTH 390 0
DWIDTH 25 0
BBX 14 57 5 -8
BITMAP
F800
7C00
7C00
3E00
3E00
1F00
1F00
0F80
0F80
0FC0
07C0
07E0
07E0
03E0
03F0
03F0
01F0
01F8
01F8
01F8
01F8
00F8
00FC
00FC
00FC
00FC
00FC
00FC
00FC
00FC
00FC
00FC
00FC
00FC
00FC
00F8
01F8
01F8
01F8
01F8
01F0
03F0
03F0
03E0
07E0
07E0
07C0
0FC0
0F80
0F80
1F00
1F00
3E00
3E00
7C00
7C00
F800
ENDCHAR
STARTCHAR asterisk
ENCODING 42
SWIDTH 500 0
DWIDTH 32 0
BBX 28 30 2 18
BITMAP
000F0000
000F0000
000F0000
000F0000
000F0000
000F0000
600F0060
700F00E0
FC0F03F0
7F0F0FE0
1F8F1F80
0FEF7F00
03FFFC00
00FFF000
003FC000
003FC000
00FFF000
03FFFC00
07EF7E00
1F8F1F80
7F0F0FE0
FC0F03F0
700F00E0
600F0060
000F0000
000F0000
000F0000
000F0000
000F0000
000F0000
ENDCHAR
STARTCHAR plus
ENCODING 43
SWIDTH 837 0
DWIDTH 54 0
BBX 39 39 7 0
BITMAP
00007C0000
00007C0000
00007C0000
00007C0000
00007C0000
00007C0000
00007C0000
00007C0000
00007C0000
00007C0000
00007C0000
00007C0000
00007C0000
00007C0000
00007C0000
00007C0000
00007C0000
FFFFFFFFFE
FFFFFFFFFE
FFFFFFFFFE
FFFFFFFFFE
FFFFFFFFFE
00007C0000
00007C0000
00007C0000
00007C0000
00007C0000
00007C0000
00007C0000
00007C0000
00007C0000
00007C0000
00007C0000
00007C0000
00007C0000
00007C0000
00007C0000
00007C0000
00007C0000
ENDCHAR
STARTCHAR comma
ENCODING 44
SWIDTH 317 0
DWIDTH 20 0
BBX 9 15 5 -7
BITMAP
1F80
1F80
1F80
1F80
1F80
1F80
1F00
3F00
3E00
3E00
7C00
7C00
7800
F800
F000
ENDCHAR
STARTCHAR hyphen
ENCODING 45
SWIDTH 360 0
DWIDTH 23 0
BBX 17 5 3 15
BITMAP
FFFF80
FFFF80
FFFF80
FFFF80
FFFF80
ENDCHAR
STARTCHAR period
ENCODING 46
SWIDTH 317 0
DWIDTH 20 0
BBX 6 8 8 0
BITMAP
FC
FC
FC
FC
FC
FC
FC
FC
ENDCHAR
STARTCHAR slash
ENCODING 47
SWIDTH 336 0
DWIDTH 22 0
BBX 22 53 0 -6
BITMAP
00007C
0000FC
0000F8
0000F8
0001F8
0001F0
0001F0
0003F0
0003E0
0003E0
0007E0
0007C0
0007C0
000FC0
000F80
000F80
000F80
001F00
001F00
001F00
003F00
003E00
003E00
007E00
007C00
007C00
00FC00
00F800
00F800
01F800
01F000
01F000
03F000
03E000
03E000
03E000
07C000
07C000
07C000
0FC000
0F8000
0F8000
1F8000
1F0000
1F0000
3F0000
3E0000
3E0000
7E0000
7C0000
7C0000
FC0000
F80000
ENDCHAR
STARTCHAR zero
ENCODING 48
SWIDTH 636 0
DWIDTH 41 0
BBX 32 49 4 -1
BITMAP
000FF000
007FFE00
00FFFF00
03FFFFC0
07FFFFE0
07F81FE0
0FE007F0
1FC003F8
1F8001F8
3F8001FC
3F0000FC
3F0000FC
7E00007E
7E00007E
7E00007E
7E00007E
7E00007E
FC00003F
FC00003F
FC00003F
FC00003F
FC00003F
FC00003F
FC00003F
FC00003F
FC00003F
FC00003F
FC00003F
FC00003F
FC00003F
FC00003F
FC00003F
7E00007E
7E00007E
7E00007E
7E00007E
7E00007E
3F0000FC
3F0000FC
3F8001FC
1F8001F8
1FC003F8
0FE007F0
07F81FE0
07FFFFE0
03FFFFC0
00FFFF00
007FFE00
000FF000
ENDCHAR
STARTCHAR one
ENCODING 49
SWIDTH 636 0
DWIDTH 41 0
BBX 27 47 7 0
BITMAP
00FF8000
1FFF8000
FFFF8000
FFFF8000
FFFF8000
FF1F8000
E01F8000
001F8000
001F8000
001F8000
001F8000
001F8000
001F8000
001F8000
001F8000
001F8000
001F8000
001F8000
001F8000
001F8000
001F8000
001F8000
001F8000
001F8000
001F8000
001F8000
001F8000
001F8000
001F8000
001F8000
001F8000
001F8000
001F8000
001F8000
001F8000
001F8000
001F8000
001F8000
001F8000
001F8000
001F8000
001F8000
7FFFFFE0
7FFFFFE0
7FFFFFE0
7FFFFFE0
7FFFFFE0
ENDCHAR
STARTCHAR two
ENCODING 50
SWIDTH 636 0
DWIDTH 41 0
BBX 29 48 5 0
BITMAP
00FFC000
0FFFF800
7FFFFE00
FFFFFF00
FFFFFFC0
FFC07FC0
FE001FE0
F0000FF0
C00007F0
800003F0
000003F8
000001F8
000001F8
000001F8
000001F8
000001F8
000001F8
000003F8
000003F8
000007F0
000007F0
00000FF0
00001FE0
00003FC0
00007FC0
00007F80
0000FF00
0001FE00
0003FC00
0007F800
000FF000
001FE000
003FC000
007F8000
00FF0000
01FE0000
03FC0000
07F80000
0FF00000
1FF00000
3FE00000
7FC00000
FF800000
FFFFFFF8
FFFFFFF8
FFFFFFF8
FFFFFFF8
FFFFFFF8
ENDCHAR
STARTCHAR three
ENCODING 51
SWIDTH 636 0
DWIDTH 41 0
BBX 31 49 5 -1
BITMAP
00FFE000
1FFFFC00
7FFFFF00
7FFFFF80
7FFFFFC0
7F807FE0
78000FF0
400007F0
000003F0
000003F8
000001F8
000001F8
000001F8
000001F8
000001F8
000003F8
000003F0
000007F0
00000FE0
00003FC0
00FFFF80
00FFFE00
00FFFC00
00FFFF00
00FFFFC0
00003FE0
00000FF0
000003F8
000001FC
000000FC
000000FC
0000007E
0000007E
0000007E
0000007E
0000007E
0000007E
0000007E
000000FC
000000FC
000001FC
800003F8
E0000FF8
FE007FF0
FFFFFFE0
FFFFFFC0
FFFFFF00
3FFFFC00
03FFC000
ENDCHAR
STARTCHAR four
ENCODING 52
SWIDTH 636 0
DWIDTH 41 0
BBX 34 47 3 0
BITMAP
00001FE000
00003FE000
00003FE000
00007FE000
0000FFE000
0000FFE000
0001F7E000
0003F7E000
0003E7E000
0007C7E000
000FC7E000
000F87E000
001F07E000
003F07E000
003E07E000
007E07E000
007C07E000
00F807E000
01F807E000
01F007E000
03E007E000
07E007E000
07C007E000
0FC007E000
1F8007E000
1F0007E000
3F0007E000
7E0007E000
7E0007E000
FC0007E000
F80007E000
FFFFFFFFC0
FFFFFFFFC0
FFFFFFFFC0
FFFFFFFFC0
FFFFFFFFC0
000007E000
000007E000
000007E000
000007E000
000007E000
000007E000
000007E000
000007E000
000007E000
000007E000
000007E000
ENDCHAR
STARTCHAR five
ENCODING 53
SWIDTH 636 0
DWIDTH 41 0
BBX 30 48 5 -1
BITMAP
3FFFFFE0
3FFFFFE0
3FFFFFE0
3FFFFFE0
3FFFFFE0
3F000000
3F000000
3F000000
3F000000
3F000000
3F000000
3F000000
3F000000
3F000000
3F000000
3F000000
3F7FC000
3FFFF800
3FFFFE00
3FFFFF80
3FFFFFC0
3E00FFE0
20001FE0
00000FF0
000007F0
000003F8
000001F8
000001FC
000000FC
000000FC
000000FC
000000FC
000000FC
000000FC
000000FC
000000FC
000001FC
000001F8
000003F8
000007F8
80000FF0
E0001FE0
FE00FFE0
FFFFFFC0
FFFFFF00
FFFFFE00
3FFFF800
03FF8000
ENDCHAR
STARTCHAR six
ENCODING 54
SWIDTH 636 0
DWIDTH 41 0
BBX 32 49 4 -1
BITMAP
0001FF00
000FFFF0
003FFFF8
00FFFFF8
01FFFFF8
03FE01F8
07F80038
07E00008
0FC00000
1F800000
1F800000
3F000000
3F000000
3E000000
7E000000
7E000000
7E07F800
7C1FFF00
FC7FFFC0
FCFFFFE0
FDFFFFF0
FFF80FF8
FFE003F8
FFC001FC
FF8000FE
FF8000FE
FF00007E
FF00007E
FE00003F
FE00003F
FE00003F
FE00003F
7E00003F
7E00003F
7E00003F
7E00003F
7E00003F
3F00007E
3F00007E
3F8000FE
1F8000FC
1FC001FC
0FE003F8
07F80FF8
03FFFFF0
01FFFFE0
00FFFF80
003FFF00
000FF800
ENDCHAR
STARTCHAR seven
ENCODING 55
SWIDTH 636 0
DWIDTH 41 0
BBX 30 47 5 0
BITMAP
FFFFFFFC
FFFFFFFC
FFFFFFFC
FFFFFFFC
FFFFFFF8
000003F8
000003F8
000003F0
000007F0
000007E0
00000FE0
00000FE0
00000FC0
00001FC0
00001F80
00003F80
00003F80
00003F00
00007F00
00007E00
0000FE00
0000FE00
0000FC00
0001FC00
0001F800
0001F800
0003F800
0003F000
0007F000
0007E000
0007E000
000FE000
000FC000
001FC000
001F8000
001F8000
003F8000
003F0000
007F0000
007E0000
007E0000
00FE0000
00FC0000
01FC0000
01F80000
01F80000
03F80000
ENDCHAR
STARTCHAR eight
ENCODING 56
SWIDTH 636 0
DWIDTH 41 0
BBX 32 49 4 -1
BITMAP
001FF800
00FFFF00
03FFFFC0
07FFFFE0
0FFFFFF0
1FF00FF8
3FC003FC
3F8001FC
3F0000FC
7F0000FE
7E00007E
7E00007E
7E00007E
7E00007E
7E00007E
7E00007E
3F0000FC
3F0000FC
1F8001F8
1FC003F8
0FF00FF0
07FFFFE0
01FFFF80
007FFE00
03FFFFC0
07FFFFE0
1FF00FF8
3FC003FC
3F8001FC
7F0000FE
7E00007E
FE00007F
FC00003F
FC00003F
FC00003F
FC00003F
FC00003F
FC00003F
FE00007F
7E00007E
7F0000FE
7F8001FE
3FC003FC
3FF00FFC
1FFFFFF8
0FFFFFF0
03FFFFC0
01FFFF80
001FF800
ENDCHAR
STARTCHAR nine
ENCODING 57
SWIDTH 636 0
DWIDTH 41 0
BBX 32 49 4 -1
BITMAP
001FF000
00FFFC00
01FFFF00
07FFFF80
0FFFFFC0
1FF01FE0
1FC007F0
3F8003F0
3F0001F8
7F0001F8
7E0000FC
7E0000FC
FC00007E
FC00007E
FC00007E
FC00007E
FC00007E
FC00007F
FC00007F
FC00007F
FC00007F
FE0000FF
7E0000FF
7F0001FF
7F0001FF
3F8003FF
3FC007FF
1FF01FFF
0FFFFFBF
07FFFF3F
03FFFE3F
00FFF83E
001FE07E
0000007E
0000007E
0000007C
000000FC
000000FC
000001F8
000003F8
000003F0
100007E0
1C001FE0
1F807FC0
1FFFFF80
1FFFFF00
1FFFFC00
0FFFF000
00FF8000
ENDCHAR
STARTCHAR colon
ENCODING 58
SWIDTH 336 0
DWIDTH 22 0
BBX 6 33 8 0
BITMAP
FC
FC
FC
FC
FC
FC
FC
FC
00
00
00
00
00
00
00
00
00
00
00
00
00
00
00
00
00
FC
FC
FC
FC
FC
FC
FC
FC
ENDCHAR
STARTCHAR semicolon
ENCODING 59
SWIDTH 336 0
DWIDTH 22 0
BBX 9 40 5 -7
BITMAP
1F80
1F80
1F80
1F80
1F80
1F80
1F80
1F80
0000
0000
0000
0000
0000
0000
0000
0000
0000
0000
0000
0000
0000
0000
0000
0000
0000
1F80
1F80
1F80
1F80
1F80
1F80
1F00
3F00
3E00
3E00
7C00
7C00
7800
F800
F000
ENDCHAR
STARTCHAR less
ENCODING 60
SWIDTH 837 0
DWIDTH 54 0
BBX 40 34 7 3
BITMAP
0000000001
000000000F
000000007F
00000003FF
0000001FFF
0000007FFF
000003FFF8
00001FFFC0
0000FFFE00
0003FFF000
001FFFC000
00FFFE0000
07FFF00000
1FFF800000
FFFE000000
FFF0000000
FF80000000
FF80000000
FFF0000000
FFFE000000
1FFF800000
07FFF00000
00FFFE0000
001FFFC000
0003FFF000
0000FFFE00
00001FFFC0
000003FFF8
0000007FFF
0000001FFF
00000003FF
000000007F
000000000F
0000000001
ENDCHAR
STARTCHAR equal
ENCODING 61
SWIDTH 837 0
DWIDTH 54 0
BBX 40 18 7 11
BITMAP
FFFFFFFFFF
FFFFFFFFFF
FFFFFFFFFF
FFFFFFFFFF
FFFFFFFFFF
0000000000
0000000000
0000000000
0000000000
0000000000
0000000000
0000000000
0000000000
FFFFFFFFFF
FFFFFFFFFF
FFFFFFFFFF
FFFFFFFFFF
FFFFFFFFFF
ENDCHAR
STARTCHAR greater
ENCODING 62
SWIDTH 837 0
DWIDTH 54 0
BBX 40 34 7 3
BITMAP
8000000000
F000000000
FE00000000
FFC0000000
FFF8000000
FFFE000000
1FFFC00000
03FFF80000
007FFF0000
000FFFC000
0003FFF800
00007FFF00
00000FFFE0
000001FFF8
0000007FFF
0000000FFF
00000001FF
00000001FF
0000000FFF
0000007FFF
000001FFF8
00000FFFE0
00007FFF00
0003FFF800
000FFFC000
007FFF0000
03FFF80000
1FFFC00000
FFFE000000
FFF8000000
FFC0000000
FE00000000
F000000000
8000000000
ENDCHAR
STARTCHAR question
ENCODING 63
SWIDTH 530 0
DWIDTH 34 0
BBX 25 48 5 0
BITMAP
01FF8000
1FFFE000
7FFFF800
FFFFFC00
FFFFFE00
FF01FF00
F8007F00
E0003F80
80003F80
00001F80
00001F80
00001F80
00001F80
00003F80
00003F00
00007F00
0000FE00
0001FE00
0003FC00
0007F800
000FF000
001FE000
003FC000
003F8000
007F0000
007E0000
00FE0000
00FC0000
00FC0000
00FC0000
00FC0000
00FC0000
00FC0000
00FC0000
00FC0000
00000000
00000000
00000000
00000000
00000000
00FC0000
00FC0000
00FC0000
00FC0000
00FC0000
00FC0000
00FC0000
00FC0000
ENDCHAR
STARTCHAR at
ENCODING 64
SWIDTH 1000 0
DWIDTH 64 0
BBX 55 56 4 -11
BITMAP
000001FFC00000
00001FFFFC0000
0000FFFFFF0000
0003FFFFFFC000
0007FFFFFFF000
001FFF003FFC00
003FF00007FE00
007FC00001FF00
00FF0000007F80
01FC0000001FC0
03F80000000FE0
07F000000007E0
07E000000003F0
0FC000000001F0
1F8000000001F8
1F8001F80000F8
3F000FFE1F00FC
3E001FFF9F007C
3E003FFFDF007C
7E007FFFFF007E
7C007F83FF003E
7C00FE00FF003E
FC00FC007F003E
F800F8003F003E
F801F8003F003E
F801F0001F003E
F801F0001F003E
F801F0001F003E
F801F0001F007C
F801F0001F007C
F801F0001F00FC
F801F8003F00F8
F800F8003F01F8
FC00FC007F03F0
7C00FE00FF07E0
7C007F81FF3FC0
7C007FFFFFFF80
7E003FFFDFFF00
3E001FFF9FFC00
3F000FFF1FF000
1F0003F81F0000
1F800000000000
0FC00000000000
0FE00000000000
07F00000000000
03F80000000000
01FC0000002000
01FE000000F000
00FF800003F800
003FE0000FF800
001FFE00FFE000
000FFFFFFFC000
0003FFFFFF0000
0000FFFFFC0000
00003FFFF00000
000003FF000000
ENDCHAR
STARTCHAR A
ENCODING 65
SWIDTH 684 0
DWIDTH 44 0
BBX 43 47 1 0
BITMAP
00003F800000
00007FC00000
00007FC00000
00007FC00000
0000FFE00000
0000FFE00000
0001FFF00000
0001FBF00000
0001FBF00000
0003FBF80000
0003F1F80000
0003F1F80000
0007F1FC0000
0007E0FC0000
000FE0FE0000
000FC07E0000
000FC07E0000
001FC07F0000
001F803F0000
003F803F8000
003F803F8000
003F001F8000
007F001FC000
007E000FC000
007E000FC000
00FE000FE000
00FC0007E000
01FC0007F000
01F80003F000
01F80003F000
03FFFFFFF800
03FFFFFFF800
03FFFFFFF800
07FFFFFFFC00
07FFFFFFFC00
0FE00000FE00
0FC000007E00
0FC000007E00
1FC000007F00
1F8000003F00
3F8000003F80
3F8000003F80
3F0000001F80
7F0000001FC0
7E0000000FC0
7E0000000FC0
FE0000000FE0
ENDCHAR
STARTCHAR B
ENCODING 66
SWIDTH 686 0
DWIDTH 44 0
BBX 33 47 6 0
BITMAP
FFFFF80000
FFFFFF0000
FFFFFFC000
FFFFFFF000
FFFFFFF800
FC000FF800
FC0003FC00
FC0001FC00
FC0000FE00
FC0000FE00
FC00007E00
FC00007E00
FC00007E00
FC00007E00
FC00007E00
FC00007E00
FC0000FC00
FC0001FC00
FC0003F800
FC000FF800
FFFFFFF000
FFFFFFC000
FFFFFF8000
FFFFFFE000
FFFFFFF800
FC0007FC00
FC0001FE00
FC00007E00
FC00003F00
FC00003F00
FC00001F80
FC00001F80
FC00001F80
FC00001F80
FC00001F80
FC00001F80
FC00001F80
FC00003F80
FC00003F00
FC00007F00
FC0001FE00
FC0007FE00
FFFFFFFC00
FFFFFFF800
FFFFFFE000
FFFFFF8000
FFFFFC0000
ENDCHAR
STARTCHAR C
ENCODING 67
SWIDTH 698 0
DWIDTH 45 0
BBX 38 49 4 -1
BITMAP
00003FF800
0003FFFF80
000FFFFFE0
003FFFFFF8
00FFFFFFFC
01FFC00FFC
03FE0001FC
07F800007C
07F000001C
0FE000000C
1FC0000004
1F80000000
3F80000000
3F00000000
7F00000000
7E00000000
7E00000000
7E00000000
FE00000000
FC00000000
FC00000000
FC00000000
FC00000000
FC00000000
FC00000000
FC00000000
FC00000000
FC00000000
FC00000000
FC00000000
FE00000000
7E00000000
7E00000000
7E00000000
7F00000000
3F00000000
3F80000000
1F80000000
1FC0000004
0FE000000C
07F000001C
07F800007C
03FE0001FC
01FFC00FFC
00FFFFFFFC
003FFFFFF8
001FFFFFE0
0003FFFF80
00007FF800
ENDCHAR
STARTCHAR D
ENCODING 68
SWIDTH 770 0
DWIDTH 49 0
BBX 39 47 6 0
BITMAP
FFFFF00000
FFFFFF8000
FFFFFFF000
FFFFFFFC00
FFFFFFFE00
FC000FFF00
FC0001FFC0
FC00003FC0
FC00001FE0
FC00000FF0
FC000007F0
FC000003F8
FC000001F8
FC000001FC
FC000000FC
FC000000FC
FC000000FC
FC000000FE
FC0000007E
FC0000007E
FC0000007E
FC0000007E
FC0000007E
FC0000007E
FC0000007E
FC0000007E
FC0000007E
FC0000007E
FC0000007E
FC000000FE
FC000000FC
FC000000FC
FC000000FC
FC000001FC
FC000001F8
FC000003F8
FC000007F0
FC00000FF0
FC00001FE0
FC00003FC0
FC0000FFC0
FC000FFF00
FFFFFFFE00
FFFFFFFC00
FFFFFFF000
FFFFFF8000
FFFFF00000
ENDCHAR
STARTCHAR E
ENCODING 69
SWIDTH 631 0
DWIDTH 40 0
BBX 30 47 6 0
BITMAP
FFFFFFF8
FFFFFFF8
FFFFFFF8
FFFFFFF8
FFFFFFF8
FC000000
FC000000
FC000000
FC000000
FC000000
FC000000
FC000000
FC000000
FC000000
FC000000
FC000000
FC000000
FC000000
FC000000
FFFFFFF0
FFFFFFF0
FFFFFFF0
FFFFFFF0
FFFFFFF0
FC000000
FC000000
FC000000
FC000000
FC000000
FC000000
FC000000
FC000000
FC000000
FC000000
FC000000
FC000000
FC000000
FC000000
FC000000
FC000000
FC000000
FC000000
FFFFFFFC
FFFFFFFC
FFFFFFFC
FFFFFFFC
FFFFFFFC
ENDCHAR
STARTCHAR F
ENCODING 70
SWIDTH 575 0
DWIDTH 37 0
BBX 27 47 6 0
BITMAP
FFFFFFE0
FFFFFFE0
FFFFFFE0
FFFFFFE0
FFFFFFE0
FC000000
FC000000
FC000000
FC000000
FC000000
FC000000
FC000000
FC000000
FC000000
FC000000
FC000000
FC000000
FC000000
FC000000
FFFFFF80
FFFFFF80
FFFFFF80
FFFFFF80
FFFFFF80
FC000000
FC000000
FC000000
FC000000
FC000000
FC000000
FC000000
FC000000
FC000000
FC000000
FC000000
FC000000
FC000000
FC000000
FC000000
FC000000
FC000000
FC000000
FC000000
FC000000
FC000000
FC000000
FC000000
ENDCHAR
STARTCHAR G
ENCODING 71
SWIDTH 774 0
DWIDTH 50 0
BBX 41 49 4 -1
BITMAP
00003FFC0000
0003FFFFC000
000FFFFFF800
003FFFFFFE00
00FFFFFFFF00
01FFE007FF00
03FE0000FF00
07F800001F00
07F000000F00
0FE000000300
1FC000000100
1F8000000000
3F8000000000
3F0000000000
7F0000000000
7E0000000000
7E0000000000
7E0000000000
FC0000000000
FC0000000000
FC0000000000
FC0000000000
FC0000000000
FC0000000000
FC00007FFF80
FC00007FFF80
FC00007FFF80
FC00007FFF80
FC00007FFF80
FC0000001F80
FC0000001F80
7E0000001F80
7E0000001F80
7E0000001F80
7F0000001F80
3F0000001F80
3F8000001F80
1F8000001F80
1FC000001F80
0FE000001F80
0FF000001F80
07F800001F80
03FE00007F80
01FFE003FF80
00FFFFFFFF00
003FFFFFFC00
000FFFFFF000
0003FFFFC000
00007FF80000
ENDCHAR
STARTCHAR H
ENCODING 72
SWIDTH 751 0
DWIDTH 48 0
BBX 36 47 6 0
BITMAP
FC000003F0
FC000003F0
FC000003F0
FC000003F0
FC000003F0
FC000003F0
FC000003F0
FC000003F0
FC000003F0
FC000003F0
FC000003F0
FC000003F0
FC000003F0
FC000003F0
FC000003F0
FC000003F0
FC000003F0
FC000003F0
FC000003F0
FFFFFFFFF0
FFFFFFFFF0
FFFFFFFFF0
FFFFFFFFF0
FFFFFFFFF0
FC000003F0
FC000003F0
FC000003F0
FC000003F0
FC000003F0
FC000003F0
FC000003F0
FC000003F0
FC000003F0
FC000003F0
FC000003F0
FC000003F0
FC000003F0
FC000003F0
FC000003F0
FC000003F0
FC000003F0
FC000003F0
FC000003F0
FC000003F0
FC000003F0
FC000003F0
FC000003F0
ENDCHAR
STARTCHAR I
ENCODING 73
SWIDTH 294 0
DWIDTH 19 0
BBX 6 47 6 0
BITMAP
FC
FC
FC
FC
FC
FC
FC
FC
FC
FC
FC
FC
FC
FC
FC
FC
FC
FC
FC
FC
FC
FC
FC
FC
FC
FC
FC
FC
FC
FC
FC
FC
FC
FC
FC
FC
FC
FC
FC
FC
FC
FC
FC
FC
FC
FC
FC
ENDCHAR
STARTCHAR J
ENCODING 74
SWIDTH 294 0
DWIDTH 19 0
BBX 16 60 -4 -13
BITMAP
003F
003F
003F
003F
003F
003F
003F
003F
003F
003F
003F
003F
003F
003F
003F
003F
003F
003F
003F
003F
003F
003F
003F
003F
003F
003F
003F
003F
003F
003F
003F
003F
003F
003F
003F
003F
003F
003F
003F
003F
003F
003F
003F
003F
003F
003F
003F
003F
003F
007F
007E
007E
00FE
01FC
07FC
FFF8
FFF8
FFF0
FFC0
FE00
ENDCHAR
STARTCHAR K
ENCODING 75
SWIDTH 655 0
DWIDTH 42 0
BBX 37 47 6 0
BITMAP
FC00003FC0
FC00007F80
FC0000FF00
FC0001FE00
FC0003FC00
FC000FF800
FC001FF000
FC003FE000
FC007FC000
FC00FF8000
FC01FF0000
FC03FE0000
FC07FC0000
FC0FF80000
FC1FF00000
FC3FE00000
FC7FC00000
FCFF800000
FDFE000000
FFFC000000
FFF8000000
FFF0000000
FFF0000000
FFFC000000
FFFE000000
FDFF000000
FCFF800000
FC7FC00000
FC3FE00000
FC1FF00000
FC0FF80000
FC07FC0000
FC03FE0000
FC01FF0000
FC00FF8000
FC007FC000
FC003FE000
FC001FF000
FC000FF800
FC0007FC00
FC0003FE00
FC0001FF00
FC0000FF80
FC00007FC0
FC00003FE0
FC00001FF0
FC00000FF8
ENDCHAR
STARTCHAR L
ENCODING 76
SWIDTH 557 0
DWIDTH 36 0
BBX 29 47 6 0
BITMAP
FC000000
FC000000
FC000000
FC000000
FC000000
FC000000
FC000000
FC000000
FC000000
FC000000
FC000000
FC000000
FC000000
FC000000
FC000000
FC000000
FC000000
FC000000
FC000000
FC000000
FC000000
FC000000
FC000000
FC000000
FC000000
FC000000
FC000000
FC000000
FC000000
FC000000
FC000000
FC000000
FC000000
FC000000
FC000000
FC000000
FC000000
FC000000
FC000000
FC000000
FC000000
FC000000
FFFFFFF8
FFFFFFF8
FFFFFFF8
FFFFFFF8
FFFFFFF8
ENDCHAR
STARTCHAR M
ENCODING 77
SWIDTH 862 0
DWIDTH 55 0
BBX 43 47 6 0
BITMAP
FFC000007FE0
FFE00000FFE0
FFE00000FFE0
FFF00001FFE0
FFF00001FFE0
FFF00001FFE0
FFF80003FFE0
FDF80003F7E0
FDF80003F7E0
FDFC0007F7E0
FCFC0007E7E0
FCFE000FE7E0
FC7E000FC7E0
FC7E000FC7E0
FC7F001FC7E0
FC3F001F87E0
FC3F803F87E0
FC3F803F87E0
FC1F803F07E0
FC1FC07F07E0
FC0FC07E07E0
FC0FC07E07E0
FC0FE0FE07E0
FC07E0FC07E0
FC07F1FC07E0
FC03F1F807E0
FC03F1F807E0
FC03FBF807E0
FC01FBF007E0
FC01FBF007E0
FC01FFF007E0
FC00FFE007E0
FC00FFE007E0
FC007FC007E0
FC007FC007E0
FC007FC007E0
FC003F8007E0
FC003F8007E0
FC00000007E0
FC00000007E0
FC00000007E0
FC00000007E0
FC00000007E0
FC00000007E0
FC00000007E0
FC00000007E0
FC00000007E0
ENDCHAR
STARTCHAR N
ENCODING 78
SWIDTH 748 0
DWIDTH 48 0
BBX 35 47 6 0
BITMAP
FF800007E0
FF800007E0
FFC00007E0
FFC00007E0
FFE00007E0
FFE00007E0
FFF00007E0
FFF00007E0
FFF80007E0
FDF80007E0
FDFC0007E0
FCFE0007E0
FCFE0007E0
FC7F0007E0
FC7F0007E0
FC3F8007E0
FC3F8007E0
FC1FC007E0
FC1FC007E0
FC0FE007E0
FC07E007E0
FC07F007E0
FC03F007E0
FC03F807E0
FC01F807E0
FC01FC07E0
FC00FE07E0
FC00FE07E0
FC007F07E0
FC007F07E0
FC003F87E0
FC003F87E0
FC001FC7E0
FC001FC7E0
FC000FE7E0
FC000FE7E0
FC0007F7E0
FC0003F7E0
FC0003FFE0
FC0001FFE0
FC0001FFE0
FC0000FFE0
FC0000FFE0
FC00007FE0
FC00007FE0
FC00003FE0
FC00003FE0
ENDCHAR
STARTCHAR O
ENCODING 79
SWIDTH 787 0
DWIDTH 50 0
BBX 43 49 4 -1
BITMAP
00007FE00000
0007FFFC0000
001FFFFF0000
007FFFFFC000
00FFFFFFE000
01FFC03FF000
03FE000FF800
07F80003FC00
0FF00001FE00
0FE00000FE00
1FC000007F00
1F8000003F00
3F8000003F80
3F0000001F80
7F0000001FC0
7E0000000FC0
7E0000000FC0
7E0000000FC0
FE0000000FE0
FC00000007E0
FC00000007E0
FC00000007E0
FC00000007E0
FC00000007E0
FC00000007E0
FC00000007E0
FC00000007E0
FC00000007E0
FC00000007E0
FC00000007E0
FE0000000FE0
7E0000000FC0
7E0000000FC0
7E0000000FC0
7F0000001FC0
3F0000001F80
3F8000003F80
1F8000003F00
1FC000007F00
0FE00000FE00
0FF00001FE00
07F80003FC00
03FE000FF800
01FFC03FF000
00FFFFFFE000
007FFFFFC000
001FFFFF0000
0007FFFC0000
0000FFE00000
ENDCHAR
STARTCHAR P
ENCODING 80
SWIDTH 603 0
DWIDTH 39 0
BBX 30 47 6 0
BITMAP
FFFFF000
FFFFFE00
FFFFFF80
FFFFFFC0
FFFFFFE0
FC003FF0
FC000FF0
FC0003F8
FC0003F8
FC0001F8
FC0001FC
FC0000FC
FC0000FC
FC0000FC
FC0000FC
FC0000FC
FC0000FC
FC0001FC
FC0001F8
FC0003F8
FC0003F8
FC000FF0
FC003FF0
FFFFFFE0
FFFFFFC0
FFFFFF80
FFFFFE00
FFFFF000
FC000000
FC000000
FC000000
FC000000
FC000000
FC000000
FC000000
FC000000
FC000000
FC000000
FC000000
FC000000
FC000000
FC000000
FC000000
FC000000
FC000000
FC000000
FC000000
ENDCHAR
STARTCHAR Q
ENCODING 81
SWIDTH 787 0
DWIDTH 50 0
BBX 43 56 4 -8
BITMAP
00007FE00000
0007FFFC0000
001FFFFF0000
007FFFFFC000
00FFFFFFE000
01FFC03FF000
03FE000FF800
07F80003FC00
0FF00001FE00
0FE00000FE00
1FC000007F00
1F8000003F00
3F8000003F80
3F0000001F80
7F0000001FC0
7E0000000FC0
7E0000000FC0
7E0000000FC0
FE0000000FE0
FC00000007E0
FC00000007E0
FC00000007E0
FC00000007E0
FC00000007E0
FC00000007E0
FC00000007E0
FC00000007E0
FC00000007E0
FC00000007E0
FC00000007E0
FE0000000FE0
7E0000000FC0
7E0000000FC0
7E0000000FC0
7F0000001FC0
3F0000001F80
3F8000003F80
1F8000003F00
1FC000007F00
0FE00000FE00
0FF00001FE00
07F80003FC00
03FE000FF800
01FFC03FF000
00FFFFFFE000
007FFFFFC000
001FFFFF0000
0007FFFE0000
0000FFFF0000
0000007F8000
0000007FC000
0000003FE000
0000001FF000
0000000FF800
00000007FC00
00000003FE00
ENDCHAR
STARTCHAR R
ENCODING 82
SWIDTH 694 0
DWIDTH 44 0
BBX 36 47 6 0
BITMAP
FFFFF00000
FFFFFE0000
FFFFFF8000
FFFFFFC000
FFFFFFE000
FC003FF000
FC0007F800
FC0003F800
FC0001F800
FC0001FC00
FC0000FC00
FC0000FC00
FC0000FC00
FC0000FC00
FC0000FC00
FC0000FC00
FC0000FC00
FC0001FC00
FC0001F800
FC0003F800
FC0007F000
FC003FF000
FFFFFFE000
FFFFFFC000
FFFFFF0000
FFFFFF0000
FFFFFF8000
FC007FC000
FC001FE000
FC000FE000
FC0007F000
FC0003F800
FC0003F800
FC0001FC00
FC0001FC00
FC0000FE00
FC0000FE00
FC00007E00
FC00007F00
FC00003F00
FC00003F80
FC00001F80
FC00001FC0
FC00000FC0
FC00000FE0
FC000007E0
FC000007F0
ENDCHAR
STARTCHAR S
ENCODING 83
SWIDTH 634 0
DWIDTH 41 0
BBX 33 49 4 -1
BITMAP
001FFE0000
00FFFFF000
03FFFFFC00
0FFFFFFC00
1FFFFFFC00
3FF003FC00
3FC0003C00
7F00000400
7E00000000
FE00000000
FC00000000
FC00000000
FC00000000
FC00000000
FC00000000
FC00000000
FE00000000
7F00000000
7FC0000000
3FF8000000
3FFF800000
1FFFFC0000
0FFFFF8000
03FFFFE000
00FFFFF000
000FFFFC00
00007FFC00
000007FE00
000001FF00
0000007F00
0000007F00
0000003F80
0000001F80
0000001F80
0000001F80
0000001F80
0000001F80
0000001F80
0000003F80
8000003F00
E000007F00
F80000FF00
FE0001FE00
FFE00FFC00
FFFFFFF800
FFFFFFF000
7FFFFFE000
07FFFF8000
007FF80000
ENDCHAR
STARTCHAR T
ENCODING 84
SWIDTH 610 0
DWIDTH 39 0
BBX 40 47 -1 0
BITMAP
FFFFFFFFFF
FFFFFFFFFF
FFFFFFFFFF
FFFFFFFFFF
FFFFFFFFFF
00007E0000
00007E0000
00007E0000
00007E0000
00007E0000
00007E0000
00007E0000
00007E0000
00007E0000
00007E0000
00007E0000
00007E0000
00007E0000
00007E0000
00007E0000
00007E0000
00007E0000
00007E0000
00007E0000
00007E0000
00007E0000
00007E0000
00007E0000
00007E0000
00007E0000
00007E0000
00007E0000
00007E0000
00007E0000
00007E0000
00007E0000
00007E0000
00007E0000
00007E0000
00007E0000
00007E0000
00007E0000
00007E0000
00007E0000
00007E0000
00007E0000
00007E0000
ENDCHAR
STARTCHAR U
ENCODING 85
SWIDTH 731 0
DWIDTH 47 0
BBX 36 48 6 -1
BITMAP
FC000003F0
FC000003F0
FC000003F0
FC000003F0
FC000003F0
FC000003F0
FC000003F0
FC000003F0
FC000003F0
FC000003F0
FC000003F0
FC000003F0
FC000003F0
FC000003F0
FC000003F0
FC000003F0
FC000003F0
FC000003F0
FC000003F0
FC000003F0
FC000003F0
FC000003F0
FC000003F0
FC000003F0
FC000003F0
FC000003F0
FC000003F0
FC000003F0
FC000003F0
FC000003F0
FC000003F0
FC000003F0
FC000003F0
FC000003F0
FE000007F0
7E000007E0
7E000007E0
7E00000FE0
7F00000FE0
3F80001FC0
3FC0003FC0
1FE0007F80
0FFC03FF00
07FFFFFE00
03FFFFFC00
01FFFFF800
007FFFE000
0007FE0000
ENDCHAR
STARTCHAR V
ENCODING 86
SWIDTH 684 0
DWIDTH 44 0
BBX 43 47 1 0
BITMAP
FE0000000FE0
7E0000000FC0
7E0000000FC0
7F0000001FC0
3F0000001F80
3F8000003F80
3F8000003F80
1F8000003F00
1FC000007F00
0FC000007E00
0FC000007E00
0FE00000FE00
07E00000FC00
07F00001FC00
03F00001F800
03F00001F800
03F80003F800
01F80003F000
01F80003F000
01FC0007F000
00FC0007E000
00FE000FE000
007E000FC000
007E000FC000
007F001FC000
003F001F8000
003F803F8000
003F803F8000
001F803F0000
001FC07F0000
000FC07E0000
000FC07E0000
000FE0FE0000
0007E0FC0000
0007F1FC0000
0003F1FC0000
0003F1F80000
0003FBF80000
0001FBF00000
0001FBF00000
0001FFF00000
0000FFE00000
0000FFE00000
00007FC00000
00007FC00000
00007FC00000
00003F800000
ENDCHAR
STARTCHAR W
ENCODING 87
SWIDTH 988 0
DWIDTH 63 0
BBX 59 47 2 0
BITMAP
FC00003F800007E0
FE00003FC0000FE0
7E00007FC0000FC0
7E00007FC0000FC0
7E00007FC0000FC0
7F00007FE0001FC0
3F0000FBE0001F80
3F0000FBE0001F80
3F0000FBE0001F80
3F8000FBE0003F80
1F8001F1F0003F00
1F8001F1F0003F00
1F8001F1F0003F00
1FC001F1F0007F00
0FC003F0F8007E00
0FC003E0F8007E00
0FC003E0F8007E00
0FE003E0F800FE00
07E007E0FC00FC00
07E007C07C00FC00
07E007C07C00FC00
07F007C07C01FC00
03F00FC07E01F800
03F00F803E01F800
03F00F803E01F800
03F80F803E03F800
01F81F803F03F000
01F81F001F03F000
01F81F001F03F000
01FC1F001F07F000
00FC3F001F87E000
00FC3E000F87E000
00FC3E000F87E000
00FC3E000F8FE000
007E7E000F8FC000
007E7C0007CFC000
007E7C0007CFC000
007E7C0007DFC000
003F7C0007DF8000
003FF80003FF8000
003FF80003FF8000
003FF80003FF8000
001FF80003FF0000
001FF00001FF0000
001FF00001FF0000
001FF00001FF0000
000FF00001FE0000
ENDCHAR
STARTCHAR X
ENCODING 88
SWIDTH 685 0
DWIDTH 44 0
BBX 40 47 2 0
BITMAP
3FC00001FE
1FC00001FC
0FE00003F8
0FF00007F8
07F00007F0
03F8000FE0
03FC001FE0
01FC001FC0
00FE003F80
00FF007F80
007F007F00
003F80FE00
003FC1FE00
001FC1FC00
000FE3F800
000FF7F800
0007F7F000
0003FFE000
0003FFE000
0001FFC000
0000FF8000
0000FF8000
0000FF0000
0000FF8000
0001FF8000
0003FFC000
0003FFE000
0007FFE000
000FE7F000
000FE7F000
001FC3F800
003F81FC00
003F81FC00
007F00FE00
00FE007F00
00FE007F00
01FC003F80
03FC001FC0
03F8001FC0
07F0000FE0
0FF00007F0
0FE00007F0
1FC00003F8
3FC00003FC
3F800001FC
7F000000FE
FF000000FF
ENDCHAR
STARTCHAR Y
ENCODING 89
SWIDTH 610 0
DWIDTH 39 0
BBX 40 47 -1 0
BITMAP
FF000000FF
7F000000FE
3F800001FC
3FC00003FC
1FC00003F8
0FE00007F0
0FF0000FF0
07F0000FE0
03F8001FC0
01FC003F80
01FE007F80
00FE007F00
007F00FE00
007F81FE00
003F81FC00
001FC3F800
001FE7F800
000FE7F000
0007FFE000
0007FFE000
0003FFC000
0001FF8000
0000FF0000
0000FF0000
00007E0000
00007E0000
00007E0000
00007E0000
00007E0000
00007E0000
00007E0000
00007E0000
00007E0000
00007E0000
00007E0000
00007E0000
00007E0000
00007E0000
00007E0000
00007E0000
00007E0000
00007E0000
00007E0000
00007E0000
00007E0000
00007E0000
00007E0000
ENDCHAR
STARTCHAR Z
ENCODING 90
SWIDTH 685 0
DWIDTH 44 0
BBX 38 47 3 0
BITMAP
7FFFFFFFF8
7FFFFFFFF8
7FFFFFFFF8
7FFFFFFFF8
7FFFFFFFF8
00000007F8
0000000FF0
0000001FE0
0000001FC0
0000003F80
0000007F80
000000FF00
000001FE00
000001FC00
000003F800
000007F800
00000FF000
00001FE000
00001FC000
00003F8000
00007F8000
0000FF0000
0001FE0000
0001FC0000
0003FC0000
0007F80000
000FF00000
000FE00000
001FC00000
003FC00000
007F800000
00FF000000
00FE000000
01FC000000
03FC000000
07F8000000
0FF0000000
0FE0000000
1FE0000000
3FC0000000
7F80000000
FF00000000
FFFFFFFFFC
FFFFFFFFFC
FFFFFFFFFC
FFFFFFFFFC
FFFFFFFFFC
ENDCHAR
STARTCHAR bracketleft
ENCODING 91
SWIDTH 390 0
DWIDTH 25 0
BBX 14 57 6 -8
BITMAP
FFFC
FFFC
FFFC
FFFC
FFFC
FC00
FC00
FC00
FC00
FC00
FC00
FC00
FC00
FC00
FC00
FC00
FC00
FC00
FC00
FC00
FC00
FC00
FC00
FC00
FC00
FC00
FC00
FC00
FC00
FC00
FC00
FC00
FC00
FC00
FC00
FC00
FC00
FC00
FC00
FC00
FC00
FC00
FC00
FC00
FC00
FC00
FC00
FC00
FC00
FC00
FC00
FC00
FFFC
FFFC
FFFC
FFFC
FFFC
ENDCHAR
STARTCHAR backslash
ENCODING 92
SWIDTH 336 0
DWIDTH 22 0
BBX 22 53 0 -6
BITMAP
F80000
FC0000
7C0000
7C0000
7E0000
3E0000
3E0000
3F0000
1F0000
1F0000
1F8000
0F8000
0F8000
0FC000
07C000
07C000
07C000
03E000
03E000
03E000
03F000
01F000
01F000
01F800
00F800
00F800
00FC00
007C00
007C00
007E00
003E00
003E00
003F00
001F00
001F00
001F00
000F80
000F80
000F80
000FC0
0007C0
0007C0
0007E0
0003E0
0003E0
0003F0
0001F0
0001F0
0001F8
0000F8
0000F8
0000FC
00007C
ENDCHAR
STARTCHAR bracketright
ENCODING 93
SWIDTH 390 0
DWIDTH 25 0
BBX 13 57 6 -8
BITMAP
FFF8
FFF8
FFF8
FFF8
FFF8
01F8
01F8
01F8
01F8
01F8
01F8
01F8
01F8
01F8
01F8
01F8
01F8
01F8
01F8
01F8
01F8
01F8
01F8
01F8
01F8
01F8
01F8
01F8
01F8
01F8
01F8
01F8
01F8
01F8
01F8
01F8
01F8
01F8
01F8
01F8
01F8
01F8
01F8
01F8
01F8
01F8
01F8
01F8
01F8
01F8
01F8
01F8
FFF8
FFF8
FFF8
FFF8
FFF8
ENDCHAR
STARTCHAR asciicircum
ENCODING 94
SWIDTH 837 0
DWIDTH 54 0
BBX 40 17 7 30
BITMAP
0000FF0000
0001FF8000
0003FFC000
0007FFE000
000FFFF000
001FE7F800
003FC3FC00
007F81FE00
00FF00FF00
01FE007F80
03FC003FC0
07F8001FE0
0FE00007F0
1FC00003F8
3F800001FC
7F000000FE
FE0000007F
ENDCHAR
STARTCHAR underscore
ENCODING 95
SWIDTH 500 0
DWIDTH 32 0
BBX 34 5 -1 -15
BITMAP
FFFFFFFFC0
FFFFFFFFC0
FFFFFFFFC0
FFFFFFFFC0
FFFFFFFFC0
ENDCHAR
STARTCHAR grave
ENCODING 96
SWIDTH 500 0
DWIDTH 32 0
BBX 15 12 5 39
BITMAP
FE00
7E00
3F00
1F80
0F80
07C0
03E0
03F0
01F0
00F8
007C
003E
ENDCHAR
STARTCHAR a
ENCODING 97
SWIDTH 612 0
DWIDTH 39 0
BBX 30 37 4 -1
BITMAP
003FF000
01FFFE00
0FFFFF00
1FFFFFC0
1FFFFFE0
1F803FE0
1C000FF0
100003F0
000001F8
000001F8
000000F8
000000FC
000000FC
000000FC
003FFFFC
01FFFFFC
07FFFFFC
1FFFFFFC
3FFFFFFC
3FF000FC
7F8000FC
7E0000FC
FE0000FC
FC0000FC
FC0001FC
FC0001FC
FC0001FC
FC0003FC
FE0007FC
FE000FFC
7F001FFC
7FC07FFC
3FFFFEFC
1FFFFCFC
0FFFF8FC
07FFE0FC
00FF0000
ENDCHAR
STARTCHAR b
ENCODING 98
SWIDTH 634 0
DWIDTH 41 0
BBX 31 50 6 -1
BITMAP
FC000000
FC000000
FC000000
FC000000
FC000000
FC000000
FC000000
FC000000
FC000000
FC000000
FC000000
FC000000
FC000000
FC07F800
FC3FFE00
FC7FFF80
FCFFFFC0
FDFFFFE0
FFF83FE0
FFE00FF0
FF8003F8
FF8003F8
FF0001FC
FE0000FC
FE0000FC
FE0000FC
FC0000FE
FC00007E
FC00007E
FC00007E
FC00007E
FC00007E
FC00007E
FC00007E
FC00007E
FC00007E
FC0000FE
FE0000FC
FE0000FC
FE0000FC
FF0001FC
FF8003F8
FF8003F8
FFE00FF0
FFF01FE0
FDFFFFE0
FCFFFFC0
FC7FFF80
FC3FFE00
0007F800
ENDCHAR
STARTCHAR c
ENCODING 99
SWIDTH 549 0
DWIDTH 35 0
BBX 28 37 4 -1
BITMAP
0007FC00
003FFF80
00FFFFE0
03FFFFF0
07FFFFF0
0FFC03F0
1FF00070
1FC00010
3F800000
3F000000
7F000000
7E000000
7E000000
FE000000
FC000000
FC000000
FC000000
FC000000
FC000000
FC000000
FC000000
FC000000
FC000000
FE000000
7E000000
7E000000
7F000000
3F000000
3F800000
1FC00010
1FF00070
0FFC03F0
07FFFFF0
03FFFFF0
00FFFFE0
003FFF80
0007FC00
ENDCHAR
STARTCHAR d
ENCODING 100
SWIDTH 634 0
DWIDTH 41 0
BBX 31 50 4 -1
BITMAP
0000007E
0000007E
0000007E
0000007E
0000007E
0000007E
0000007E
0000007E
0000007E
0000007E
0000007E
0000007E
0000007E
003FC07E
00FFF87E
03FFFC7E
07FFFE7E
0FFFFF7E
0FF83FFE
1FE00FFE
3F8003FE
3F8003FE
7F0001FE
7E0000FE
7E0000FE
7E0000FE
FC0000FE
FC00007E
FC00007E
FC00007E
FC00007E
FC00007E
FC00007E
FC00007E
FC00007E
FC00007E
FC0000FE
7E0000FE
7E0000FE
7E0000FE
7F0001FE
3F8003FE
3F8003FE
1FE00FFE
0FF01FFE
0FFFFF7E
07FFFE7E
03FFFC7E
00FFF87E
003FC000
ENDCHAR
STARTCHAR e
ENCODING 101
SWIDTH 615 0
DWIDTH 39 0
BBX 32 37 4 -1
BITMAP
000FF800
007FFF00
00FFFFC0
03FFFFE0
07FFFFF0
0FF80FF8
1FE003F8
1FC001FC
3F8000FC
3F00007E
7E00007E
7E00003E
7E00003F
FC00003F
FC00003F
FFFFFFFF
FFFFFFFF
FFFFFFFF
FFFFFFFF
FFFFFFFF
FC000000
FC000000
FC000000
FE000000
7E000000
7E000000
7F000000
3F000000
3F800000
1FC00002
1FF0001E
0FFC00FE
07FFFFFE
03FFFFFE
00FFFFFC
003FFFE0
0007FF00
ENDCHAR
STARTCHAR f
ENCODING 102
SWIDTH 352 0
DWIDTH 23 0
BBX 23 49 1 0
BITMAP
0007FE
003FFE
007FFE
00FFFE
01FFFE
01FC00
01F800
03F000
03F000
03F000
03F000
03F000
03F000
03F000
FFFFF8
FFFFF8
FFFFF8
FFFFF8
FFFFF8
03F000
03F000
03F000
03F000
03F000
03F000
03F000
03F000
03F000
03F000
03F000
03F000
03F000
03F000
03F000
03F000
03F000
03F000
03F000
03F000
03F000
03F000
03F000
03F000
03F000
03F000
03F000
03F000
03F000
03F000
ENDCHAR
STARTCHAR g
ENCODING 103
SWIDTH 634 0
DWIDTH 41 0
BBX 31 49 4 -13
BITMAP
003FC000
00FFF87E
03FFFC7E
07FFFE7E
0FFFFF7E
1FF01FFE
1FC007FE
3F8003FE
3F0001FE
7F0001FE
7E0000FE
7E0000FE
FE0000FE
FC00007E
FC00007E
FC00007E
FC00007E
FC00007E
FC00007E
FC00007E
FC00007E
FC00007E
FC00007E
FE0000FE
7E0000FE
7E0000FE
7F0001FE
3F0001FE
3F8003FE
1FC007FE
1FF01FFE
0FFFFF7E
07FFFE7E
03FFFC7E
00FFF87E
003FC07E
0000007E
000000FC
000000FC
000001FC
000001FC
080003F8
0E000FF8
0FC03FF0
0FFFFFE0
0FFFFFC0
0FFFFF80
07FFFE00
007FF000
ENDCHAR
STARTCHAR h
ENCODING 104
SWIDTH 633 0
DWIDTH 41 0
BBX 29 49 6 0
BITMAP
FC000000
FC000000
FC000000
FC000000
FC000000
FC000000
FC000000
FC000000
FC000000
FC000000
FC000000
FC000000
FC000000
FC07F800
FC1FFE00
FC7FFF80
FCFFFFC0
FDFFFFE0
FFF03FE0
FFC00FF0
FF8007F0
FF0003F0
FE0003F8
FE0001F8
FE0001F8
FC0001F8
FC0001F8
FC0001F8
FC0001F8
FC0001F8
FC0001F8
FC0001F8
FC0001F8
FC0001F8
FC0001F8
FC0001F8
FC0001F8
FC0001F8
FC0001F8
FC0001F8
FC0001F8
FC0001F8
FC0001F8
FC0001F8
FC0001F8
FC0001F8
FC0001F8
FC0001F8
FC0001F8
ENDCHAR
STARTCHAR i
ENCODING 105
SWIDTH 277 0
DWIDTH 18 0
BBX 6 49 6 0
BITMAP
FC
FC
FC
FC
FC
FC
FC
00
00
00
00
00
00
00
FC
FC
FC
FC
FC
FC
FC
FC
FC
FC
FC
FC
FC
FC
FC
FC
FC
FC
FC
FC
FC
FC
FC
FC
FC
FC
FC
FC
FC
FC
FC
FC
FC
FC
FC
ENDCHAR
STARTCHAR j
ENCODING 106
SWIDTH 277 0
DWIDTH 18 0
BBX 13 62 -1 -13
BITMAP
01F8
01F8
01F8
01F8
01F8
01F8
01F8
0000
0000
0000
0000
0000
0000
0000
01F8
01F8
01F8
01F8
01F8
01F8
01F8
01F8
01F8
01F8
01F8
01F8
01F8
01F8
01F8
01F8
01F8
01F8
01F8
01F8
01F8
01F8
01F8
01F8
01F8
01F8
01F8
01F8
01F8
01F8
01F8
01F8
01F8
01F8
01F8
01F8
01F8
01F8
01F8
01F8
03F0
03F0
0FF0
FFE0
FFE0
FFC0
FF80
FC00
ENDCHAR
STARTCHAR k
ENCODING 107
SWIDTH 579 0
DWIDTH 37 0
BBX 30 49 6 0
BITMAP
FC000000
FC000000
FC000000
FC000000
FC000000
FC000000
FC000000
FC000000
FC000000
FC000000
FC000000
FC000000
FC000000
FC000000
FC000FF8
FC001FF0
FC003FE0
FC007FC0
FC00FF80
FC01FF00
FC03FE00
FC07FC00
FC0FF800
FC3FE000
FC7FC000
FCFF8000
FDFF0000
FFFE0000
FFFC0000
FFF80000
FFF00000
FFF80000
FFFC0000
FFFE0000
FDFF0000
FCFF8000
FC7FC000
FC1FE000
FC0FF000
FC07F800
FC03FC00
FC01FE00
FC00FF00
FC007F80
FC003FC0
FC001FE0
FC000FF0
FC0007F8
FC0003FC
ENDCHAR
STARTCHAR l
ENCODING 108
SWIDTH 277 0
DWIDTH 18 0
BBX 6 49 6 0
BITMAP
FC
FC
FC
FC
FC
FC
FC
FC
FC
FC
FC
FC
FC
FC
FC
FC
FC
FC
FC
FC
FC
FC
FC
FC
FC
FC
FC
FC
FC
FC
FC
FC
FC
FC
FC
FC
FC
FC
FC
FC
FC
FC
FC
FC
FC
FC
FC
FC
FC
ENDCHAR
STARTCHAR m
ENCODING 109
SWIDTH 974 0
DWIDTH 62 0
BBX 50 36 6 0
BITMAP
0007F0001FC000
FC3FFE007FF800
FC7FFF01FFFC00
FCFFFF83FFFE00
FDFFFFC7FFFF00
FFF03FCFC0FF00
FFC01FFF007F80
FF800FFE003F80
FF0007FC001F80
FE0007F8001FC0
FE0003F8000FC0
FE0003F8000FC0
FC0003F0000FC0
FC0003F0000FC0
FC0003F0000FC0
FC0003F0000FC0
FC0003F0000FC0
FC0003F0000FC0
FC0003F0000FC0
FC0003F0000FC0
FC0003F0000FC0
FC0003F0000FC0
FC0003F0000FC0
FC0003F0000FC0
FC0003F0000FC0
FC0003F0000FC0
FC0003F0000FC0
FC0003F0000FC0
FC0003F0000FC0
FC0003F0000FC0
FC0003F0000FC0
FC0003F0000FC0
FC0003F0000FC0
FC0003F0000FC0
FC0003F0000FC0
FC0003F0000FC0
ENDCHAR
STARTCHAR n
ENCODING 110
SWIDTH 633 0
DWIDTH 41 0
BBX 29 36 6 0
BITMAP
0007F800
FC1FFE00
FC7FFF80
FCFFFFC0
FDFFFFE0
FFF03FE0
FFC00FF0
FF8007F0
FF0003F0
FE0003F8
FE0001F8
FE0001F8
FC0001F8
FC0001F8
FC0001F8
FC0001F8
FC0001F8
FC0001F8
FC0001F8
FC0001F8
FC0001F8
FC0001F8
FC0001F8
FC0001F8
FC0001F8
FC0001F8
FC0001F8
FC0001F8
FC0001F8
FC0001F8
FC0001F8
FC0001F8
FC0001F8
FC0001F8
FC0001F8
FC0001F8
ENDCHAR
STARTCHAR o
ENCODING 111
SWIDTH 611 0
DWIDTH 39 0
BBX 32 37 4 -1
BITMAP
000FF000
007FFE00
01FFFF80
03FFFFC0
07FFFFE0
0FF81FF0
1FE007F8
3FC003FC
3F8001FC
7F0000FC
7F0000FE
7E00007E
7E00007E
FE00007F
FC00003F
FC00003F
FC00003F
FC00003F
FC00003F
FC00003F
FC00003F
FC00003F
FC00003F
FC00007F
7E00007E
7E00007E
7F0000FE
7F0000FC
3F8001FC
3FC003FC
1FE007F8
0FF81FF0
07FFFFE0
03FFFFC0
01FFFF80
007FFE00
001FF800
ENDCHAR
STARTCHAR p
ENCODING 112
SWIDTH 634 0
DWIDTH 41 0
BBX 31 49 6 -13
BITMAP
0007F800
FC3FFE00
FC7FFF80
FCFFFFC0
FDFFFFE0
FFF83FE0
FFE00FF0
FF8003F8
FF8003F8
FF0001FC
FE0000FC
FE0000FC
FE0000FC
FC0000FE
FC00007E
FC00007E
FC00007E
FC00007E
FC00007E
FC00007E
FC00007E
FC00007E
FC00007E
FC0000FE
FE0000FC
FE0000FC
FE0000FC
FF0001FC
FF8003F8
FF8003F8
FFE00FF0
FFF01FE0
FDFFFFE0
FCFFFFC0
FC7FFF80
FC3FFE00
FC07F800
FC000000
FC000000
FC000000
FC000000
FC000000
FC000000
FC000000
FC000000
FC000000
FC000000
FC000000
FC000000
ENDCHAR
STARTCHAR q
ENCODING 113
SWIDTH 634 0
DWIDTH 41 0
BBX 31 49 4 -13
BITMAP
003FC000
00FFF87E
03FFFC7E
07FFFE7E
0FFFFF7E
0FF83FFE
1FE00FFE
3F8003FE
3F8003FE
7F0001FE
7E0000FE
7E0000FE
7E0000FE
FC0000FE
FC00007E
FC00007E
FC00007E
FC00007E
FC00007E
FC00007E
FC00007E
FC00007E
FC00007E
FC0000FE
7E0000FE
7E0000FE
7E0000FE
7F0001FE
3F8003FE
3F8003FE
1FE00FFE
0FF01FFE
0FFFFF7E
07FFFE7E
03FFFC7E
00FFF87E
003FC07E
0000007E
0000007E
0000007E
0000007E
0000007E
0000007E
0000007E
0000007E
0000007E
0000007E
0000007E
0000007E
ENDCHAR
STARTCHAR r
ENCODING 114
SWIDTH 411 0
DWIDTH 26 0
BBX 21 36 6 0
BITMAP
0003F8
FC1FF8
FC7FF8
FCFFF8
FDFFF8
FFF808
FFE000
FF8000
FF0000
FF0000
FE0000
FE0000
FE0000
FC0000
FC0000
FC0000
FC0000
FC0000
FC0000
FC0000
FC0000
FC0000
FC0000
FC0000
FC0000
FC0000
FC0000
FC0000
FC0000
FC0000
FC0000
FC0000
FC0000
FC0000
FC0000
FC0000
ENDCHAR
STARTCHAR s
ENCODING 115
SWIDTH 520 0
DWIDTH 33 0
BBX 27 37 4 -1
BITMAP
007FE000
03FFFC00
0FFFFF00
1FFFFF80
3FFFFF80
7FC01F80
7F000380
FE000080
FC000000
FC000000
FC000000
FC000000
FC000000
FE000000
7F000000
7FE00000
3FFE0000
1FFFE000
0FFFF800
03FFFE00
003FFF80
0003FF80
00003FC0
00001FC0
00000FE0
000007E0
000007E0
000007E0
000007E0
80000FE0
F0001FC0
FF007FC0
FFFFFF80
FFFFFF00
FFFFFE00
3FFFF800
03FFC000
ENDCHAR
STARTCHAR t
ENCODING 116
SWIDTH 392 0
DWIDTH 25 0
BBX 22 45 2 0
BITMAP
0FC000
0FC000
0FC000
0FC000
0FC000
0FC000
0FC000
0FC000
0FC000
0FC000
FFFFFC
FFFFFC
FFFFFC
FFFFFC
FFFFFC
0FC000
0FC000
0FC000
0FC000
0FC000
0FC000
0FC000
0FC000
0FC000
0FC000
0FC000
0FC000
0FC000
0FC000
0FC000
0FC000
0FC000
0FC000
0FC000
0FC000
0FC000
0FC000
0FC000
0FE000
07F000
07FFFC
03FFFC
01FFFC
00FFFC
001FFC
ENDCHAR
STARTCHAR u
ENCODING 117
SWIDTH 633 0
DWIDTH 41 0
BBX 29 36 6 -1
BITMAP
FC0001F8
FC0001F8
FC0001F8
FC0001F8
FC0001F8
FC0001F8
FC0001F8
FC0001F8
FC0001F8
FC0001F8
FC0001F8
FC0001F8
FC0001F8
FC0001F8
FC0001F8
FC0001F8
FC0001F8
FC0001F8
FC0001F8
FC0001F8
FC0001F8
FC0001F8
FC0001F8
FC0001F8
FC0003F8
FC0003F8
FE0003F8
7E0007F8
7F000FF8
7F801FF8
3FE07FF8
3FFFFDF8
1FFFF9F8
0FFFF1F8
03FFC1F8
00FF0000
ENDCHAR
STARTCHAR v
ENCODING 118
SWIDTH 591 0
DWIDTH 38 0
BBX 34 35 2 0
BITMAP
FE00001FC0
7E00001F80
7E00001F80
7F00003F80
3F00003F00
3F00003F00
3F80007F00
1F80007E00
1FC000FE00
0FC000FC00
0FC000FC00
0FE001FC00
07E001F800
07E001F800
07F003F800
03F003F000
03F807F000
01F807E000
01F807E000
01FC0FE000
00FC0FC000
00FC0FC000
00FE1FC000
007E1F8000
007F3F8000
003F3F0000
003F3F0000
003FFF0000
001FFE0000
001FFE0000
001FFE0000
000FFC0000
000FFC0000
0007F80000
0007F80000
ENDCHAR
STARTCHAR w
ENCODING 119
SWIDTH 817 0
DWIDTH 52 0
BBX 47 35 3 0
BITMAP
FC000FE0007E
FE000FE000FE
7E001FF000FC
7E001FF000FC
7E001FF000FC
7F001FF001FC
3F003EF801F8
3F003EF801F8
3F003EF801F8
3F807EFC03F8
1F807C7C03F0
1F807C7C03F0
1F807C7C03F0
0FC0FC7E07E0
0FC0F83E07E0
0FC0F83E07E0
0FE0F83E0FE0
07E1F83F0FC0
07E1F01F0FC0
07E1F01F0FC0
07F1F01F1FC0
03F3F01F9F80
03F3E00F9F80
03F3E00F9F80
03FBE00FBF80
01FFC007FF00
01FFC007FF00
01FFC007FF00
01FFC007FF00
00FF8003FE00
00FF8003FE00
00FF8003FE00
007F8003FE00
007F0001FC00
007F0001FC00
ENDCHAR
STARTCHAR x
ENCODING 120
SWIDTH 591 0
DWIDTH 38 0
BBX 34 35 2 0
BITMAP
7F80007F80
3FC000FF00
1FC000FE00
0FE001FC00
0FF003FC00
07F807F800
03F807F000
01FC0FE000
01FE1FE000
00FF3FC000
007F3F8000
003FFF0000
003FFF0000
001FFE0000
000FFC0000
0007FC0000
0007F80000
0007F80000
000FFC0000
001FFC0000
001FFE0000
003FFF0000
007FFF8000
00FF3F8000
00FE1FC000
01FC1FE000
03FC0FF000
07F807F000
07F003F800
0FE003FC00
1FE001FE00
1FC000FE00
3F80007F00
7F80007F80
FF00003FC0
ENDCHAR
STARTCHAR y
ENCODING 121
SWIDTH 591 0
DWIDTH 38 0
BBX 34 48 2 -13
BITMAP
FE00001FC0
7E00001F80
7E00003F80
7F00003F80
3F00003F00
3F80007F00
1F80007E00
1FC000FE00
1FC000FE00
0FC000FC00
0FE001FC00
07E001F800
07F003F800
03F003F800
03F003F000
03F807F000
01F807E000
01FC0FE000
00FC0FC000
00FC0FC000
00FE1FC000
007E1F8000
007F3F8000
003F3F0000
003FBF0000
003FFF0000
001FFE0000
001FFE0000
000FFC0000
000FFC0000
000FFC0000
0007F80000
0007F80000
0003F00000
0007F00000
0007F00000
0007E00000
000FE00000
000FC00000
001FC00000
001F800000
003F800000
007F000000
1FFF000000
1FFE000000
1FFC000000
1FF8000000
1FE0000000
ENDCHAR
STARTCHAR z
ENCODING 122
SWIDTH 524 0
DWIDTH 34 0
BBX 28 35 3 0
BITMAP
7FFFFFF0
7FFFFFF0
7FFFFFF0
7FFFFFF0
7FFFFFF0
00000FF0
00001FE0
00003FC0
00003F80
00007F80
0000FF00
0001FE00
0003FC00
0007F800
0007F000
000FF000
001FE000
003FC000
007F8000
00FF0000
00FF0000
01FE0000
03FC0000
07F80000
0FF00000
0FE00000
1FE00000
3FC00000
7F800000
FF000000
FFFFFFF0
FFFFFFF0
FFFFFFF0
FFFFFFF0
FFFFFFF0
ENDCHAR
STARTCHAR braceleft
ENCODING 123
SWIDTH 636 0
DWIDTH 41 0
BBX 25 59 8 -10
BITMAP
00007F80
0003FF80
000FFF80
000FFF80
001FFF80
001FE000
003F8000
003F8000
003F0000
003F0000
003F0000
003F0000
003F0000
003F0000
003F0000
003F0000
003F0000
003F0000
003F0000
003F0000
003F0000
003F0000
003F0000
007F0000
007E0000
00FE0000
03FE0000
FFFC0000
FFF00000
FFC00000
FFF00000
FFFC0000
03FC0000
00FE0000
007E0000
007F0000
003F0000
003F0000
003F0000
003F0000
003F0000
003F0000
003F0000
003F0000
003F0000
003F0000
003F0000
003F0000
003F0000
003F0000
003F0000
003F8000
003F8000
001FE000
001FFF80
000FFF80
000FFF80
0003FF80
00007F80
ENDCHAR
STARTCHAR bar
ENCODING 124
SWIDTH 336 0
DWIDTH 22 0
BBX 5 64 8 -15
BITMAP
F8
F8
F8
F8
F8
F8
F8
F8
F8
F8
F8
F8
F8
F8
F8
F8
F8
F8
F8
F8
F8
F8
F8
F8
F8
F8
F8
F8
F8
F8
F8
F8
F8
F8
F8
F8
F8
F8
F8
F8
F8
F8
F8
F8
F8
F8
F8
F8
F8
F8
F8
F8
F8
F8
F8
F8
F8
F8
F8
F8
F8
F8
F8
F8
ENDCHAR
STARTCHAR braceright
ENCODING 125
SWIDTH 636 0
DWIDTH 41 0
BBX 25 59 8 -10
BITMAP
FF000000
FFE00000
FFF80000
FFF80000
FFFC0000
03FC0000
00FC0000
00FE0000
007E0000
007E0000
007E0000
007E0000
007E0000
007E0000
007E0000
007E0000
007E0000
007E0000
007E0000
007E0000
007E0000
007E0000
007E0000
007F0000
003F0000
003F8000
003FE000
001FFF80
0007FF80
0001FF80
0007FF80
001FFF80
001FE000
003F8000
003F0000
007F0000
007E0000
007E0000
007E0000
007E0000
007E0000
007E0000
007E0000
007E0000
007E0000
007E0000
007E0000
007E0000
007E0000
007E0000
007E0000
00FE0000
00FC0000
03FC0000
FFFC0000
FFF80000
FFF80000
FFE00000
FF000000
ENDCHAR
STARTCHAR asciitilde
ENCODING 126
SWIDTH 837 0
DWIDTH 54 0
BBX 40 10 7 15
BITMAP
00FF000003
07FFE00007
1FFFFC001F
7FFFFF80FF
FFFFFFFFFF
FF01FFFFFE
F8003FFFF8
E00007FFE0
C00000FF00
8000000000
ENDCHAR
STARTCHAR nonbreakingspace
ENCODING 160
SWIDTH 636 0
DWIDTH 41 0
BBX 1 1 0 0
BITMAP
00
ENDCHAR
STARTCHAR exclamdown
ENCODING 161
SWIDTH 400 0
DWIDTH 26 0
BBX 6 47 10 0
BITMAP
FC
FC
FC
FC
FC
FC
FC
FC
00
00
00
00
00
00
00
78
78
FC
FC
FC
FC
FC
FC
FC
FC
FC
FC
FC
FC
FC
FC
FC
FC
FC
FC
FC
FC
FC
FC
FC
FC
FC
FC
FC
FC
FC
FC
ENDCHAR
STARTCHAR cent
ENCODING 162
SWIDTH 636 0
DWIDTH 41 0
BBX 28 55 5 -10
BITMAP
0000E000
0000E000
0000E000
0000E000
0000E000
0000E000
0000E000
0000E000
0000E000
0007FC00
003FFF80
00FFFFE0
03FFFFF0
07FFFFF0
0FFCE3F0
1FF0E070
1FC0E010
3F80E000
3F00E000
7F00E000
7E00E000
7E00E000
FE00E000
FC00E000
FC00E000
FC00E000
FC00E000
FC00E000
FC00E000
FC00E000
FC00E000
FC00E000
FE00E000
7E00E000
7E00E000
7F00E000
3F00E000
3F80E000
1FC0E010
1FF0E070
0FFCE3F0
07FFFFF0
03FFFFF0
00FFFFE0
003FFF80
0007FC00
0000E000
0000E000
0000E000
0000E000
0000E000
0000E000
0000E000
0000E000
0000E000
ENDCHAR
STARTCHAR sterling
ENCODING 163
SWIDTH 636 0
DWIDTH 41 0
BBX 30 48 4 0
BITMAP
0000FF00
0007FFF0
000FFFF8
001FFFF8
003FFFF8
007FC0F8
007F0038
00FE0008
00FC0000
00FC0000
01FC0000
01F80000
01F80000
01F80000
01F80000
01F80000
01F80000
01F80000
01F80000
01F80000
01F80000
01F80000
01F80000
01F80000
7FFFFF80
7FFFFF80
7FFFFF80
7FFFFF80
7FFFFF80
01F80000
01F80000
01F80000
01F80000
01F80000
01F80000
01F80000
01F80000
01F80000
01F80000
01F80000
01F80000
01F80000
01F80000
FFFFFFFC
FFFFFFFC
FFFFFFFC
FFFFFFFC
FFFFFFFC
ENDCHAR
STARTCHAR currency
ENCODING 164
SWIDTH 636 0
DWIDTH 41 0
BBX 35 35 3 2
BITMAP
1000000100
3800000380
7C000007C0
FE00000FE0
7F03F81FC0
3F8FFF3F80
1FFFFFFF00
0FFFFFFE00
07FFFFFC00
03FE0FF800
03F803F800
03E000FC00
07E000FC00
07C0007C00
0F80007E00
0F80003E00
0F80003E00
0F80003E00
0F80003E00
0F80003E00
0FC0007E00
07C0007C00
07E000FC00
03E000F800
03F803F800
03FE0FF800
07FFFFFC00
0FFFFFFE00
1FFFFFFF00
3F9FFE3F80
7F03F81FC0
FE00000FE0
7C000007C0
3800000380
1000000100
ENDCHAR
STARTCHAR yen
ENCODING 165
SWIDTH 636 0
DWIDTH 41 0
BBX 36 47 2 0
BITMAP
FC000003F0
7E000007E0
7E000007E0
3F00000FC0
1F00000F80
1F80001F80
0F80001F00
0FC0003F00
07E0007E00
07E0007E00
03F000FC00
01F000F800
01F801F800
00F801F000
00FC03F000
007E07E000
007E07E000
003F0FC000
3FFF0FFFC0
3FFF9FFFC0
3FFF9FFFC0
3FFFFFFFC0
0007FE0000
0007FE0000
0003FC0000
0003FC0000
0001F80000
0001F80000
3FFFFFFFC0
3FFFFFFFC0
3FFFFFFFC0
3FFFFFFFC0
0001F80000
0001F80000
0001F80000
0001F80000
0001F80000
0001F80000
0001F80000
0001F80000
0001F80000
0001F80000
0001F80000
0001F80000
0001F80000
0001F80000
0001F80000
ENDCHAR
STARTCHAR brokenbar
ENCODING 166
SWIDTH 336 0
DWIDTH 22 0
BBX 5 56 8 -11
BITMAP
F8
F8
F8
F8
F8
F8
F8
F8
F8
F8
F8
F8
F8
F8
F8
F8
F8
F8
F8
F8
F8
F8
F8
F8
00
00
00
00
00
00
00
00
F8
F8
F8
F8
F8
F8
F8
F8
F8
F8
F8
F8
F8
F8
F8
F8
F8
F8
F8
F8
F8
F8
F8
F8
ENDCHAR
STARTCHAR section
ENCODING 167
SWIDTH 500 0
DWIDTH 32 0
BBX 26 54 3 -6
BITMAP
007FC000
01FFFC00
07FFFE00
0FFFFE00
1FFFFE00
1FE03E00
3F800200
3F800000
3F000000
3F000000
3F000000
3F800000
1FC00000
1FE00000
0FF00000
07FC0000
07FE0000
0FFF8000
1FFFE000
3F1FF000
7E07FC00
7C03FE00
F800FF00
F8007F80
F8001F80
F8000FC0
FC000FC0
FC0007C0
7E0007C0
7F0007C0
3FC007C0
1FE00F80
0FF80F80
07FC1F00
01FF3F00
00FFFE00
003FF800
000FF800
0007FC00
0001FC00
0000FE00
00007F00
00003F00
00003F00
00003F00
00003F00
00007F00
10007F00
1F01FE00
1FFFFE00
1FFFFC00
1FFFF800
0FFFE000
00FF8000
ENDCHAR
STARTCHAR dieresis
ENCODING 168
SWIDTH 500 0
DWIDTH 32 0
BBX 18 6 7 43
BITMAP
FC0FC0
FC0FC0
FC0FC0
FC0FC0
FC0FC0
FC0FC0
ENDCHAR
STARTCHAR copyright
ENCODING 169
SWIDTH 1000 0
DWIDTH 64 0
BBX 46 46 9 0
BITMAP
00003FF00000
0001FFFE0000
0007FFFFC000
001FE00FE000
007E0001F800
00F800007C00
01F000003E00
03C000000F00
078000000780
0F001FF003C0
0E00FFFE01C0
1E03FFFF01E0
3C07FFFF00F0
380FF00F0070
381FC0010070
701F80000038
703F00000038
703E00000038
F03E0000001C
E07C0000001C
E07C0000001C
E07C0000001C
E07C0000001C
E07C0000001C
E07C0000001C
E07C0000001C
E07C0000001C
E03E0000003C
703E00000038
703F00000038
701F80000038
381FC0010070
380FF80F0070
3C07FFFF00F0
1E03FFFF01E0
0E00FFFE01C0
0F001FF003C0
078000000780
03C000000F00
01F000003E00
00F800007C00
007E0001F800
001FE00FE000
000FFFFF8000
0001FFFE0000
00003FF00000
ENDCHAR
STARTCHAR ordfeminine
ENCODING 170
SWIDTH 471 0
DWIDTH 30 0
BBX 22 33 4 15
BITMAP
07FE00
3FFFC0
3FFFE0
3C07F0
2001F0
0000F8
0000F8
00007C
00007C
00007C
01FFFC
0FFFFC
3FFFFC
7F807C
7C007C
FC007C
F8007C
F8007C
F800FC
F800FC
FC01FC
7C03FC
7F07FC
3FFF7C
1FFE7C
07F000
000000
000000
000000
7FFFFC
7FFFFC
7FFFFC
7FFFFC
ENDCHAR
STARTCHAR guillemotleft
ENCODING 171
SWIDTH 611 0
DWIDTH 39 0
BBX 29 29 5 4
BITMAP
00020008
00060018
000E0038
001E0078
003E00F8
007E01F8
00FC03F0
03F80FE0
07E01F80
0FC03F00
1F807E00
3F00FC00
7E01F800
FC03F000
F803E000
FC03F000
7E01F800
3F00FC00
1F807E00
0FC03F00
07E01F80
03F80FE0
00FC03F0
007E01F8
003E00F8
001E0078
000E0038
00060018
00020008
ENDCHAR
STARTCHAR logicalnot
ENCODING 172
SWIDTH 837 0
DWIDTH 54 0
BBX 40 18 7 9
BITMAP
FFFFFFFFFF
FFFFFFFFFF
FFFFFFFFFF
FFFFFFFFFF
FFFFFFFFFF
000000001F
000000001F
000000001F
000000001F
000000001F
000000001F
000000001F
000000001F
000000001F
000000001F
000000001F
000000001F
000000001F
ENDCHAR
STARTCHAR sfthyphen
ENCODING 173
SWIDTH 360 0
DWIDTH 23 0
BBX 17 5 3 15
BITMAP
FFFF80
FFFF80
FFFF80
FFFF80
FFFF80
ENDCHAR
STARTCHAR registered
ENCODING 174
SWIDTH 1000 0
DWIDTH 64 0
BBX 46 46 9 0
BITMAP
00003FF00000
0001FFFE0000
0007FFFFC000
001FE00FE000
007E0001F800
00F800007C00
01F000003E00
03C000000F00
078000000780
0F00000003C0
0E03FFE001C0
1E03FFFC01E0
3C03FFFE00F0
3803E03F0070
3803E01F0070
7003E00F8038
7003E00F8038
7003E00F8038
F003E00F801C
E003E00F801C
E003E01F001C
E003E03F001C
E003FFFE001C
E003FFF8001C
E003FFE0001C
E003E1F0001C
E003E0F8001C
E003E07C003C
7003E07E0038
7003E03E0038
7003E01F0038
3803E01F0070
3803E00F8070
3C03E00FC0F0
1E03E007C1E0
0E03E003E1C0
0F00000003C0
078000000780
03C000000F00
01F000003E00
00F800007C00
007E0001F800
001FE00FE000
000FFFFF8000
0001FFFE0000
00003FF00000
ENDCHAR
STARTCHAR macron
ENCODING 175
SWIDTH 500 0
DWIDTH 32 0
BBX 19 5 7 43
BITMAP
FFFFE0
FFFFE0
FFFFE0
FFFFE0
FFFFE0
ENDCHAR
STARTCHAR degree
ENCODING 176
SWIDTH 500 0
DWIDTH 32 0
BBX 20 20 6 28
BITMAP
01F800
07FE00
1FFF80
3FFFC0
3F0FC0
7C03E0
7801E0
F801F0
F000F0
F000F0
F000F0
F000F0
F001F0
7801E0
7C03E0
7F0FC0
3FFFC0
1FFF80
0FFE00
01F800
ENDCHAR
STARTCHAR plusminus
ENCODING 177
SWIDTH 837 0
DWIDTH 54 0
BBX 39 40 7 0
BITMAP
00007C0000
00007C0000
00007C0000
00007C0000
00007C0000
00007C0000
00007C0000
00007C0000
00007C0000
00007C0000
00007C0000
00007C0000
FFFFFFFFFE
FFFFFFFFFE
FFFFFFFFFE
FFFFFFFFFE
FFFFFFFFFE
00007C0000
00007C0000
00007C0000
00007C0000
00007C0000
00007C0000
00007C0000
00007C0000
00007C0000
00007C0000
00007C0000
00007C0000
0000000000
0000000000
0000000000
0000000000
0000000000
0000000000
FFFFFFFFFE
FFFFFFFFFE
FFFFFFFFFE
FFFFFFFFFE
FFFFFFFFFE
ENDCHAR
STARTCHAR twosuperior
ENCODING 178
SWIDTH 400 0
DWIDTH 26 0
BBX 19 26 3 22
BITMAP
07F800
7FFE00
FFFF80
F80FC0
8007C0
0003E0
0001E0
0001E0
0001E0
0003E0
0003C0
0007C0
000F80
001F00
003E00
007C00
00FC00
01F000
07F000
0FC000
1F8000
3F0000
7E0000
FFFFE0
FFFFE0
FFFFE0
ENDCHAR
STARTCHAR threesuperior
ENCODING 179
SWIDTH 400 0
DWIDTH 26 0
BBX 19 26 3 22
BITMAP
0FF800
7FFE00
7FFF00
700F80
0007C0
0003C0
0003C0
0003C0
000780
000F80
07FF00
07FC00
07FF00
001F80
0007C0
0003E0
0001E0
0001E0
0001E0
0001E0
0003E0
0007C0
C01FC0
FFFF80
FFFE00
1FF000
ENDCHAR
STARTCHAR acute
ENCODING 180
SWIDTH 500 0
DWIDTH 32 0
BBX 15 12 12 39
BITMAP
00FE
00FC
01F8
03F0
07E0
07C0
0F80
1F80
1F00
3E00
7C00
F800
ENDCHAR
STARTCHAR mu
ENCODING 181
SWIDTH 636 0
DWIDTH 41 0
BBX 33 48 6 -13
BITMAP
FC0001F800
FC0001F800
FC0001F800
FC0001F800
FC0001F800
FC0001F800
FC0001F800
FC0001F800
FC0001F800
FC0001F800
FC0001F800
FC0001F800
FC0001F800
FC0001F800
FC0001F800
FC0001F800
FC0001F800
FC0001F800
FC0001F800
FC0001F800
FC0001F800
FC0001F800
FC0001F800
FC0001F800
FC0001F800
FC0003F800
FE0003F800
FE0007F800
FF0007F800
FF800FF800
FFE03FFC80
FFFFFFFF80
FDFFFCFF80
FCFFF8FF80
FC7FF07F80
FC1FC03E00
FC00000000
FC00000000
FC00000000
FC00000000
FC00000000
FC00000000
FC00000000
FC00000000
FC00000000
FC00000000
FC00000000
FC00000000
ENDCHAR
STARTCHAR paragraph
ENCODING 182
SWIDTH 636 0
DWIDTH 41 0
BBX 29 53 5 -6
BITMAP
001FFFF8
00FFFFF8
03FFFFF8
0FFFFFF8
1FFFE078
1FFFE078
3FFFE078
7FFFE078
7FFFE078
FFFFE078
FFFFE078
FFFFE078
FFFFE078
FFFFE078
FFFFE078
FFFFE078
FFFFE078
7FFFE078
7FFFE078
7FFFE078
3FFFE078
1FFFE078
0FFFE078
07FFE078
01FFE078
007FE078
0001E078
0001E078
0001E078
0001E078
0001E078
0001E078
0001E078
0001E078
0001E078
0001E078
0001E078
0001E078
0001E078
0001E078
0001E078
0001E078
0001E078
0001E078
0001E078
0001E078
0001E078
0001E078
0001E078
0001E078
0001E078
0001E078
0001E078
ENDCHAR
STARTCHAR periodcentered
ENCODING 183
SWIDTH 317 0
DWIDTH 20 0
BBX 6 8 7 18
BITMAP
FC
FC
FC
FC
FC
FC
FC
FC
ENDCHAR
STARTCHAR cedilla
ENCODING 184
SWIDTH 500 0
DWIDTH 32 0
BBX 13 12 9 -12
BITMAP
03C0
01E0
00F0
00F0
0078
0078
0078
80F8
FFF8
FFF0
FFE0
7F80
ENDCHAR
STARTCHAR onesuperior
ENCODING 185
SWIDTH 400 0
DWIDTH 26 0
BBX 16 26 5 22
BITMAP
1FC0
FFC0
FFC0
E3C0
03C0
03C0
03C0
03C0
03C0
03C0
03C0
03C0
03C0
03C0
03C0
03C0
03C0
03C0
03C0
03C0
03C0
03C0
03C0
FFFF
FFFF
FFFF
ENDCHAR
STARTCHAR ordmasculine
ENCODING 186
SWIDTH 471 0
DWIDTH 30 0
BBX 24 33 3 15
BITMAP
00FF00
03FFC0
0FFFF0
1FC3F8
3F00FC
3E007C
7C003E
7C003E
7C003E
F8001F
F8001F
F8001F
F8001F
F8001F
F8001F
F8001F
F8001F
7C003E
7C003E
7C003E
3E007C
3F00FC
1FC3F8
0FFFF0
03FFC0
00FF00
000000
000000
000000
7FFFFE
7FFFFE
7FFFFE
7FFFFE
ENDCHAR
STARTCHAR guillemotright
ENCODING 187
SWIDTH 611 0
DWIDTH 39 0
BBX 29 29 6 4
BITMAP
80020000
C0030000
E0038000
F003C000
F803E000
FC03F000
7E01F800
3F80FE00
0FC03F00
07E01F80
03F00FC0
01F807E0
00FC03F0
007E01F8
003E00F8
007E01F8
00FC03F0
01F807E0
03F00FC0
07E01F80
0FC03F00
3F80FE00
7E01F800
FC03F000
F803E000
F003C000
E0038000
C0030000
80020000
ENDCHAR
STARTCHAR onequarter
ENCODING 188
SWIDTH 969 0
DWIDTH 62 0
BBX 54 49 5 -1
BITMAP
1FC0000003E000
FFC0000007C000
FFC0000007C000
E3C000000F8000
03C000000F0000
03C000001F0000
03C000003E0000
03C000003E0000
03C000007C0000
03C00000780000
03C00000F80000
03C00001F00000
03C00001F00000
03C00003E00000
03C00003C00000
03C00007C00000
03C0000F800000
03C0000F800000
03C0001F000000
03C0001E000000
03C0003E000000
03C0007C0007C0
03C0007C000FC0
FFFF00F8001FC0
FFFF00F0003FC0
FFFF01F0003FC0
000003E0007BC0
000003E000F3C0
000007C001E3C0
0000078001E3C0
00000F8003C3C0
00001F000783C0
00001F000F03C0
00003E000F03C0
00003C001E03C0
00007C003C03C0
0000F8003803C0
0000F8007803C0
0001F0007FFFFC
0001E0007FFFFC
0003E0007FFFFC
0007C0000003C0
0007C0000003C0
000F80000003C0
000F00000003C0
001F00000003C0
003E00000003C0
003E0000000000
007C0000000000
ENDCHAR
STARTCHAR onehalf
ENCODING 189
SWIDTH 969 0
DWIDTH 62 0
BBX 53 49 5 -1
BITMAP
1FC0000003E000
FFC0000007C000
FFC0000007C000
E3C000000F8000
03C000000F0000
03C000001F0000
03C000003E0000
03C000003E0000
03C000007C0000
03C00000780000
03C00000F80000
03C00001F00000
03C00001F00000
03C00003E00000
03C00003C00000
03C00007C00000
03C0000F800000
03C0000F800000
03C0001F000000
03C0001E000000
03C0003E000000
03C0007C01FE00
03C0007C1FFF80
FFFF00F83FFFE0
FFFF00F03E03F0
FFFF01F02001F0
000003E00000F8
000003E0000078
000007C0000078
00000780000078
00000F800000F8
00001F000000F0
00001F000001F0
00003E000003E0
00003C000007C0
00007C00000F80
0000F800001F00
0000F800003F00
0001F000007C00
0001E00001FC00
0003E00003F000
0007C00007E000
0007C0000FC000
000F80001F8000
000F00003FFFF8
001F00003FFFF8
003E00003FFFF8
003E0000000000
007C0000000000
ENDCHAR
STARTCHAR threequarters
ENCODING 190
SWIDTH 969 0
DWIDTH 62 0
BBX 56 49 3 -1
BITMAP
0FF8000000F800
7FFE000001F000
7FFF000001F000
700F800003E000
0007C00003C000
0003C00007C000
0003C0000F8000
0003C0000F8000
000780001F0000
000F80001E0000
07FF00003E0000
07FC00007C0000
07FF00007C0000
001F8000F80000
0007C000F00000
0003E001F00000
0001E003E00000
0001E003E00000
0001E007C00000
0001E007800000
0003E00F800000
0007C01F0001F0
C01FC01F0003F0
FFFF803E0007F0
FFFE003C000FF0
3FF0007C000FF0
000000F8001EF0
000000F8003CF0
000001F00078F0
000001E00078F0
000003E000F0F0
000007C001E0F0
000007C003C0F0
00000F8003C0F0
00000F000780F0
00001F000F00F0
00003E000E00F0
00003E001E00F0
00007C001FFFFF
000078001FFFFF
0000F8001FFFFF
0001F0000000F0
0001F0000000F0
0003E0000000F0
0003C0000000F0
0007C0000000F0
000F80000000F0
000F8000000000
001F0000000000
ENDCHAR
STARTCHAR questiondown
ENCODING 191
SWIDTH 530 0
DWIDTH 34 0
BBX 25 48 4 -1
BITMAP
001F8000
001F8000
001F8000
001F8000
001F8000
001F8000
001F8000
001F8000
00000000
00000000
00000000
00000000
00000000
001F8000
001F8000
001F8000
001F8000
001F8000
001F8000
001F8000
001F8000
003F8000
003F0000
007F0000
00FE0000
01FE0000
03FC0000
07F80000
0FF00000
1FE00000
3FC00000
3F800000
7F000000
7E000000
FE000000
FC000000
FC000000
FC000000
FC000000
FE000080
FE000380
7F000F80
7FC07F80
3FFFFF80
1FFFFF80
0FFFFF00
03FFFC00
00FFC000
ENDCHAR
STARTCHAR Agrave
ENCODING 192
SWIDTH 684 0
DWIDTH 44 0
BBX 43 59 1 0
BITMAP
0007E0000000
0003F0000000
0001F8000000
0000FC000000
00007C000000
00003E000000
00001F000000
00000F800000
000000000000
000000000000
000000000000
000000000000
00003F800000
00007FC00000
00007FC00000
00007FC00000
0000FFE00000
0000FFE00000
0001FFF00000
0001FBF00000
0001FBF00000
0003FBF80000
0003F1F80000
0003F1F80000
0007F1FC0000
0007E0FC0000
000FE0FE0000
000FC07E0000
000FC07E0000
001FC07F0000
001F803F0000
003F803F8000
003F803F8000
003F001F8000
007F001FC000
007E000FC000
007E000FC000
00FE000FE000
00FC0007E000
01FC0007F000
01F80003F000
01F80003F000
03FFFFFFF800
03FFFFFFF800
03FFFFFFF800
07FFFFFFFC00
07FFFFFFFC00
0FE00000FE00
0FC000007E00
0FC000007E00
1FC000007F00
1F8000003F00
3F8000003F80
3F8000003F80
3F0000001F80
7F0000001FC0
7E0000000FC0
7E0000000FC0
FE0000000FE0
ENDCHAR
STARTCHAR Aacute
ENCODING 193
SWIDTH 684 0
DWIDTH 44 0
BBX 43 59 1 0
BITMAP
000001F00000
000003F00000
000007E00000
00000FC00000
00000F800000
00001F000000
00003E000000
00007C000000
000000000000
000000000000
000000000000
000000000000
00003F800000
00007FC00000
00007FC00000
00007FC00000
0000FFE00000
0000FFE00000
0001FFF00000
0001FBF00000
0001FBF00000
0003FBF80000
0003F1F80000
0003F1F80000
0007F1FC0000
0007E0FC0000
000FE0FE0000
000FC07E0000
000FC07E0000
001FC07F0000
001F803F0000
003F803F8000
003F803F8000
003F001F8000
007F001FC000
007E000FC000
007E000FC000
00FE000FE000
00FC0007E000
01FC0007F000
01F80003F000
01F80003F000
03FFFFFFF800
03FFFFFFF800
03FFFFFFF800
07FFFFFFFC00
07FFFFFFFC00
0FE00000FE00
0FC000007E00
0FC000007E00
1FC000007F00
1F8000003F00
3F8000003F80
3F8000003F80
3F0000001F80
7F0000001FC0
7E0000000FC0
7E0000000FC0
FE0000000FE0
ENDCHAR
STARTCHAR Acircumflex
ENCODING 194
SWIDTH 684 0
DWIDTH 44 0
BBX 43 59 1 0
BITMAP
00007F000000
0000FF800000
0000FF800000
0001F7C00000
0003E3E00000
0007C1F00000
000F80F80000
001F007C0000
000000000000
000000000000
000000000000
000000000000
00003F800000
00007FC00000
00007FC00000
00007FC00000
0000FFE00000
0000FFE00000
0001FFF00000
0001FBF00000
0001FBF00000
0003FBF80000
0003F1F80000
0003F1F80000
0007F1FC0000
0007E0FC0000
000FE0FE0000
000FC07E0000
000FC07E0000
001FC07F0000
001F803F0000
003F803F8000
003F803F8000
003F001F8000
007F001FC000
007E000FC000
007E000FC000
00FE000FE000
00FC0007E000
01FC0007F000
01F80003F000
01F80003F000
03FFFFFFF800
03FFFFFFF800
03FFFFFFF800
07FFFFFFFC00
07FFFFFFFC00
0FE00000FE00
0FC000007E00
0FC000007E00
1FC000007F00
1F8000003F00
3F8000003F80
3F8000003F80
3F0000001F80
7F0000001FC0
7E0000000FC0
7E0000000FC0
FE0000000FE0
ENDCHAR
STARTCHAR Atilde
ENCODING 195
SWIDTH 684 0
DWIDTH 44 0
BBX 43 59 1 0
BITMAP
0001F00F0000
0007FC0F0000
000FFF1F0000
000FFFFE0000
001F1FFE0000
001E07FC0000
001E01F00000
000000000000
000000000000
000000000000
000000000000
000000000000
00003F800000
00007FC00000
00007FC00000
00007FC00000
0000FFE00000
0000FFE00000
0001FFF00000
0001FBF00000
0001FBF00000
0003FBF80000
0003F1F80000
0003F1F80000
0007F1FC0000
0007E0FC0000
000FE0FE0000
000FC07E0000
000FC07E0000
001FC07F0000
001F803F0000
003F803F8000
003F803F8000
003F001F8000
007F001FC000
007E000FC000
007E000FC000
00FE000FE000
00FC0007E000
01FC0007F000
01F80003F000
01F80003F000
03FFFFFFF800
03FFFFFFF800
03FFFFFFF800
07FFFFFFFC00
07FFFFFFFC00
0FE00000FE00
0FC000007E00
0FC000007E00
1FC000007F00
1F8000003F00
3F8000003F80
3F8000003F80
3F0000001F80
7F0000001FC0
7E0000000FC0
7E0000000FC0
FE0000000FE0
ENDCHAR
STARTCHAR Adieresis
ENCODING 196
SWIDTH 684 0
DWIDTH 44 0
BBX 43 58 1 0
BITMAP
000FC0FC0000
000FC0FC0000
000FC0FC0000
000FC0FC0000
000FC0FC0000
000FC0FC0000
000000000000
000000000000
000000000000
000000000000
000000000000
00003F800000
00007FC00000
00007FC00000
00007FC00000
0000FFE00000
0000FFE00000
0001FFF00000
0001FBF00000
0001FBF00000
0003FBF80000
0003F1F80000
0003F1F80000
0007F1FC0000
0007E0FC0000
000FE0FE0000
000FC07E0000
000FC07E0000
001FC07F0000
001F803F0000
003F803F8000
003F803F8000
003F001F8000
007F001FC000
007E000FC000
007E000FC000
00FE000FE000
00FC0007E000
01FC0007F000
01F80003F000
01F80003F000
03FFFFFFF800
03FFFFFFF800
03FFFFFFF800
07FFFFFFFC00
07FFFFFFFC00
0FE00000FE00
0FC000007E00
0FC000007E00
1FC000007F00
1F8000003F00
3F8000003F80
3F8000003F80
3F0000001F80
7F0000001FC0
7E0000000FC0
7E0000000FC0
FE0000000FE0
ENDCHAR
STARTCHAR Aring
ENCODING 197
SWIDTH 684 0
DWIDTH 44 0
BBX 43 59 1 0
BITMAP
00001F000000
00007FC00000
0001FFF00000
0001FFF00000
0003E1F80000
0007C0780000
0007803C0000
0007803C0000
0007803C0000
0007803C0000
0007803C0000
0003C0780000
0003E0F80000
0001FFF00000
0000FFE00000
00007FC00000
00007FC00000
0000FFE00000
0000FFE00000
0001FFF00000
0001FBF00000
0001FBF00000
0003FBF80000
0003F1F80000
0007F1FC0000
0007F1FC0000
0007E0FC0000
000FE0FE0000
000FC07E0000
001FC07E0000
001FC07F0000
001F803F0000
003F803F8000
003F001F8000
003F001F8000
007F001FC000
007E000FC000
00FE000FE000
00FC0007E000
00FC0007E000
01FC0007F000
01F80003F000
03FFFFFFF800
03FFFFFFF800
03FFFFFFF800
07FFFFFFFC00
07FFFFFFFC00
0FE00000FE00
0FE00000FE00
0FC000007E00
1FC000007F00
1F8000003F00
1F8000003F00
3F8000003F80
3F0000001F80
7F0000001FC0
7E0000000FC0
7E0000000FC0
FE0000000FE0
ENDCHAR
STARTCHAR AE
ENCODING 198
SWIDTH 974 0
DWIDTH 62 0
BBX 58 47 0 0
BITMAP
00001FFFFFFFFF80
00001FFFFFFFFF80
00001FFFFFFFFF80
00003FFFFFFFFF80
00003FFFFFFFFF80
00007F0FC0000000
00007E0FC0000000
0000FE0FC0000000
0000FE0FC0000000
0000FC0FC0000000
0001FC0FC0000000
0001F80FC0000000
0003F80FC0000000
0003F00FC0000000
0003F00FC0000000
0007F00FC0000000
0007E00FC0000000
000FE00FC0000000
000FC00FC0000000
001FC00FFFFFFF00
001FC00FFFFFFF00
001F800FFFFFFF00
003F800FFFFFFF00
003F000FFFFFFF00
007F000FC0000000
007E000FC0000000
007E000FC0000000
00FE000FC0000000
00FC000FC0000000
01FC000FC0000000
01FFFFFFC0000000
03FFFFFFC0000000
03FFFFFFC0000000
03FFFFFFC0000000
07FFFFFFC0000000
07E0000FC0000000
0FE0000FC0000000
0FC0000FC0000000
0FC0000FC0000000
1FC0000FC0000000
1F80000FC0000000
3F80000FC0000000
3F00000FFFFFFFC0
7F00000FFFFFFFC0
7F00000FFFFFFFC0
7E00000FFFFFFFC0
FE00000FFFFFFFC0
ENDCHAR
STARTCHAR Ccedilla
ENCODING 199
SWIDTH 698 0
DWIDTH 45 0
BBX 38 60 4 -12
BITMAP
00003FF800
0003FFFF80
000FFFFFE0
003FFFFFF8
00FFFFFFFC
01FFC00FFC
03FE0001FC
07F800007C
07F000001C
0FE000000C
1FC0000004
1F80000000
3F80000000
3F00000000
7F00000000
7E00000000
7E00000000
7E00000000
FE00000000
FC00000000
FC00000000
FC00000000
FC00000000
FC00000000
FC00000000
FC00000000
FC00000000
FC00000000
FC00000000
FC00000000
FE00000000
7E00000000
7E00000000
7E00000000
7F00000000
3F00000000
3F80000000
1F80000000
1FC0000004
0FE000000C
07F000001C
07F800007C
03FE0001FC
01FFC00FFC
00FFFFFFFC
003FFFFFF8
001FFFFFE0
0003FFFF80
00007FF800
0000078000
000003C000
000003C000
000001E000
000001E000
000001E000
000203E000
0003FFE000
0003FFC000
0003FF8000
0001FE0000
ENDCHAR
STARTCHAR Egrave
ENCODING 200
SWIDTH 631 0
DWIDTH 40 0
BBX 30 59 6 0
BITMAP
01F80000
00FC0000
007E0000
003F0000
001F0000
000F8000
0007C000
0003E000
00000000
00000000
00000000
00000000
FFFFFFF8
FFFFFFF8
FFFFFFF8
FFFFFFF8
FFFFFFF8
FC000000
FC000000
FC000000
FC000000
FC000000
FC000000
FC000000
FC000000
FC000000
FC000000
FC000000
FC000000
FC000000
FC000000
FFFFFFF0
FFFFFFF0
FFFFFFF0
FFFFFFF0
FFFFFFF0
FC000000
FC000000
FC000000
FC000000
FC000000
FC000000
FC000000
FC000000
FC000000
FC000000
FC000000
FC000000
FC000000
FC000000
FC000000
FC000000
FC000000
FC000000
FFFFFFFC
FFFFFFFC
FFFFFFFC
FFFFFFFC
FFFFFFFC
ENDCHAR
STARTCHAR Eacute
ENCODING 201
SWIDTH 631 0
DWIDTH 40 0
BBX 30 59 6 0
BITMAP
00007C00
0000FC00
0001F800
0003F000
0003E000
0007C000
000F8000
001F0000
00000000
00000000
00000000
00000000
FFFFFFF8
FFFFFFF8
FFFFFFF8
FFFFFFF8
FFFFFFF8
FC000000
FC000000
FC000000
FC000000
FC000000
FC000000
FC000000
FC000000
FC000000
FC000000
FC000000
FC000000
FC000000
FC000000
FFFFFFF0
FFFFFFF0
FFFFFFF0
FFFFFFF0
FFFFFFF0
FC000000
FC000000
FC000000
FC000000
FC000000
FC000000
FC000000
FC000000
FC000000
FC000000
FC000000
FC000000
FC000000
FC000000
FC000000
FC000000
FC000000
FC000000
FFFFFFFC
FFFFFFFC
FFFFFFFC
FFFFFFFC
FFFFFFFC
ENDCHAR
STARTCHAR Ecircumflex
ENCODING 202
SWIDTH 631 0
DWIDTH 40 0
BBX 30 59 6 0
BITMAP
001FC000
003FE000
003FE000
007DF000
00F8F800
01F07C00
03E03E00
07C01F00
00000000
00000000
00000000
00000000
FFFFFFF8
FFFFFFF8
FFFFFFF8
FFFFFFF8
FFFFFFF8
FC000000
FC000000
FC000000
FC000000
FC000000
FC000000
FC000000
FC000000
FC000000
FC000000
FC000000
FC000000
FC000000
FC000000
FFFFFFF0
FFFFFFF0
FFFFFFF0
FFFFFFF0
FFFFFFF0
FC000000
FC000000
FC000000
FC000000
FC000000
FC000000
FC000000
FC000000
FC000000
FC000000
FC000000
FC000000
FC000000
FC000000
FC000000
FC000000
FC000000
FC000000
FFFFFFFC
FFFFFFFC
FFFFFFFC
FFFFFFFC
FFFFFFFC
ENDCHAR
STARTCHAR Edieresis
ENCODING 203
SWIDTH 631 0
DWIDTH 40 0
BBX 30 58 6 0
BITMAP
03F03F00
03F03F00
03F03F00
03F03F00
03F03F00
03F03F00
00000000
00000000
00000000
00000000
00000000
FFFFFFF8
FFFFFFF8
FFFFFFF8
FFFFFFF8
FFFFFFF8
FC000000
FC000000
FC000000
FC000000
FC000000
FC000000
FC000000
FC000000
FC000000
FC000000
FC000000
FC000000
FC000000
FC000000
FFFFFFF0
FFFFFFF0
FFFFFFF0
FFFFFFF0
FFFFFFF0
FC000000
FC000000
FC000000
FC000000
FC000000
FC000000
FC000000
FC000000
FC000000
FC000000
FC000000
FC000000
FC000000
FC000000
FC000000
FC000000
FC000000
FC000000
FFFFFFFC
FFFFFFFC
FFFFFFFC
FFFFFFFC
FFFFFFFC
ENDCHAR
STARTCHAR Igrave
ENCODING 204
SWIDTH 294 0
DWIDTH 19 0
BBX 12 59 1 0
BITMAP
FC00
7E00
3F00
1F80
0F80
07C0
03E0
01F0
0000
0000
0000
0000
07E0
07E0
07E0
07E0
07E0
07E0
07E0
07E0
07E0
07E0
07E0
07E0
07E0
07E0
07E0
07E0
07E0
07E0
07E0
07E0
07E0
07E0
07E0
07E0
07E0
07E0
07E0
07E0
07E0
07E0
07E0
07E0
07E0
07E0
07E0
07E0
07E0
07E0
07E0
07E0
07E0
07E0
07E0
07E0
07E0
07E0
07E0
ENDCHAR
STARTCHAR Iacute
ENCODING 205
SWIDTH 294 0
DWIDTH 19 0
BBX 11 59 5 0
BITMAP
03E0
07E0
0FC0
1F80
1F00
3E00
7C00
F800
0000
0000
0000
0000
7E00
7E00
7E00
7E00
7E00
7E00
7E00
7E00
7E00
7E00
7E00
7E00
7E00
7E00
7E00
7E00
7E00
7E00
7E00
7E00
7E00
7E00
7E00
7E00
7E00
7E00
7E00
7E00
7E00
7E00
7E00
7E00
7E00
7E00
7E00
7E00
7E00
7E00
7E00
7E00
7E00
7E00
7E00
7E00
7E00
7E00
7E00
ENDCHAR
STARTCHAR Icircumflex
ENCODING 206
SWIDTH 294 0
DWIDTH 19 0
BBX 19 59 -1 0
BITMAP
03F800
07FC00
07FC00
0FBE00
1F1F00
3E0F80
7C07C0
F803E0
000000
000000
000000
000000
01F800
01F800
01F800
01F800
01F800
01F800
01F800
01F800
01F800
01F800
01F800
01F800
01F800
01F800
01F800
01F800
01F800
01F800
01F800
01F800
01F800
01F800
01F800
01F800
01F800
01F800
01F800
01F800
01F800
01F800
01F800
01F800
01F800
01F800
01F800
01F800
01F800
01F800
01F800
01F800
01F800
01F800
01F800
01F800
01F800
01F800
01F800
ENDCHAR
STARTCHAR Idieresis
ENCODING 207
SWIDTH 294 0
DWIDTH 19 0
BBX 18 58 0 0
BITMAP
FC0FC0
FC0FC0
FC0FC0
FC0FC0
FC0FC0
FC0FC0
000000
000000
000000
000000
000000
03F000
03F000
03F000
03F000
03F000
03F000
03F000
03F000
03F000
03F000
03F000
03F000
03F000
03F000
03F000
03F000
03F000
03F000
03F000
03F000
03F000
03F000
03F000
03F000
03F000
03F000
03F000
03F000
03F000
03F000
03F000
03F000
03F000
03F000
03F000
03F000
03F000
03F000
03F000
03F000
03F000
03F000
03F000
03F000
03F000
03F000
03F000
ENDCHAR
STARTCHAR Eth
ENCODING 208
SWIDTH 774 0
DWIDTH 50 0
BBX 45 47 1 0
BITMAP
03FFFFC00000
03FFFFFE0000
03FFFFFFC000
03FFFFFFF000
03FFFFFFF800
03F0003FFC00
03F00003FF00
03F00000FF00
03F000007F80
03F000003FC0
03F000001FC0
03F000000FE0
03F0000007E0
03F0000007F0
03F0000003F0
03F0000003F0
03F0000003F0
03F0000003F8
03F0000001F8
03F0000001F8
03F0000001F8
FFFFFE0001F8
FFFFFE0001F8
FFFFFE0001F8
FFFFFE0001F8
FFFFFE0001F8
03F0000001F8
03F0000001F8
03F0000001F8
03F0000003F8
03F0000003F0
03F0000003F0
03F0000003F0
03F0000007F0
03F0000007E0
03F000000FE0
03F000001FC0
03F000003FC0
03F000007F80
03F00000FF00
03F00003FF00
03F0003FFC00
03FFFFFFF800
03FFFFFFF000
03FFFFFFC000
03FFFFFE0000
03FFFFE00000
ENDCHAR
STARTCHAR Ntilde
ENCODING 209
SWIDTH 748 0
DWIDTH 48 0
BBX 35 59 6 0
BITMAP
000F807800
003FE07800
007FF8F800
007FFFF000
00F8FFF000
00F03FE000
00F00F8000
0000000000
0000000000
0000000000
0000000000
0000000000
FF800007E0
FF800007E0
FFC00007E0
FFC00007E0
FFE00007E0
FFE00007E0
FFF00007E0
FFF00007E0
FFF80007E0
FDF80007E0
FDFC0007E0
FCFE0007E0
FCFE0007E0
FC7F0007E0
FC7F0007E0
FC3F8007E0
FC3F8007E0
FC1FC007E0
FC1FC007E0
FC0FE007E0
FC07E007E0
FC07F007E0
FC03F007E0
FC03F807E0
FC01F807E0
FC01FC07E0
FC00FE07E0
FC00FE07E0
FC007F07E0
FC007F07E0
FC003F87E0
FC003F87E0
FC001FC7E0
FC001FC7E0
FC000FE7E0
FC000FE7E0
FC0007F7E0
FC0003F7E0
FC0003FFE0
FC0001FFE0
FC0001FFE0
FC0000FFE0
FC0000FFE0
FC00007FE0
FC00007FE0
FC00003FE0
FC00003FE0
ENDCHAR
STARTCHAR Ograve
ENCODING 210
SWIDTH 787 0
DWIDTH 50 0
BBX 43 60 4 -1
BITMAP
0007E0000000
0003F0000000
0001F8000000
0000FC000000
00007C000000
00003E000000
00001F000000
00000F800000
000000000000
000000000000
000000000000
00007FE00000
0007FFFC0000
001FFFFF0000
007FFFFFC000
00FFFFFFE000
01FFC03FF000
03FE000FF800
07F80003FC00
0FF00001FE00
0FE00000FE00
1FC000007F00
1F8000003F00
3F8000003F80
3F0000001F80
7F0000001FC0
7E0000000FC0
7E0000000FC0
7E0000000FC0
FE0000000FE0
FC00000007E0
FC00000007E0
FC00000007E0
FC00000007E0
FC00000007E0
FC00000007E0
FC00000007E0
FC00000007E0
FC00000007E0
FC00000007E0
FC00000007E0
FE0000000FE0
7E0000000FC0
7E0000000FC0
7E0000000FC0
7F0000001FC0
3F0000001F80
3F8000003F80
1F8000003F00
1FC000007F00
0FE00000FE00
0FF00001FE00
07F80003FC00
03FE000FF800
01FFC03FF000
00FFFFFFE000
007FFFFFC000
001FFFFF0000
0007FFFC0000
0000FFE00000
ENDCHAR
STARTCHAR Oacute
ENCODING 211
SWIDTH 787 0
DWIDTH 50 0
BBX 43 60 4 -1
BITMAP
000001F00000
000003F00000
000007E00000
00000FC00000
00000F800000
00001F000000
00003E000000
00007C000000
000000000000
000000000000
000000000000
00007FE00000
0007FFFC0000
001FFFFF0000
007FFFFFC000
00FFFFFFE000
01FFC03FF000
03FE000FF800
07F80003FC00
0FF00001FE00
0FE00000FE00
1FC000007F00
1F8000003F00
3F8000003F80
3F0000001F80
7F0000001FC0
7E0000000FC0
7E0000000FC0
7E0000000FC0
FE0000000FE0
FC00000007E0
FC00000007E0
FC00000007E0
FC00000007E0
FC00000007E0
FC00000007E0
FC00000007E0
FC00000007E0
FC00000007E0
FC00000007E0
FC00000007E0
FE0000000FE0
7E0000000FC0
7E0000000FC0
7E0000000FC0
7F0000001FC0
3F0000001F80
3F8000003F80
1F8000003F00
1FC000007F00
0FE00000FE00
0FF00001FE00
07F80003FC00
03FE000FF800
01FFC03FF000
00FFFFFFE000
007FFFFFC000
001FFFFF0000
0007FFFC0000
0000FFE00000
ENDCHAR
STARTCHAR Ocircumflex
ENCODING 212
SWIDTH 787 0
DWIDTH 50 0
BBX 43 60 4 -1
BITMAP
00007F000000
0000FF800000
0000FF800000
0001F7C00000
0003E3E00000
0007C1F00000
000F80F80000
001F007C0000
000000000000
000000000000
000000000000
00007FE00000
0007FFFC0000
001FFFFF0000
007FFFFFC000
00FFFFFFE000
01FFC03FF000
03FE000FF800
07F80003FC00
0FF00001FE00
0FE00000FE00
1FC000007F00
1F8000003F00
3F8000003F80
3F0000001F80
7F0000001FC0
7E0000000FC0
7E0000000FC0
7E0000000FC0
FE0000000FE0
FC00000007E0
FC00000007E0
FC00000007E0
FC00000007E0
FC00000007E0
FC00000007E0
FC00000007E0
FC00000007E0
FC00000007E0
FC00000007E0
FC00000007E0
FE0000000FE0
7E0000000FC0
7E0000000FC0
7E0000000FC0
7F0000001FC0
3F0000001F80
3F8000003F80
1F8000003F00
1FC000007F00
0FE00000FE00
0FF00001FE00
07F80003FC00
03FE000FF800
01FFC03FF000
00FFFFFFE000
007FFFFFC000
001FFFFF0000
0007FFFC0000
0000FFE00000
ENDCHAR
STARTCHAR Otilde
ENCODING 213
SWIDTH 787 0
DWIDTH 50 0
BBX 43 60 4 -1
BITMAP
0001F00F0000
0007FC0F0000
000FFF1F0000
000FFFFE0000
001F1FFE0000
001E07FC0000
001E01F00000
000000000000
000000000000
000000000000
000000000000
00007FE00000
0007FFFC0000
001FFFFF0000
007FFFFFC000
00FFFFFFE000
01FFC03FF000
03FE000FF800
07F80003FC00
0FF00001FE00
0FE00000FE00
1FC000007F00
1F8000003F00
3F8000003F80
3F0000001F80
7F0000001FC0
7E0000000FC0
7E0000000FC0
7E0000000FC0
FE0000000FE0
FC00000007E0
FC00000007E0
FC00000007E0
FC00000007E0
FC00000007E0
FC00000007E0
FC00000007E0
FC00000007E0
FC00000007E0
FC00000007E0
FC00000007E0
FE0000000FE0
7E0000000FC0
7E0000000FC0
7E0000000FC0
7F0000001FC0
3F0000001F80
3F8000003F80
1F8000003F00
1FC000007F00
0FE00000FE00
0FF00001FE00
07F80003FC00
03FE000FF800
01FFC03FF000
00FFFFFFE000
007FFFFFC000
001FFFFF0000
0007FFFC0000
0000FFE00000
ENDCHAR
STARTCHAR Odieresis
ENCODING 214
SWIDTH 787 0
DWIDTH 50 0
BBX 43 59 4 -1
BITMAP
000FC0FC0000
000FC0FC0000
000FC0FC0000
000FC0FC0000
000FC0FC0000
000FC0FC0000
000000000000
000000000000
000000000000
000000000000
00007FE00000
0007FFFC0000
001FFFFF0000
007FFFFFC000
00FFFFFFE000
01FFC03FF000
03FE000FF800
07F80003FC00
0FF00001FE00
0FE00000FE00
1FC000007F00
1F8000003F00
3F8000003F80
3F0000001F80
7F0000001FC0
7E0000000FC0
7E0000000FC0
7E0000000FC0
FE0000000FE0
FC00000007E0
FC00000007E0
FC00000007E0
FC00000007E0
FC00000007E0
FC00000007E0
FC00000007E0
FC00000007E0
FC00000007E0
FC00000007E0
FC00000007E0
FE0000000FE0
7E0000000FC0
7E0000000FC0
7E0000000FC0
7F0000001FC0
3F0000001F80
3F8000003F80
1F8000003F00
1FC000007F00
0FE00000FE00
0FF00001FE00
07F80003FC00
03FE000FF800
01FFC03FF000
00FFFFFFE000
007FFFFFC000
001FFFFF0000
0007FFFC0000
0000FFE00000
ENDCHAR
STARTCHAR multiply
ENCODING 215
SWIDTH 837 0
DWIDTH 54 0
BBX 36 36 9 2
BITMAP
1000000080
38000001C0
7C000003E0
FE000007F0
7F00000FE0
3F80001FC0
1FC0003F80
0FE0007F00
07F000FE00
03F801FC00
01FC03F800
00FE07F000
007F0FE000
003F9FC000
001FFF8000
000FFF0000
0007FE0000
0003FC0000
0003FC0000
0007FE0000
000FFF0000
001FFF8000
003F9FC000
007F0FE000
00FE07F000
01FC03F800
03F801FC00
07F000FE00
0FE0007F00
1FC0003F80
3F80001FC0
7F00000FE0
FE000007F0
7C000003E0
38000001C0
1000000080
ENDCHAR
STARTCHAR Oslash
ENCODING 216
SWIDTH 787 0
DWIDTH 50 0
BBX 43 51 4 -2
BITMAP
000000000080
00007FE001C0
0007FFFC03E0
001FFFFF87E0
003FFFFFC7C0
00FFFFFFFF80
01FFC07FFF00
03FE000FFE00
07F80003FE00
0FF00001FE00
0FE00000FF00
1FC00001FF00
1F800003FF80
3F800007FF80
3F00000FDF80
7F00001F9FC0
7E00003F0FC0
7E00003E0FC0
7E00007C0FC0
FE0000FC0FE0
FC0001F807E0
FC0003F007E0
FC0007E007E0
FC000FC007E0
FC001F8007E0
FC001F0007E0
FC003F0007E0
FC007E0007E0
FC00FC0007E0
FC01F80007E0
FC03F00007E0
FE07E0000FC0
7E07C0000FC0
7E0FC0000FC0
7E1F80000FC0
7F3F00001FC0
3F7E00001F80
3FFC00003F80
3FF800003F00
1FF000007F00
1FE00000FE00
0FF00001FE00
0FF80003FC00
1FFE000FF800
1FFFC03FF000
3FFFFFFFE000
7C7FFFFFC000
FC3FFFFF0000
F807FFFC0000
7000FFC00000
200000000000
ENDCHAR
STARTCHAR Ugrave
ENCODING 217
SWIDTH 731 0
DWIDTH 47 0
BBX 36 60 6 -1
BITMAP
007E000000
003F000000
001F800000
000FC00000
0007C00000
0003E00000
0001F00000
0000F80000
0000000000
0000000000
0000000000
0000000000
FC000003F0
FC000003F0
FC000003F0
FC000003F0
FC000003F0
FC000003F0
FC000003F0
FC000003F0
FC000003F0
FC000003F0
FC000003F0
FC000003F0
FC000003F0
FC000003F0
FC000003F0
FC000003F0
FC000003F0
FC000003F0
FC000003F0
FC000003F0
FC000003F0
FC000003F0
FC000003F0
FC000003F0
FC000003F0
FC000003F0
FC000003F0
FC000003F0
FC000003F0
FC000003F0
FC000003F0
FC000003F0
FC000003F0
FC000003F0
FE000007F0
7E000007E0
7E000007E0
7E00000FE0
7F00000FE0
3F80001FC0
3FC0003FC0
1FE0007F80
0FFC03FF00
07FFFFFE00
03FFFFFC00
01FFFFF800
007FFFE000
0007FE0000
ENDCHAR
STARTCHAR Uacute
ENCODING 218
SWIDTH 731 0
DWIDTH 47 0
BBX 36 60 6 -1
BITMAP
00001F0000
00003F0000
00007E0000
0000FC0000
0000F80000
0001F00000
0003E00000
0007C00000
0000000000
0000000000
0000000000
0000000000
FC000003F0
FC000003F0
FC000003F0
FC000003F0
FC000003F0
FC000003F0
FC000003F0
FC000003F0
FC000003F0
FC000003F0
FC000003F0
FC000003F0
FC000003F0
FC000003F0
FC000003F0
FC000003F0
FC000003F0
FC000003F0
FC000003F0
FC000003F0
FC000003F0
FC000003F0
FC000003F0
FC000003F0
FC000003F0
FC000003F0
FC000003F0
FC000003F0
FC000003F0
FC000003F0
FC000003F0
FC000003F0
FC000003F0
FC000003F0
FE000007F0
7E000007E0
7E000007E0
7E00000FE0
7F00000FE0
3F80001FC0
3FC0003FC0
1FE0007F80
0FFC03FF00
07FFFFFE00
03FFFFFC00
01FFFFF800
007FFFE000
0007FE0000
ENDCHAR
STARTCHAR Ucircumflex
ENCODING 219
SWIDTH 731 0
DWIDTH 47 0
BBX 36 60 6 -1
BITMAP
0007F00000
000FF80000
000FF80000
001F7C0000
003E3E0000
007C1F0000
00F80F8000
01F007C000
0000000000
0000000000
0000000000
0000000000
FC000003F0
FC000003F0
FC000003F0
FC000003F0
FC000003F0
FC000003F0
FC000003F0
FC000003F0
FC000003F0
FC000003F0
FC000003F0
FC000003F0
FC000003F0
FC000003F0
FC000003F0
FC000003F0
FC000003F0
FC000003F0
FC000003F0
FC000003F0
FC000003F0
FC000003F0
FC000003F0
FC000003F0
FC000003F0
FC000003F0
FC000003F0
FC000003F0
FC000003F0
FC000003F0
FC000003F0
FC000003F0
FC000003F0
FC000003F0
FE000007F0
7E000007E0
7E000007E0
7E00000FE0
7F00000FE0
3F80001FC0
3FC0003FC0
1FE0007F80
0FFC03FF00
07FFFFFE00
03FFFFFC00
01FFFFF800
007FFFE000
0007FE0000
ENDCHAR
STARTCHAR Udieresis
ENCODING 220
SWIDTH 731 0
DWIDTH 47 0
BBX 36 59 6 -1
BITMAP
00FC0FC000
00FC0FC000
00FC0FC000
00FC0FC000
00FC0FC000
00FC0FC000
0000000000
0000000000
0000000000
0000000000
0000000000
FC000003F0
FC000003F0
FC000003F0
FC000003F0
FC000003F0
FC000003F0
FC000003F0
FC000003F0
FC000003F0
FC000003F0
FC000003F0
FC000003F0
FC000003F0
FC000003F0
FC000003F0
FC000003F0
FC000003F0
FC000003F0
FC000003F0
FC000003F0
FC000003F0
FC000003F0
FC000003F0
FC000003F0
FC000003F0
FC000003F0
FC000003F0
FC000003F0
FC000003F0
FC000003F0
FC000003F0
FC000003F0
FC000003F0
FC000003F0
FE000007F0
7E000007E0
7E000007E0
7E00000FE0
7F00000FE0
3F80001FC0
3FC0003FC0
1FE0007F80
0FFC03FF00
07FFFFFE00
03FFFFFC00
01FFFFF800
007FFFE000
0007FE0000
ENDCHAR
STARTCHAR Yacute
ENCODING 221
SWIDTH 610 0
DWIDTH 39 0
BBX 40 59 -1 0
BITMAP
000001F000
000003F000
000007E000
00000FC000
00000F8000
00001F0000
00003E0000
00007C0000
0000000000
0000000000
0000000000
0000000000
FF000000FF
7F000000FE
3F800001FC
3FC00003FC
1FC00003F8
0FE00007F0
0FF0000FF0
07F0000FE0
03F8001FC0
01FC003F80
01FE007F80
00FE007F00
007F00FE00
007F81FE00
003F81FC00
001FC3F800
001FE7F800
000FE7F000
0007FFE000
0007FFE000
0003FFC000
0001FF8000
0000FF0000
0000FF0000
00007E0000
00007E0000
00007E0000
00007E0000
00007E0000
00007E0000
00007E0000
00007E0000
00007E0000
00007E0000
00007E0000
00007E0000
00007E0000
00007E0000
00007E0000
00007E0000
00007E0000
00007E0000
00007E0000
00007E0000
00007E0000
00007E0000
00007E0000
ENDCHAR
STARTCHAR Thorn
ENCODING 222
SWIDTH 604 0
DWIDTH 39 0
BBX 30 47 6 0
BITMAP
FC000000
FC000000
FC000000
FC000000
FC000000
FC000000
FC000000
FC000000
FFFFF000
FFFFFE00
FFFFFF80
FFFFFFC0
FFFFFFE0
FC003FF0
FC000FF0
FC0003F8
FC0003F8
FC0001F8
FC0001FC
FC0000FC
FC0000FC
FC0000FC
FC0000FC
FC0000FC
FC0000FC
FC0001FC
FC0001F8
FC0003F8
FC0003F8
FC000FF0
FC003FF0
FFFFFFE0
FFFFFFC0
FFFFFF80
FFFFFE00
FFFFF000
FC000000
FC000000
FC000000
FC000000
FC000000
FC000000
FC000000
FC000000
FC000000
FC000000
FC000000
ENDCHAR
STARTCHAR germandbls
ENCODING 223
SWIDTH 629 0
DWIDTH 40 0
BBX 32 50 6 -1
BITMAP
003FE000
01FFFC00
07FFFE00
0FFFFF00
1FFFFF80
3FE07FC0
7F801FC0
7F000FE0
7E0007E0
FE0003E0
FC0003F0
FC0003F0
FC001FF0
FC007FF0
FC00FFF0
FC01FE00
FC03F800
FC03F000
FC07F000
FC07E000
FC07E000
FC07E000
FC07E000
FC07E000
FC07F000
FC03F800
FC03FC00
FC01FE00
FC00FF80
FC007FC0
FC003FF0
FC000FF8
FC0007FC
FC0003FE
FC0000FE
FC00007F
FC00007F
FC00003F
FC00003F
FC00003F
FC00003F
FC00003F
FC00007F
FC2000FE
FC3E03FE
FC3FFFFC
FC3FFFF8
FC3FFFF0
FC1FFFC0
0003FE00
ENDCHAR
STARTCHAR agrave
ENCODING 224
SWIDTH 612 0
DWIDTH 39 0
BBX 30 52 4 -1
BITMAP
0FE00000
07E00000
03F00000
01F80000
00F80000
007C0000
003E0000
003F0000
001F0000
000F8000
0007C000
0003E000
00000000
00000000
00000000
003FF000
01FFFE00
0FFFFF00
1FFFFFC0
1FFFFFE0
1F803FE0
1C000FF0
100003F0
000001F8
000001F8
000000F8
000000FC
000000FC
000000FC
003FFFFC
01FFFFFC
07FFFFFC
1FFFFFFC
3FFFFFFC
3FF000FC
7F8000FC
7E0000FC
FE0000FC
FC0000FC
FC0001FC
FC0001FC
FC0001FC
FC0003FC
FE0007FC
FE000FFC
7F001FFC
7FC07FFC
3FFFFEFC
1FFFFCFC
0FFFF8FC
07FFE0FC
00FF0000
ENDCHAR
STARTCHAR aacute
ENCODING 225
SWIDTH 612 0
DWIDTH 39 0
BBX 30 52 4 -1
BITMAP
00001FC0
00001F80
00003F00
00007E00
0000FC00
0000F800
0001F000
0003F000
0003E000
0007C000
000F8000
001F0000
00000000
00000000
00000000
003FF000
01FFFE00
0FFFFF00
1FFFFFC0
1FFFFFE0
1F803FE0
1C000FF0
100003F0
000001F8
000001F8
000000F8
000000FC
000000FC
000000FC
003FFFFC
01FFFFFC
07FFFFFC
1FFFFFFC
3FFFFFFC
3FF000FC
7F8000FC
7E0000FC
FE0000FC
FC0000FC
FC0001FC
FC0001FC
FC0001FC
FC0003FC
FE0007FC
FE000FFC
7F001FFC
7FC07FFC
3FFFFEFC
1FFFFCFC
0FFFF8FC
07FFE0FC
00FF0000
ENDCHAR
STARTCHAR acircumflex
ENCODING 226
SWIDTH 612 0
DWIDTH 39 0
BBX 30 52 4 -1
BITMAP
000FC000
000FC000
001FE000
003FF000
003FF000
007CF800
00787800
00F87C00
01F03E00
01E01E00
03C00F00
07C00F80
00000000
00000000
00000000
003FF000
01FFFE00
0FFFFF00
1FFFFFC0
1FFFFFE0
1F803FE0
1C000FF0
100003F0
000001F8
000001F8
000000F8
000000FC
000000FC
000000FC
003FFFFC
01FFFFFC
07FFFFFC
1FFFFFFC
3FFFFFFC
3FF000FC
7F8000FC
7E0000FC
FE0000FC
FC0000FC
FC0001FC
FC0001FC
FC0001FC
FC0003FC
FE0007FC
FE000FFC
7F001FFC
7FC07FFC
3FFFFEFC
1FFFFCFC
0FFFF8FC
07FFE0FC
00FF0000
ENDCHAR
STARTCHAR atilde
ENCODING 227
SWIDTH 612 0
DWIDTH 39 0
BBX 30 51 4 -1
BITMAP
007C03C0
01FE03C0
01FF03C0
03FF87C0
03C7C780
0783FF80
0781FF00
0780FF00
07807C00
00000000
00000000
00000000
00000000
00000000
003FF000
01FFFE00
0FFFFF00
1FFFFFC0
1FFFFFE0
1F803FE0
1C000FF0
100003F0
000001F8
000001F8
000000F8
000000FC
000000FC
000000FC
003FFFFC
01FFFFFC
07FFFFFC
1FFFFFFC
3FFFFFFC
3FF000FC
7F8000FC
7E0000FC
FE0000FC
FC0000FC
FC0001FC
FC0001FC
FC0001FC
FC0003FC
FE0007FC
FE000FFC
7F001FFC
7FC07FFC
3FFFFEFC
1FFFFCFC
0FFFF8FC
07FFE0FC
00FF0000
ENDCHAR
STARTCHAR adieresis
ENCODING 228
SWIDTH 612 0
DWIDTH 39 0
BBX 30 50 4 -1
BITMAP
03F03F00
03F03F00
03F03F00
03F03F00
03F03F00
03F03F00
00000000
00000000
00000000
00000000
00000000
00000000
00000000
003FF000
01FFFE00
0FFFFF00
1FFFFFC0
1FFFFFE0
1F803FE0
1C000FF0
100003F0
000001F8
000001F8
000000F8
000000FC
000000FC
000000FC
003FFFFC
01FFFFFC
07FFFFFC
1FFFFFFC
3FFFFFFC
3FF000FC
7F8000FC
7E0000FC
FE0000FC
FC0000FC
FC0001FC
FC0001FC
FC0001FC
FC0003FC
FE0007FC
FE000FFC
7F001FFC
7FC07FFC
3FFFFEFC
1FFFFCFC
0FFFF8FC
07FFE0FC
00FF0000
ENDCHAR
STARTCHAR aring
ENCODING 229
SWIDTH 612 0
DWIDTH 39 0
BBX 30 57 4 -1
BITMAP
000F8000
003FE000
00FFF800
00FFF800
01F07C00
03E03C00
03C01E00
03C01E00
03C01E00
03C01E00
03C01E00
03E03C00
01F07C00
00FFF800
00FFF800
003FE000
000FC000
00000000
00000000
00000000
003FF000
01FFFE00
0FFFFF00
1FFFFFC0
1FFFFFE0
1F803FE0
1C000FF0
100003F0
000001F8
000001F8
000000F8
000000FC
000000FC
000000FC
003FFFFC
01FFFFFC
07FFFFFC
1FFFFFFC
3FFFFFFC
3FF000FC
7F8000FC
7E0000FC
FE0000FC
FC0000FC
FC0001FC
FC0001FC
FC0001FC
FC0003FC
FE0007FC
FE000FFC
7F001FFC
7FC07FFC
3FFFFEFC
1FFFFCFC
0FFFF8FC
07FFE0FC
00FF0000
ENDCHAR
STARTCHAR ae
ENCODING 230
SWIDTH 981 0
DWIDTH 63 0
BBX 55 37 4 -1
BITMAP
003FE0001FF000
03FFFC00FFFE00
0FFFFF01FFFF80
1FFFFF87FFFFC0
1FFFFFCFFFFFE0
1F807FFFF01FF0
1C000FFFC007F0
100007FF8003F8
000003FF0001F8
000003FE0000FC
000001FC0000FC
000001FC00007C
000001FC00007E
000001F800007E
003FFFF800007E
03FFFFFFFFFFFE
07FFFFFFFFFFFE
1FFFFFFFFFFFFE
3FFFFFFFFFFFFE
3FF001FFFFFFFE
7F8001F8000000
7E0001F8000000
FE0001F8000000
FC0001FC000000
FC0003FC000000
FC0003FC000000
FC0003FE000000
FC0007FE000000
FE000FFF000000
FE000FBF800004
7F003FBFE0003C
7FC0FF1FF801FC
3FFFFE0FFFFFFC
1FFFFC07FFFFFC
0FFFF801FFFFF8
07FFE0007FFFC0
00FF00000FFC00
ENDCHAR
STARTCHAR ccedilla
ENCODING 231
SWIDTH 549 0
DWIDTH 35 0
BBX 28 48 4 -12
BITMAP
0007FC00
003FFF80
00FFFFE0
03FFFFF0
07FFFFF0
0FFC03F0
1FF00070
1FC00010
3F800000
3F000000
7F000000
7E000000
7E000000
FE000000
FC000000
FC000000
FC000000
FC000000
FC000000
FC000000
FC000000
FC000000
FC000000
FE000000
7E000000
7E000000
7F000000
3F000000
3F800000
1FC00010
1FF00070
0FFC03F0
07FFFFF0
03FFFFF0
00FFFFE0
003FFF80
0007FC00
0000F000
00007800
00007800
00003C00
00003C00
00003C00
00407C00
007FFC00
007FF800
007FF000
003FC000
ENDCHAR
STARTCHAR egrave
ENCODING 232
SWIDTH 615 0
DWIDTH 39 0
BBX 32 52 4 -1
BITMAP
07F00000
03F00000
01F80000
00FC0000
007C0000
003E0000
001F0000
001F8000
000F8000
0007C000
0003E000
0001F000
00000000
00000000
00000000
000FF800
007FFF00
00FFFFC0
03FFFFE0
07FFFFF0
0FF80FF8
1FE003F8
1FC001FC
3F8000FC
3F00007E
7E00007E
7E00003E
7E00003F
FC00003F
FC00003F
FFFFFFFF
FFFFFFFF
FFFFFFFF
FFFFFFFF
FFFFFFFF
FC000000
FC000000
FC000000
FE000000
7E000000
7E000000
7F000000
3F000000
3F800000
1FC00002
1FF0001E
0FFC00FE
07FFFFFE
03FFFFFE
00FFFFFC
003FFFE0
0007FF00
ENDCHAR
STARTCHAR eacute
ENCODING 233
SWIDTH 615 0
DWIDTH 39 0
BBX 32 52 4 -1
BITMAP
00000FE0
00000FC0
00001F80
00003F00
00007E00
00007C00
0000F800
0001F800
0001F000
0003E000
0007C000
000F8000
00000000
00000000
00000000
000FF800
007FFF00
00FFFFC0
03FFFFE0
07FFFFF0
0FF80FF8
1FE003F8
1FC001FC
3F8000FC
3F00007E
7E00007E
7E00003E
7E00003F
FC00003F
FC00003F
FFFFFFFF
FFFFFFFF
FFFFFFFF
FFFFFFFF
FFFFFFFF
FC000000
FC000000
FC000000
FE000000
7E000000
7E000000
7F000000
3F000000
3F800000
1FC00002
1FF0001E
0FFC00FE
07FFFFFE
03FFFFFE
00FFFFFC
003FFFE0
0007FF00
ENDCHAR
STARTCHAR ecircumflex
ENCODING 234
SWIDTH 615 0
DWIDTH 39 0
BBX 32 52 4 -1
BITMAP
0007E000
0007E000
000FF000
001FF800
001FF800
003E7C00
003C3C00
007C3E00
00F81F00
00F00F00
01E00780
03E007C0
00000000
00000000
00000000
000FF800
007FFF00
00FFFFC0
03FFFFE0
07FFFFF0
0FF80FF8
1FE003F8
1FC001FC
3F8000FC
3F00007E
7E00007E
7E00003E
7E00003F
FC00003F
FC00003F
FFFFFFFF
FFFFFFFF
FFFFFFFF
FFFFFFFF
FFFFFFFF
FC000000
FC000000
FC000000
FE000000
7E000000
7E000000
7F000000
3F000000
3F800000
1FC00002
1FF0001E
0FFC00FE
07FFFFFE
03FFFFFE
00FFFFFC
003FFFE0
0007FF00
ENDCHAR
STARTCHAR edieresis
ENCODING 235
SWIDTH 615 0
DWIDTH 39 0
BBX 32 50 4 -1
BITMAP
01F81F80
01F81F80
01F81F80
01F81F80
01F81F80
01F81F80
00000000
00000000
00000000
00000000
00000000
00000000
00000000
000FF800
007FFF00
00FFFFC0
03FFFFE0
07FFFFF0
0FF80FF8
1FE003F8
1FC001FC
3F8000FC
3F00007E
7E00007E
7E00003E
7E00003F
FC00003F
FC00003F
FFFFFFFF
FFFFFFFF
FFFFFFFF
FFFFFFFF
FFFFFFFF
FC000000
FC000000
FC000000
FE000000
7E000000
7E000000
7F000000
3F000000
3F800000
1FC00002
1FF0001E
0FFC00FE
07FFFFFE
03FFFFFE
00FFFFFC
003FFFE0
0007FF00
ENDCHAR
STARTCHAR igrave
ENCODING 236
SWIDTH 277 0
DWIDTH 18 0
BBX 15 51 -2 0
BITMAP
FE00
7E00
3F00
1F80
0F80
07C0
03E0
03F0
01F0
00F8
007C
003E
0000
0000
0000
0000
00FC
00FC
00FC
00FC
00FC
00FC
00FC
00FC
00FC
00FC
00FC
00FC
00FC
00FC
00FC
00FC
00FC
00FC
00FC
00FC
00FC
00FC
00FC
00FC
00FC
00FC
00FC
00FC
00FC
00FC
00FC
00FC
00FC
00FC
00FC
ENDCHAR
STARTCHAR iacute
ENCODING 237
SWIDTH 277 0
DWIDTH 18 0
BBX 15 51 5 0
BITMAP
00FE
00FC
01F8
03F0
07E0
07C0
0F80
1F80
1F00
3E00
7C00
F800
0000
0000
0000
0000
7E00
7E00
7E00
7E00
7E00
7E00
7E00
7E00
7E00
7E00
7E00
7E00
7E00
7E00
7E00
7E00
7E00
7E00
7E00
7E00
7E00
7E00
7E00
7E00
7E00
7E00
7E00
7E00
7E00
7E00
7E00
7E00
7E00
7E00
7E00
ENDCHAR
STARTCHAR icircumflex
ENCODING 238
SWIDTH 277 0
DWIDTH 18 0
BBX 20 51 -1 0
BITMAP
01F800
01F800
03FC00
07FE00
07FE00
0F9F00
0F0F00
1F0F80
3E07C0
3C03C0
7801E0
F801F0
000000
000000
000000
000000
01F800
01F800
01F800
01F800
01F800
01F800
01F800
01F800
01F800
01F800
01F800
01F800
01F800
01F800
01F800
01F800
01F800
01F800
01F800
01F800
01F800
01F800
01F800
01F800
01F800
01F800
01F800
01F800
01F800
01F800
01F800
01F800
01F800
01F800
01F800
ENDCHAR
STARTCHAR idieresis
ENCODING 239
SWIDTH 277 0
DWIDTH 18 0
BBX 18 49 0 0
BITMAP
FC0FC0
FC0FC0
FC0FC0
FC0FC0
FC0FC0
FC0FC0
000000
000000
000000
000000
000000
000000
000000
000000
03F000
03F000
03F000
03F000
03F000
03F000
03F000
03F000
03F000
03F000
03F000
03F000
03F000
03F000
03F000
03F000
03F000
03F000
03F000
03F000
03F000
03F000
03F000
03F000
03F000
03F000
03F000
03F000
03F000
03F000
03F000
03F000
03F000
03F000
03F000
ENDCHAR
STARTCHAR eth
ENCODING 240
SWIDTH 611 0
DWIDTH 39 0
BBX 32 50 4 -1
BITMAP
01F80000
01FC0010
00FE00F0
007F07F0
003F3FF0
001FFF80
000FFC00
003FE000
01FFF000
0FFFF800
1FE1F800
0F00FC00
08007E00
00007F00
00003F80
001FFFC0
007FFFE0
01FFFFE0
03FFFFF0
07FFFFF8
0FF807F8
1FE001FC
3FC000FC
3F8000FE
7F00007E
7E00007E
7E00007E
FE00003F
FC00003F
FC00003F
FC00003F
FC00003F
FC00003F
FC00003F
FC00003F
FC00003F
FC00003F
FE00007E
7E00007E
7E00007E
7F0000FE
3F8001FC
3FC003FC
1FE007F8
0FF81FF0
07FFFFE0
03FFFFC0
01FFFF80
007FFE00
000FF000
ENDCHAR
STARTCHAR ntilde
ENCODING 241
SWIDTH 633 0
DWIDTH 41 0
BBX 29 50 6 0
BITMAP
007C03C0
01FE03C0
01FF03C0
03FF87C0
03C7C780
0783FF80
0781FF00
0780FF00
07807C00
00000000
00000000
00000000
00000000
00000000
0007F800
FC1FFE00
FC7FFF80
FCFFFFC0
FDFFFFE0
FFF03FE0
FFC00FF0
FF8007F0
FF0003F0
FE0003F8
FE0001F8
FE0001F8
FC0001F8
FC0001F8
FC0001F8
FC0001F8
FC0001F8
FC0001F8
FC0001F8
FC0001F8
FC0001F8
FC0001F8
FC0001F8
FC0001F8
FC0001F8
FC0001F8
FC0001F8
FC0001F8
FC0001F8
FC0001F8
FC0001F8
FC0001F8
FC0001F8
FC0001F8
FC0001F8
FC0001F8
ENDCHAR
STARTCHAR ograve
ENCODING 242
SWIDTH 611 0
DWIDTH 39 0
BBX 32 52 4 -1
BITMAP
07F00000
03F00000
01F80000
00FC0000
007C0000
003E0000
001F0000
001F8000
000F8000
0007C000
0003E000
0001F000
00000000
00000000
00000000
000FF000
007FFE00
01FFFF80
03FFFFC0
07FFFFE0
0FF81FF0
1FE007F8
3FC003FC
3F8001FC
7F0000FC
7F0000FE
7E00007E
7E00007E
FE00007F
FC00003F
FC00003F
FC00003F
FC00003F
FC00003F
FC00003F
FC00003F
FC00003F
FC00003F
FC00007F
7E00007E
7E00007E
7F0000FE
7F0000FC
3F8001FC
3FC003FC
1FE007F8
0FF81FF0
07FFFFE0
03FFFFC0
01FFFF80
007FFE00
001FF800
ENDCHAR
STARTCHAR oacute
ENCODING 243
SWIDTH 611 0
DWIDTH 39 0
BBX 32 52 4 -1
BITMAP
00000FE0
00000FC0
00001F80
00003F00
00007E00
00007C00
0000F800
0001F800
0001F000
0003E000
0007C000
000F8000
00000000
00000000
00000000
000FF000
007FFE00
01FFFF80
03FFFFC0
07FFFFE0
0FF81FF0
1FE007F8
3FC003FC
3F8001FC
7F0000FC
7F0000FE
7E00007E
7E00007E
FE00007F
FC00003F
FC00003F
FC00003F
FC00003F
FC00003F
FC00003F
FC00003F
FC00003F
FC00003F
FC00007F
7E00007E
7E00007E
7F0000FE
7F0000FC
3F8001FC
3FC003FC
1FE007F8
0FF81FF0
07FFFFE0
03FFFFC0
01FFFF80
007FFE00
001FF800
ENDCHAR
STARTCHAR ocircumflex
ENCODING 244
SWIDTH 611 0
DWIDTH 39 0
BBX 32 52 4 -1
BITMAP
0007E000
0007E000
000FF000
001FF800
001FF800
003E7C00
003C3C00
007C3E00
00F81F00
00F00F00
01E00780
03E007C0
00000000
00000000
00000000
000FF000
007FFE00
01FFFF80
03FFFFC0
07FFFFE0
0FF81FF0
1FE007F8
3FC003FC
3F8001FC
7F0000FC
7F0000FE
7E00007E
7E00007E
FE00007F
FC00003F
FC00003F
FC00003F
FC00003F
FC00003F
FC00003F
FC00003F
FC00003F
FC00003F
FC00007F
7E00007E
7E00007E
7F0000FE
7F0000FC
3F8001FC
3FC003FC
1FE007F8
0FF81FF0
07FFFFE0
03FFFFC0
01FFFF80
007FFE00
001FF800
ENDCHAR
STARTCHAR otilde
ENCODING 245
SWIDTH 611 0
DWIDTH 39 0
BBX 32 51 4 -1
BITMAP
003E01E0
00FF01E0
00FF81E0
01FFC3E0
01E3E3C0
03C1FFC0
03C0FF80
03C07F80
03C03E00
00000000
00000000
00000000
00000000
00000000
000FF000
007FFE00
01FFFF80
03FFFFC0
07FFFFE0
0FF81FF0
1FE007F8
3FC003FC
3F8001FC
7F0000FC
7F0000FE
7E00007E
7E00007E
FE00007F
FC00003F
FC00003F
FC00003F
FC00003F
FC00003F
FC00003F
FC00003F
FC00003F
FC00003F
FC00007F
7E00007E
7E00007E
7F0000FE
7F0000FC
3F8001FC
3FC003FC
1FE007F8
0FF81FF0
07FFFFE0
03FFFFC0
01FFFF80
007FFE00
001FF800
ENDCHAR
STARTCHAR odieresis
ENCODING 246
SWIDTH 611 0
DWIDTH 39 0
BBX 32 50 4 -1
BITMAP
01F81F80
01F81F80
01F81F80
01F81F80
01F81F80
01F81F80
00000000
00000000
00000000
00000000
00000000
00000000
00000000
000FF000
007FFE00
01FFFF80
03FFFFC0
07FFFFE0
0FF81FF0
1FE007F8
3FC003FC
3F8001FC
7F0000FC
7F0000FE
7E00007E
7E00007E
FE00007F
FC00003F
FC00003F
FC00003F
FC00003F
FC00003F
FC00003F
FC00003F
FC00003F
FC00003F
FC00007F
7E00007E
7E00007E
7F0000FE
7F0000FC
3F8001FC
3FC003FC
1FE007F8
0FF81FF0
07FFFFE0
03FFFFC0
01FFFF80
007FFE00
001FF800
ENDCHAR
STARTCHAR divide
ENCODING 247
SWIDTH 837 0
DWIDTH 54 0
BBX 40 31 7 4
BITMAP
0000FF0000
0000FF0000
0000FF0000
0000FF0000
0000FF0000
0000FF0000
0000FF0000
0000FF0000
0000000000
0000000000
0000000000
0000000000
0000000000
FFFFFFFFFF
FFFFFFFFFF
FFFFFFFFFF
FFFFFFFFFF
FFFFFFFFFF
0000000000
0000000000
0000000000
0000000000
0000000000
0000FF0000
0000FF0000
0000FF0000
0000FF0000
0000FF0000
0000FF0000
0000FF0000
0000FF0000
ENDCHAR
STARTCHAR oslash
ENCODING 248
SWIDTH 611 0
DWIDTH 39 0
BBX 34 41 3 -3
BITMAP
0000000100
0000000380
0007F807C0
003FFF0F80
00FFFFCF80
01FFFFFF00
03FFFFFE00
07FC0FFC00
0FF003FC00
1FE001FE00
1FC001FE00
3F8003FE00
3F8007FF00
3F000FBF00
3F001F3F00
7F001F1F80
7E003E1F80
7E007C1F80
7E00F81F80
7E01F01F80
7E03E01F80
7E03E01F80
7E07C01F80
7E0F801F80
7E1F001F80
7E3E003F80
3F7E003F00
3F7C003F00
3FF8007F00
1FF0007E00
1FE000FE00
0FE001FE00
0FF003FC00
0FFC0FF800
1FFFFFF000
3FFFFFE000
7CFFFFC000
FC3FFF0000
F807F80000
7000000000
2000000000
ENDCHAR
STARTCHAR ugrave
ENCODING 249
SWIDTH 633 0
DWIDTH 41 0
BBX 29 52 6 -1
BITMAP
1FC00000
0FC00000
07E00000
03F00000
01F00000
00F80000
007C0000
007E0000
003E0000
001F0000
000F8000
0007C000
00000000
00000000
00000000
00000000
FC0001F8
FC0001F8
FC0001F8
FC0001F8
FC0001F8
FC0001F8
FC0001F8
FC0001F8
FC0001F8
FC0001F8
FC0001F8
FC0001F8
FC0001F8
FC0001F8
FC0001F8
FC0001F8
FC0001F8
FC0001F8
FC0001F8
FC0001F8
FC0001F8
FC0001F8
FC0001F8
FC0001F8
FC0003F8
FC0003F8
FE0003F8
7E0007F8
7F000FF8
7F801FF8
3FE07FF8
3FFFFDF8
1FFFF9F8
0FFFF1F8
03FFC1F8
00FF0000
ENDCHAR
STARTCHAR uacute
ENCODING 250
SWIDTH 633 0
DWIDTH 41 0
BBX 29 52 6 -1
BITMAP
00003F80
00003F00
00007E00
0000FC00
0001F800
0001F000
0003E000
0007E000
0007C000
000F8000
001F0000
003E0000
00000000
00000000
00000000
00000000
FC0001F8
FC0001F8
FC0001F8
FC0001F8
FC0001F8
FC0001F8
FC0001F8
FC0001F8
FC0001F8
FC0001F8
FC0001F8
FC0001F8
FC0001F8
FC0001F8
FC0001F8
FC0001F8
FC0001F8
FC0001F8
FC0001F8
FC0001F8
FC0001F8
FC0001F8
FC0001F8
FC0001F8
FC0003F8
FC0003F8
FE0003F8
7E0007F8
7F000FF8
7F801FF8
3FE07FF8
3FFFFDF8
1FFFF9F8
0FFFF1F8
03FFC1F8
00FF0000
ENDCHAR
STARTCHAR ucircumflex
ENCODING 251
SWIDTH 633 0
DWIDTH 41 0
BBX 29 52 6 -1
BITMAP
001F8000
001F8000
003FC000
007FE000
007FE000
00F9F000
00F0F000
01F0F800
03E07C00
03C03C00
07801E00
0F801F00
00000000
00000000
00000000
00000000
FC0001F8
FC0001F8
FC0001F8
FC0001F8
FC0001F8
FC0001F8
FC0001F8
FC0001F8
FC0001F8
FC0001F8
FC0001F8
FC0001F8
FC0001F8
FC0001F8
FC0001F8
FC0001F8
FC0001F8
FC0001F8
FC0001F8
FC0001F8
FC0001F8
FC0001F8
FC0001F8
FC0001F8
FC0003F8
FC0003F8
FE0003F8
7E0007F8
7F000FF8
7F801FF8
3FE07FF8
3FFFFDF8
1FFFF9F8
0FFFF1F8
03FFC1F8
00FF0000
ENDCHAR
STARTCHAR udieresis
ENCODING 252
SWIDTH 633 0
DWIDTH 41 0
BBX 29 50 6 -1
BITMAP
07E07E00
07E07E00
07E07E00
07E07E00
07E07E00
07E07E00
00000000
00000000
00000000
00000000
00000000
00000000
00000000
00000000
FC0001F8
FC0001F8
FC0001F8
FC0001F8
FC0001F8
FC0001F8
FC0001F8
FC0001F8
FC0001F8
FC0001F8
FC0001F8
FC0001F8
FC0001F8
FC0001F8
FC0001F8
FC0001F8
FC0001F8
FC0001F8
FC0001F8
FC0001F8
FC0001F8
FC0001F8
FC0001F8
FC0001F8
FC0003F8
FC0003F8
FE0003F8
7E0007F8
7F000FF8
7F801FF8
3FE07FF8
3FFFFDF8
1FFFF9F8
0FFFF1F8
03FFC1F8
00FF0000
ENDCHAR
STARTCHAR yacute
ENCODING 253
SWIDTH 591 0
DWIDTH 38 0
BBX 34 64 2 -13
BITMAP
000007F000
000007E000
00000FC000
00001F8000
00003F0000
00003E0000
00007C0000
0000FC0000
0000F80000
0001F00000
0003E00000
0007C00000
0000000000
0000000000
0000000000
0000000000
FE00001FC0
7E00001F80
7E00003F80
7F00003F80
3F00003F00
3F80007F00
1F80007E00
1FC000FE00
1FC000FE00
0FC000FC00
0FE001FC00
07E001F800
07F003F800
03F003F800
03F003F000
03F807F000
01F807E000
01FC0FE000
00FC0FC000
00FC0FC000
00FE1FC000
007E1F8000
007F3F8000
003F3F0000
003FBF0000
003FFF0000
001FFE0000
001FFE0000
000FFC0000
000FFC0000
000FFC0000
0007F80000
0007F80000
0003F00000
0007F00000
0007F00000
0007E00000
000FE00000
000FC00000
001FC00000
001F800000
003F800000
007F000000
1FFF000000
1FFE000000
1FFC000000
1FF8000000
1FE0000000
ENDCHAR
STARTCHAR thorn
ENCODING 254
SWIDTH 634 0
DWIDTH 41 0
BBX 31 62 6 -13
BITMAP
FC000000
FC000000
FC000000
FC000000
FC000000
FC000000
FC000000
FC000000
FC000000
FC000000
FC000000
FC000000
FC000000
FC07F800
FC3FFE00
FC7FFF80
FCFFFFC0
FDFFFFE0
FFF83FE0
FFE00FF0
FF8003F8
FF8003F8
FF0001FC
FE0000FC
FE0000FC
FE0000FC
FC0000FE
FC00007E
FC00007E
FC00007E
FC00007E
FC00007E
FC00007E
FC00007E
FC00007E
FC00007E
FC0000FE
FE0000FC
FE0000FC
FE0000FC
FF0001FC
FF8003F8
FF8003F8
FFE00FF0
FFF01FE0
FDFFFFE0
FCFFFFC0
FC7FFF80
FC3FFE00
FC07F800
FC000000
FC000000
FC000000
FC000000
FC000000
FC000000
FC000000
FC000000
FC000000
FC000000
FC000000
FC000000
ENDCHAR
STARTCHAR ydieresis
ENCODING 255
SWIDTH 591 0
DWIDTH 38 0
BBX 34 62 2 -13
BITMAP
00FC0FC000
00FC0FC000
00FC0FC000
00FC0FC000
00FC0FC000
00FC0FC000
0000000000
0000000000
0000000000
0000000000
0000000000
0000000000
0000000000
0000000000
FE00001FC0
7E00001F80
7E00003F80
7F00003F80
3F00003F00
3F80007F00
1F80007E00
1FC000FE00
1FC000FE00
0FC000FC00
0FE001FC00
07E001F800
07F003F800
03F003F800
03F003F000
03F807F000
01F807E000
01FC0FE000
00FC0FC000
00FC0FC000
00FE1FC000
007E1F8000
007F3F8000
003F3F0000
003FBF0000
003FFF0000
001FFE0000
001FFE0000
000FFC0000
000FFC0000
000FFC0000
0007F80000
0007F80000
0003F00000
0007F00000
0007F00000
0007E00000
000FE00000
000FC00000
001FC00000
001F800000
003F800000
007F000000
1FFF000000
1FFE000000
1FFC000000
1FF8000000
1FE0000000
ENDCHAR
STARTCHAR .notdef
ENCODING -1
SWIDTH 600 0
DWIDTH 38 0
BBX 32 56 3 -11
BITMAP
FFFFFFFF
FFFFFFFF
FFFFFFFF
FFFFFFFF
F000000F
F000000F
F000000F
F000000F
F000000F
F000000F
F000000F
F000000F
F000000F
F000000F
F000000F
F000000F
F000000F
F000000F
F000000F
F000000F
F000000F
F000000F
F000000F
F000000F
F000000F
F000000F
F000000F
F000000F
F000000F
F000000F
F000000F
F000000F
F000000F
F000000F
F000000F
F000000F
F000000F
F000000F
F000000F
F000000F
F000000F
F000000F
F000000F
F000000F
F000000F
F000000F
F000000F
F000000F
F000000F
F000000F
F000000F
F000000F
FFFFFFFF
FFFFFFFF
FFFFFFFF
FFFFFFFF
ENDCHAR
STARTCHAR .null
ENCODING -1
SWIDTH 0 0
DWIDTH 0 0
BBX 1 1 0 0
BITMAP
00
ENDCHAR
STARTCHAR nonmarkingreturn
ENCODING -1
SWIDTH 317 0
DWIDTH 20 0
BBX 1 1 0 0
BITMAP
00
ENDCHAR
STARTCHAR dagger
ENCODING -1
SWIDTH 500 0
DWIDTH 32 0
BBX 28 53 2 -6
BITMAP
001F8000
001F8000
001F8000
001F8000
001F8000
001F8000
001F8000
001F8000
001F8000
001F8000
001F8000
001F8000
001F8000
FFFFFFF0
FFFFFFF0
FFFFFFF0
FFFFFFF0
FFFFFFF0
001F8000
001F8000
001F8000
001F8000
001F8000
001F8000
001F8000
001F8000
001F8000
001F8000
001F8000
001F8000
001F8000
001F8000
001F8000
001F8000
001F8000
001F8000
001F8000
001F8000
001F8000
001F8000
001F8000
001F8000
001F8000
001F8000
001F8000
001F8000
001F8000
001F8000
001F8000
001F8000
001F8000
001F8000
001F8000
ENDCHAR
STARTCHAR bullet
ENCODING -1
SWIDTH 589 0
DWIDTH 38 0
BBX 19 19 10 14
BITMAP
03F800
0FFE00
1FFF00
3FFF80
7FFFC0
7FFFC0
FFFFE0
FFFFE0
FFFFE0
FFFFE0
FFFFE0
FFFFE0
FFFFE0
7FFFC0
7FFFC0
3FFF80
1FFF00
0FFE00
03F800
ENDCHAR
STARTCHAR trademark
ENCODING -1
SWIDTH 1000 0
DWIDTH 64 0
BBX 40 18 10 29
BITMAP
FFFE1F803F
FFFE1F803F
FFFE1FC07F
03801FE0FF
03801DE0F7
03801CF1E7
03801C79E7
03801C7BC7
03801C3F87
03801C1F07
03801C0F07
03801C0E07
03801C0007
03801C0007
03801C0007
03801C0007
03801C0007
03801C0007
ENDCHAR
STARTCHAR notequal
ENCODING -1
SWIDTH 837 0
DWIDTH 54 0
BBX 40 38 7 1
BITMAP
0000000080
00000001C0
00000003E0
00000007F0
0000000FE0
0000000FC0
0000001F80
0000003F80
0000007F00
000000FE00
FFFFFFFFFF
FFFFFFFFFF
FFFFFFFFFF
FFFFFFFFFF
FFFFFFFFFF
00001FC000
00001F8000
00003F0000
00007F0000
0000FE0000
0000FC0000
0001F80000
0003F80000
FFFFFFFFFF
FFFFFFFFFF
FFFFFFFFFF
FFFFFFFFFF
FFFFFFFFFF
007E000000
00FE000000
01FC000000
03F8000000
03F0000000
07E0000000
0FE0000000
07C0000000
0380000000
0100000000
ENDCHAR
STARTCHAR infinity
ENCODING -1
SWIDTH 833 0
DWIDTH 53 0
BBX 40 24 7 7
BITMAP
03F0001F80
07FC007FE0
1FFF00FFF0
3FFF81FFF8
3FFF83FFFC
7C0FC7F01E
7801EFE00E
7000EFC006
E0007F8007
C0003F0003
C0003F0003
C0007E0003
C0007C0003
C000FC0003
C000FE0007
E001FF0007
6003F7800E
7007E7C01E
7C1FE3FCFE
3FFFC1FFFC
1FFF80FFF8
0FFF007FF0
07FE003FE0
01F8000F80
ENDCHAR
STARTCHAR lessequal
ENCODING -1
SWIDTH 837 0
DWIDTH 54 0
BBX 40 37 7 0
BITMAP
0000000003
000000001F
00000001FF
0000000FFF
000000FFFF
000007FFFE
00007FFFE0
0003FFFF00
003FFFF000
01FFFF8000
1FFFF80000
FFFFC00000
FFFC000000
FFE0000000
FFE0000000
FFFC000000
FFFFC00000
1FFFF80000
01FFFF8000
003FFFF000
0003FFFF00
00007FFFE0
000007FFFE
000000FFFF
0000000FFF
00000001FF
000000001F
0000000003
0000000000
0000000000
0000000000
0000000000
FFFFFFFFFF
FFFFFFFFFF
FFFFFFFFFF
FFFFFFFFFF
FFFFFFFFFF
ENDCHAR
STARTCHAR greaterequal
ENCODING -1
SWIDTH 837 0
DWIDTH 54 0
BBX 40 37 7 0
BITMAP
C000000000
F800000000
FF80000000
FFF0000000
FFFF000000
7FFFE00000
07FFFE0000
00FFFFC000
000FFFFC00
0001FFFFC0
00001FFFF8
000003FFFF
0000003FFF
00000007FF
00000007FF
0000003FFF
000003FFFF
00001FFFF8
0001FFFF80
000FFFFC00
00FFFFC000
07FFFE0000
7FFFE00000
FFFF000000
FFF0000000
FF80000000
F800000000
C000000000
0000000000
0000000000
0000000000
0000000000
FFFFFFFFFF
FFFFFFFFFF
FFFFFFFFFF
FFFFFFFFFF
FFFFFFFFFF
ENDCHAR
STARTCHAR partialdiff
ENCODING -1
SWIDTH 517 0
DWIDTH 33 0
BBX 27 41 3 0
BITMAP
001FC000
007FF000
00FFFC00
01FFFE00
01FE1E00
01F80F00
01F00780
00400780
000007C0
000007C0
000007C0
000007C0
000007E0
000007E0
000007E0
000007E0
007F07E0
03FFC7E0
07F0E7E0
0FC077E0
1F8037E0
3F003FE0
3F001FE0
7E001FE0
7E001FC0
FE001FC0
FE001FC0
FC001FC0
FC001F80
FC001F80
FC003F80
FC003F00
FC003F00
7C003E00
7C007C00
7C007C00
3E00F800
1F01F000
0F87E000
07FF8000
00FE0000
ENDCHAR
STARTCHAR summation
ENCODING -1
SWIDTH 673 0
DWIDTH 43 0
BBX 41 58 1 -12
BITMAP
7FFFFFFFFF00
7FFFFFFFFF00
7FFFFFFFFF00
7FFFFFFFFF00
7FFFFFFFFF00
7FFFFFFFFF00
3FE000000000
1FF000000000
0FF800000000
07FC00000000
03FC00000000
01FE00000000
01FF00000000
00FF80000000
007FC0000000
003FE0000000
001FF0000000
000FF8000000
0007FC000000
0003FE000000
0001FF000000
0000FF800000
00007FC00000
00003FE00000
00001FF00000
00000FF80000
000007F80000
000003FC0000
000001FE0000
000003FC0000
000007F80000
00000FF00000
00001FE00000
00003FE00000
00007FC00000
0000FF800000
0001FF000000
0003FE000000
0003FC000000
0007F8000000
000FF0000000
001FE0000000
003FC0000000
007F80000000
00FF00000000
01FF00000000
03FE00000000
07FC00000000
0FF800000000
0FF000000000
1FE000000000
3FC000000000
7FFFFFFFFF80
FFFFFFFFFF80
FFFFFFFFFF80
FFFFFFFFFF80
FFFFFFFFFF80
FFFFFFFFFF80
ENDCHAR
STARTCHAR product
ENCODING -1
SWIDTH 756 0
DWIDTH 48 0
BBX 39 58 5 -11
BITMAP
FFFFFFFFFE
FFFFFFFFFE
FFFFFFFFFE
FFFFFFFFFE
FFFFFFFFFE
FC0000007E
FC0000007E
FC0000007E
FC0000007E
FC0000007E
FC0000007E
FC0000007E
FC0000007E
FC0000007E
FC0000007E
FC0000007E
FC0000007E
FC0000007E
FC0000007E
FC0000007E
FC0000007E
FC0000007E
FC0000007E
FC0000007E
FC0000007E
FC0000007E
FC0000007E
FC0000007E
FC0000007E
FC0000007E
FC0000007E
FC0000007E
FC0000007E
FC0000007E
FC0000007E
FC0000007E
FC0000007E
FC0000007E
FC0000007E
FC0000007E
FC0000007E
FC0000007E
FC0000007E
FC0000007E
FC0000007E
FC0000007E
FC0000007E
FC0000007E
FC0000007E
FC0000007E
FC0000007E
FC0000007E
FC0000007E
FC0000007E
FC0000007E
FC0000007E
FC0000007E
FC0000007E
ENDCHAR
STARTCHAR pi
ENCODING -1
SWIDTH 588 0
DWIDTH 38 0
BBX 38 33 -1 0
BITMAP
03FFFFFFFC
0FFFFFFFFC
3FFFFFFFF8
3FFFFFFFF8
7FFFFFFFF8
7E3E007E00
7C3E007E00
F87E007E00
F87E007C00
007C00FC00
007C00FC00
00FC00FC00
00FC00FC00
00F801F800
00F801F800
00F801F800
01F801F800
01F801F000
01F003F000
01F003F000
01F003F000
03F003E000
03F007E000
03E007E000
03E007E000
03E007E000
07E007E000
07E007F000
07C007FF80
07C007FF80
0FC003FF80
0FC001FF80
0FC0007F00
ENDCHAR
STARTCHAR integral
ENCODING -1
SWIDTH 520 0
DWIDTH 33 0
BBX 30 60 2 -11
BITMAP
000007E0
00001FF8
00003FF8
00007BFC
000071FC
0000F1FC
0001F1F8
0001E0F0
0001E000
0003E000
0003E000
0003E000
0003E000
0007E000
0007E000
0007E000
0007C000
0007C000
0007C000
0007C000
000FC000
000FC000
000FC000
000FC000
000FC000
000FC000
000FC000
000FC000
000FC000
000FC000
000FC000
000FC000
000FC000
000FC000
000FC000
000FC000
000FC000
000FC000
000FC000
000FC000
000F8000
000F8000
000F8000
000F8000
000F8000
001F8000
001F8000
001F0000
001F0000
001F0000
001F0000
001E0000
3C1E0000
7E3E0000
FE3C0000
FE380000
FF780000
FFF00000
7FE00000
1F800000
ENDCHAR
STARTCHAR Omega
ENCODING -1
SWIDTH 764 0
DWIDTH 49 0
BBX 45 48 2 0
BITMAP
00003FE00000
0003FFFE0000
000FFFFF8000
003FFFFFE000
007FFFFFF000
00FFC01FF800
01FF0007FC00
03FC0001FE00
07F80000FF00
07F000007F00
0FE000003F80
1FC000001FC0
1F8000000FC0
1F8000000FC0
3F00000007E0
3F00000007E0
3F00000007E0
7E00000003F0
7E00000003F0
7E00000003F0
7E00000003F0
7E00000003F0
7E00000003F0
7E00000003F0
7E00000003F0
7E00000003F0
7E00000003F0
7F00000007F0
3F00000007E0
3F00000007E0
3F00000007E0
3F8000000FE0
1F8000000FC0
1FC000001FC0
0FC000001F80
0FE000003F80
07F000007F00
07F000007F00
03F80000FE00
01FC0001FC00
00FE0003F800
007F800FF000
003FC01FE000
FFFFE03FFFF8
FFFFE03FFFF8
FFFFE03FFFF8
FFFFE03FFFF8
FFFFE03FFFF8
ENDCHAR
STARTCHAR radical
ENCODING -1
SWIDTH 637 0
DWIDTH 41 0
BBX 39 53 2 -1
BITMAP
000000007E
000000007E
00000000FE
00000000E0
00000001E0
00000001C0
00000001C0
00000003C0
0000000380
0000000380
0000000780
0000000700
0000000F00
0000000E00
0000000E00
0000001E00
0000001C00
0000001C00
0000003C00
0000003800
0000007800
0000007800
0380007000
1FC000F000
FFC000E000
FFC000E000
47E001E000
07E001C000
03E003C000
03F003C000
03F0038000
01F8078000
01F8070000
00F8070000
00FC0F0000
00FC0E0000
007C0E0000
007E1E0000
007E1C0000
003E3C0000
003F380000
003F380000
001F780000
001FF00000
000FF00000
000FF00000
000FE00000
0007E00000
0007C00000
0007C00000
0003C00000
0003800000
0001800000
ENDCHAR
STARTCHAR florin
ENCODING -1
SWIDTH 636 0
DWIDTH 41 0
BBX 39 62 1 -13
BITMAP
00000007F8
0000001FFE
0000003FFE
000000FFFE
000000FFFE
000001FE02
000003F800
000003F800
000003F000
000007E000
000007E000
000007E000
000007E000
00000FE000
00000FC000
00000FC000
00000FC000
00000FC000
00001FC000
00001F8000
00001F8000
00001F8000
003FFFFFC0
003FFFFFC0
003FFFFFC0
003FFFFFC0
003FFFFFC0
00003F0000
00003F0000
00007E0000
00007E0000
00007E0000
00007E0000
00007E0000
0000FC0000
0000FC0000
0000FC0000
0000FC0000
0000FC0000
0001F80000
0001F80000
0001F80000
0001F80000
0001F80000
0003F80000
0003F00000
0003F00000
0003F00000
0003F00000
0007E00000
0007E00000
0007E00000
000FE00000
000FC00000
001FC00000
003F800000
C07F800000
FFFF000000
FFFF000000
FFFE000000
FFF8000000
3FE0000000
ENDCHAR
STARTCHAR approxequal
ENCODING -1
SWIDTH 837 0
DWIDTH 54 0
BBX 40 22 7 9
BITMAP
00FF000003
07FFE00007
1FFFFC001F
7FFFFF80FF
FFFFFFFFFF
FF01FFFFFE
F8003FFFF8
E00007FFE0
C00000FF00
0000000000
0000000000
0000000000
00FF000003
07FFE00007
1FFFFC001F
7FFFFF80FF
FFFFFFFFFF
FF01FFFFFE
F8003FFFF8
E00007FFE0
C00000FF00
8000000000
ENDCHAR
STARTCHAR Delta
ENCODING -1
SWIDTH 668 0
DWIDTH 43 0
BBX 43 46 0 0
BITMAP
00003F800000
00007FC00000
00007FC00000
00007FC00000
0000FFE00000
0000FFE00000
0001FFE00000
0001FBF00000
0001FBF00000
0003F1F80000
0003F1F80000
0007E1F80000
0007E0FC0000
0007E0FC0000
000FC0FE0000
000FC07E0000
001F807E0000
001F803F0000
001F803F0000
003F003F8000
003F001F8000
003F001F8000
007E000FC000
007E000FC000
00FC000FE000
00FC0007E000
00FC0007E000
01F80003F000
01F80003F000
03F00003F800
03F00001F800
03F00001F800
07E00000FC00
07E00000FC00
0FC00000FC00
0FC000007E00
0FC000007E00
1F8000007F00
1F8000003F00
1F8000003F00
3FFFFFFFFF80
3FFFFFFFFF80
7FFFFFFFFFC0
7FFFFFFFFFC0
7FFFFFFFFFC0
FFFFFFFFFFE0
ENDCHAR
STARTCHAR ellipsis
ENCODING -1
SWIDTH 1000 0
DWIDTH 64 0
BBX 48 8 7 0
BITMAP
FC0007E0003F
FC0007E0003F
FC0007E0003F
FC0007E0003F
FC0007E0003F
FC0007E0003F
FC0007E0003F
FC0007E0003F
ENDCHAR
STARTCHAR OE
ENCODING -1
SWIDTH 1069 0
DWIDTH 68 0
BBX 61 47 4 0
BITMAP
00000FFFFFFFFFF0
0000FFFFFFFFFFF0
0007FFFFFFFFFFF0
001FFFFFFFFFFFF0
007FFFFFFFFFFFF0
00FFF801F8000000
03FF8001F8000000
07FC0001F8000000
07F80001F8000000
0FE00001F8000000
1FC00001F8000000
1F800001F8000000
3F800001F8000000
3F000001F8000000
7F000001F8000000
7E000001F8000000
7E000001F8000000
7E000001F8000000
FC000001F8000000
FC000001FFFFFFE0
FC000001FFFFFFE0
FC000001FFFFFFE0
FC000001FFFFFFE0
FC000001FFFFFFE0
FC000001F8000000
FC000001F8000000
FC000001F8000000
FC000001F8000000
FC000001F8000000
7E000001F8000000
7E000001F8000000
7E000001F8000000
7F000001F8000000
3F000001F8000000
3F800001F8000000
1F800001F8000000
1FC00001F8000000
0FE00001F8000000
07F80001F8000000
07FC0001F8000000
03FF8001F8000000
00FFF801F8000000
007FFFFFFFFFFFF8
001FFFFFFFFFFFF8
0007FFFFFFFFFFF8
0000FFFFFFFFFFF8
00000FFFFFFFFFF8
ENDCHAR
STARTCHAR oe
ENCODING -1
SWIDTH 1022 0
DWIDTH 65 0
BBX 58 37 4 -1
BITMAP
000FF00001FE0000
007FFE000FFFC000
01FFFF803FFFF000
03FFFFC0FFFFF800
07FFFFE1FFFFFC00
0FF81FF3FE03FE00
1FE007FFF800FE00
3FC003FFF0007F00
3F8001FFE0003F00
7F0000FFC0001F80
7F0000FF80001F80
7E00007F80000F80
7E00007F80000FC0
FE00007F00000FC0
FC00003F00000FC0
FC00003FFFFFFFC0
FC00003FFFFFFFC0
FC00003FFFFFFFC0
FC00003FFFFFFFC0
FC00003FFFFFFFC0
FC00003F00000000
FC00003F00000000
FC00003F00000000
FC00007F80000000
7E00007F80000000
7E00007F80000000
7F0000FFC0000000
7F0000FFC0000000
3F8001FFE0000000
3FC003FFF0000080
1FE007FFFC000780
0FF81FF3FF003F80
07FFFFE1FFFFFF80
03FFFFC0FFFFFF80
01FFFF803FFFFF00
007FFE000FFFF800
001FF00001FFC000
ENDCHAR
STARTCHAR endash
ENCODING -1
SWIDTH 500 0
DWIDTH 32 0
BBX 32 5 0 15
BITMAP
FFFFFFFF
FFFFFFFF
FFFFFFFF
FFFFFFFF
FFFFFFFF
ENDCHAR
STARTCHAR emdash
ENCODING -1
SWIDTH 1000 0
DWIDTH 64 0
BBX 64 5 0 15
BITMAP
FFFFFFFFFFFFFFFF
FFFFFFFFFFFFFFFF
FFFFFFFFFFFFFFFF
FFFFFFFFFFFFFFFF
FFFFFFFFFFFFFFFF
ENDCHAR
STARTCHAR quotedblleft
ENCODING -1
SWIDTH 518 0
DWIDTH 33 0
BBX 21 15 5 32
BITMAP
078078
0F80F8
0F00F0
1F01F0
1F01F0
3E03E0
3E03E0
7E07E0
7C07C0
FC0FC0
FC0FC0
FC0FC0
FC0FC0
FC0FC0
FC0FC0
ENDCHAR
STARTCHAR quotedblright
ENCODING -1
SWIDTH 518 0
DWIDTH 33 0
BBX 21 15 5 32
BITMAP
1F81F8
1F81F8
1F81F8
1F81F8
1F81F8
1F81F8
1F01F0
3F03F0
3E03E0
3E03E0
7C07C0
7C07C0
780780
F80F80
F00F00
ENDCHAR
STARTCHAR quoteleft
ENCODING -1
SWIDTH 317 0
DWIDTH 20 0
BBX 9 15 5 32
BITMAP
0780
0F80
0F00
1F00
1F00
3E00
3E00
7E00
7C00
FC00
FC00
FC00
FC00
FC00
FC00
ENDCHAR
STARTCHAR quoteright
ENCODING -1
SWIDTH 317 0
DWIDTH 20 0
BBX 9 15 5 32
BITMAP
1F80
1F80
1F80
1F80
1F80
1F80
3F00
3F00
3E00
3E00
7C00
7C00
7800
F800
F000
ENDCHAR
STARTCHAR lozenge
ENCODING -1
SWIDTH 494 0
DWIDTH 32 0
BBX 31 67 0 -15
BITMAP
00010000
00010000
00038000
00038000
0007C000
0007C000
000FE000
000FE000
000EE000
001EF000
001C7000
003C7800
00383800
00783C00
00701C00
00F01E00
00E00E00
01E00F00
01C00700
03C00780
03C00780
07800380
078003C0
070001C0
0F0001E0
0E0000E0
1E0000F0
1C000070
3C000078
38000038
7800003C
7000001C
F000001E
F000001E
7000001C
7800003C
7800003C
38000038
3C000078
1C000070
1E0000F0
0E0000E0
0F0001E0
070001C0
078003C0
03800380
03C00780
01C00700
01E00F00
01E00F00
00E00E00
00F01E00
00701C00
00783C00
00383800
003C7800
001C7000
001EF000
000EE000
000FE000
000FE000
0007C000
0007C000
00038000
00038000
00010000
00010000
ENDCHAR
STARTCHAR Ydieresis
ENCODING -1
SWIDTH 610 0
DWIDTH 39 0
BBX 40 58 -1 0
BITMAP
000FC0FC00
000FC0FC00
000FC0FC00
000FC0FC00
000FC0FC00
000FC0FC00
0000000000
0000000000
0000000000
0000000000
0000000000
FF000000FF
7F000000FE
3F800001FC
3FC00003FC
1FC00003F8
0FE00007F0
0FF0000FF0
07F0000FE0
03F8001FC0
01FC003F80
01FE007F80
00FE007F00
007F00FE00
007F81FE00
003F81FC00
001FC3F800
001FE7F800
000FE7F000
0007FFE000
0007FFE000
0003FFC000
0001FF8000
0000FF0000
0000FF0000
00007E0000
00007E0000
00007E0000
00007E0000
00007E0000
00007E0000
00007E0000
00007E0000
00007E0000
00007E0000
00007E0000
00007E0000
00007E0000
00007E0000
00007E0000
00007E0000
00007E0000
00007E0000
00007E0000
00007E0000
00007E0000
00007E0000
00007E0000
ENDCHAR
STARTCHAR fraction
ENCODING -1
SWIDTH 166 0
DWIDTH 11 0
BBX 34 49 -12 -1
BITMAP
00000007C0
0000000F80
0000000F80
0000001F00
0000001E00
0000003E00
0000007C00
0000007C00
000000F800
000000F000
000001F000
000003E000
000003E000
000007C000
0000078000
00000F8000
00001F0000
00001F0000
00003E0000
00003C0000
00007C0000
0000F80000
0000F80000
0001F00000
0001E00000
0003E00000
0007C00000
0007C00000
000F800000
000F000000
001F000000
003E000000
003E000000
007C000000
0078000000
00F8000000
01F0000000
01F0000000
03E0000000
03C0000000
07C0000000
0F80000000
0F80000000
1F00000000
1E00000000
3E00000000
7C00000000
7C00000000
F800000000
ENDCHAR
STARTCHAR guilsinglleft
ENCODING -1
SWIDTH 399 0
DWIDTH 26 0
BBX 15 29 5 4
BITMAP
0002
0006
000E
001E
003E
007E
00FC
03F8
07E0
0FC0
1F80
3F00
7E00
FC00
F800
FC00
7E00
3F00
1F80
0FC0
07E0
03F8
00FC
007E
003E
001E
000E
0006
0002
ENDCHAR
STARTCHAR guilsinglright
ENCODING -1
SWIDTH 399 0
DWIDTH 26 0
BBX 15 29 6 4
BITMAP
8000
C000
E000
F000
F800
FC00
7E00
3F80
0FC0
07E0
03F0
01F8
00FC
007E
003E
007E
00FC
01F8
03F0
07E0
0FC0
3F80
7E00
FC00
F800
F000
E000
C000
8000
ENDCHAR
STARTCHAR fi
ENCODING -1
SWIDTH 629 0
DWIDTH 40 0
BBX 33 49 1 0
BITMAP
0007FE1F80
003FFE1F80
007FFE1F80
00FFFE1F80
01FFFE1F80
01FC001F80
01F8001F80
03F0000000
03F0000000
03F0000000
03F0000000
03F0000000
03F0000000
03F0000000
FFFFFFFF80
FFFFFFFF80
FFFFFFFF80
FFFFFFFF80
FFFFFFFF80
03F0001F80
03F0001F80
03F0001F80
03F0001F80
03F0001F80
03F0001F80
03F0001F80
03F0001F80
03F0001F80
03F0001F80
03F0001F80
03F0001F80
03F0001F80
03F0001F80
03F0001F80
03F0001F80
03F0001F80
03F0001F80
03F0001F80
03F0001F80
03F0001F80
03F0001F80
03F0001F80
03F0001F80
03F0001F80
03F0001F80
03F0001F80
03F0001F80
03F0001F80
03F0001F80
ENDCHAR
STARTCHAR fl
ENCODING -1
SWIDTH 629 0
DWIDTH 40 0
BBX 33 49 1 0
BITMAP
0007FFFF80
003FFFFF80
007FFFFF80
00FFFFFF80
01FFFFFF80
01FC001F80
01F8001F80
03F0001F80
03F0001F80
03F0001F80
03F0001F80
03F0001F80
03F0001F80
03F0001F80
FFFFF81F80
FFFFF81F80
FFFFF81F80
FFFFF81F80
FFFFF81F80
03F0001F80
03F0001F80
03F0001F80
03F0001F80
03F0001F80
03F0001F80
03F0001F80
03F0001F80
03F0001F80
03F0001F80
03F0001F80
03F0001F80
03F0001F80
03F0001F80
03F0001F80
03F0001F80
03F0001F80
03F0001F80
03F0001F80
03F0001F80
03F0001F80
03F0001F80
03F0001F80
03F0001F80
03F0001F80
03F0001F80
03F0001F80
03F0001F80
03F0001F80
03F0001F80
ENDCHAR
STARTCHAR daggerdbl
ENCODING -1
SWIDTH 500 0
DWIDTH 32 0
BBX 28 53 2 -6
BITMAP
001F8000
001F8000
001F8000
001F8000
001F8000
001F8000
001F8000
001F8000
001F8000
001F8000
001F8000
001F8000
001F8000
FFFFFFF0
FFFFFFF0
FFFFFFF0
FFFFFFF0
FFFFFFF0
001F8000
001F8000
001F8000
001F8000
001F8000
001F8000
001F8000
001F8000
001F8000
001F8000
001F8000
001F8000
001F8000
001F8000
001F8000
001F8000
001F8000
FFFFFFF0
FFFFFFF0
FFFFFFF0
FFFFFFF0
FFFFFFF0
001F8000
001F8000
001F8000
001F8000
001F8000
001F8000
001F8000
001F8000
001F8000
001F8000
001F8000
001F8000
001F8000
ENDCHAR
STARTCHAR quotesinglbase
ENCODING -1
SWIDTH 317 0
DWIDTH 20 0
BBX 9 15 5 -7
BITMAP
1F80
1F80
1F80
1F80
1F80
1F80
1F00
3F00
3E00
3E00
7C00
7C00
7800
F800
F000
ENDCHAR
STARTCHAR quotedblbase
ENCODING -1
SWIDTH 518 0
DWIDTH 33 0
BBX 21 15 5 -7
BITMAP
1F81F8
1F81F8
1F81F8
1F81F8
1F81F8
1F81F8
1F01F0
3F03F0
3E03E0
3E03E0
7C07C0
7C07C0
780780
F80F80
F00F00
ENDCHAR
STARTCHAR perthousand
ENCODING -1
SWIDTH 1341 0
DWIDTH 86 0
BBX 80 49 4 -1
BITMAP
01FE000001F000000000
07FF800003E000000000
0FFFC00003E000000000
1FFFE00007C000000000
3F87F000078000000000
3E01F0000F8000000000
7C00F8001F0000000000
7C00F8001F0000000000
FC00FC003E0000000000
F8007C003C0000000000
F8007C007C0000000000
F8007C00F80000000000
F8007C00F80000000000
F8007C01F00000000000
F8007C01E00000000000
F8007C03E00000000000
FC00FC07C00000000000
7C00F807C00000000000
7C00F80F800000000000
7E01F00F000000000000
3F87F01F000000000000
1FFFE03E000000000000
0FFFC03E000000000000
07FF807C000000000000
01FE007801FE00007F80
000000F807FF8001FFE0
000001F00FFFC003FFF0
000001F01FFFE007FFF8
000003E03F87F00FE1FC
000003C03E01F00F807C
000007C07C00F81F003E
00000F807C00F81F003E
00000F80FC00FC3F003F
00001F00F8007C3E001F
00001E00F8007C3E001F
00003E00F8007C3E001F
00007C00F8007C3E001F
00007C00F8007C3E001F
0000F800F8007C3E001F
0000F000F8007C3E001F
0001F000FC00FC3F003F
0003E0007C00F81F003E
0003E0007C00F81F003E
0007C0007E01F81F807E
000780003F87F00FE1FC
000F80001FFFE007FFF8
001F00000FFFC003FFF0
001F000007FF8001FFE0
003E000001FE00007F80
ENDCHAR
STARTCHAR dotlessi
ENCODING -1
SWIDTH 277 0
DWIDTH 18 0
BBX 6 35 6 0
BITMAP
FC
FC
FC
FC
FC
FC
FC
FC
FC
FC
FC
FC
FC
FC
FC
FC
FC
FC
FC
FC
FC
FC
FC
FC
FC
FC
FC
FC
FC
FC
FC
FC
FC
FC
FC
ENDCHAR
STARTCHAR circumflex
ENCODING -1
SWIDTH 500 0
DWIDTH 32 0
BBX 20 12 6 39
BITMAP
01F800
01F800
03FC00
07FE00
07FE00
0F9F00
0F0F00
1F0F80
3E07C0
3C03C0
7801E0
F801F0
ENDCHAR
STARTCHAR tilde
ENCODING -1
SWIDTH 500 0
DWIDTH 32 0
BBX 21 9 6 41
BITMAP
0F8078
3FC078
3FE078
7FF0F8
78F8F0
F07FF0
F03FE0
F01FE0
F00F80
ENDCHAR
STARTCHAR breve
ENCODING -1
SWIDTH 500 0
DWIDTH 32 0
BBX 20 9 6 42
BITMAP
F000F0
F000F0
F801F0
7C03E0
7E07E0
3FFFC0
1FFF80
0FFF00
03FC00
ENDCHAR
STARTCHAR dotaccent
ENCODING -1
SWIDTH 500 0
DWIDTH 32 0
BBX 6 6 13 43
BITMAP
FC
FC
FC
FC
FC
FC
ENDCHAR
STARTCHAR ring
ENCODING -1
SWIDTH 500 0
DWIDTH 32 0
BBX 17 17 7 39
BITMAP
03E000
0FF800
3FFE00
3FFE00
7C1F00
F80F00
F00780
F00780
F00780
F00780
F00780
F80F00
7C1F00
3FFE00
3FFE00
0FF800
03F000
ENDCHAR
STARTCHAR hungarumlaut
ENCODING -1
SWIDTH 500 0
DWIDTH 32 0
BBX 22 12 8 39
BITMAP
03E0FC
07C1F8
07C1F0
0F83F0
0F03E0
1F07C0
1E07C0
3E0F80
3C0F80
7C1F00
781E00
F03E00
ENDCHAR
STARTCHAR ogonek
ENCODING -1
SWIDTH 500 0
DWIDTH 32 0
BBX 12 12 10 -12
BITMAP
1E00
3C00
7800
7800
F000
F000
F000
F810
FFF0
7FF0
3FF0
1FE0
ENDCHAR
STARTCHAR caron
ENCODING -1
SWIDTH 500 0
DWIDTH 32 0
BBX 20 12 6 39
BITMAP
F801F0
7801E0
3C03C0
3E07C0
1F0F80
0F0F00
0F9F00
07FE00
07FE00
03FC00
01F800
01F800
ENDCHAR
STARTCHAR Lslash
ENCODING -1
SWIDTH 562 0
DWIDTH 36 0
BBX 36 47 0 0
BITMAP
01F8000000
01F8000000
01F8000000
01F8000000
01F8000000
01F8000000
01F8000000
01F8000000
01F8000000
01F8000000
01F8000000
01F8000000
01F8000000
01F8060000
01F80F0000
01F81F8000
01F87F0000
01F8FE0000
01FBFC0000
01FFF00000
01FFE00000
01FFC00000
01FF000000
01FE000000
03F8000000
07F8000000
0FF8000000
3FF8000000
7FF8000000
FFF8000000
79F8000000
71F8000000
01F8000000
01F8000000
01F8000000
01F8000000
01F8000000
01F8000000
01F8000000
01F8000000
01F8000000
01F8000000
01FFFFFFF0
01FFFFFFF0
01FFFFFFF0
01FFFFFFF0
01FFFFFFF0
ENDCHAR
STARTCHAR lslash
ENCODING -1
SWIDTH 284 0
DWIDTH 18 0
BBX 18 49 0 0
BITMAP
03F000
03F000
03F000
03F000
03F000
03F000
03F000
03F000
03F000
03F000
03F000
03F000
03F000
03F000
03F000
03F000
03F100
03F380
03F780
03FFC0
03FF80
03FE00
03FC00
07F800
0FF000
1FF000
7FF000
FFF000
7BF000
73F000
23F000
03F000
03F000
03F000
03F000
03F000
03F000
03F000
03F000
03F000
03F000
03F000
03F000
03F000
03F000
03F000
03F000
03F000
03F000
ENDCHAR
STARTCHAR Scaron
ENCODING -1
SWIDTH 634 0
DWIDTH 41 0
BBX 33 60 4 -1
BITMAP
03E00F8000
01F01F0000
00F83E0000
007C7C0000
003EF80000
001FF00000
001FF00000
000FE00000
0000000000
0000000000
0000000000
001FFE0000
00FFFFF000
03FFFFFC00
0FFFFFFC00
1FFFFFFC00
3FF003FC00
3FC0003C00
7F00000400
7E00000000
FE00000000
FC00000000
FC00000000
FC00000000
FC00000000
FC00000000
FC00000000
FE00000000
7F00000000
7FC0000000
3FF8000000
3FFF800000
1FFFFC0000
0FFFFF8000
03FFFFE000
00FFFFF000
000FFFFC00
00007FFC00
000007FE00
000001FF00
0000007F00
0000007F00
0000003F80
0000001F80
0000001F80
0000001F80
0000001F80
0000001F80
0000001F80
0000003F80
8000003F00
E000007F00
F80000FF00
FE0001FE00
FFE00FFC00
FFFFFFF800
FFFFFFF000
7FFFFFE000
07FFFF8000
007FF80000
ENDCHAR
STARTCHAR scaron
ENCODING -1
SWIDTH 520 0
DWIDTH 33 0
BBX 27 52 4 -1
BITMAP
1F003E00
0F003C00
07807800
07C0F800
03E1F000
01E1E000
01F3E000
00FFC000
00FFC000
007F8000
003F0000
003F0000
00000000
00000000
00000000
007FE000
03FFFC00
0FFFFF00
1FFFFF80
3FFFFF80
7FC01F80
7F000380
FE000080
FC000000
FC000000
FC000000
FC000000
FC000000
FE000000
7F000000
7FE00000
3FFE0000
1FFFE000
0FFFF800
03FFFE00
003FFF80
0003FF80
00003FC0
00001FC0
00000FE0
000007E0
000007E0
000007E0
000007E0
80000FE0
F0001FC0
FF007FC0
FFFFFF80
FFFFFF00
FFFFFE00
3FFFF800
03FFC000
ENDCHAR
STARTCHAR Zcaron
ENCODING -1
SWIDTH 685 0
DWIDTH 44 0
BBX 38 59 3 0
BITMAP
007C01F000
003E03E000
001F07C000
000F8F8000
0007DF0000
0003FE0000
0003FE0000
0001FC0000
0000000000
0000000000
0000000000
0000000000
7FFFFFFFF8
7FFFFFFFF8
7FFFFFFFF8
7FFFFFFFF8
7FFFFFFFF8
00000007F8
0000000FF0
0000001FE0
0000001FC0
0000003F80
0000007F80
000000FF00
000001FE00
000001FC00
000003F800
000007F800
00000FF000
00001FE000
00001FC000
00003F8000
00007F8000
0000FF0000
0001FE0000
0001FC0000
0003FC0000
0007F80000
000FF00000
000FE00000
001FC00000
003FC00000
007F800000
00FF000000
00FE000000
01FC000000
03FC000000
07F8000000
0FF0000000
0FE0000000
1FE0000000
3FC0000000
7F80000000
FF00000000
FFFFFFFFFC
FFFFFFFFFC
FFFFFFFFFC
FFFFFFFFFC
FFFFFFFFFC
ENDCHAR
STARTCHAR zcaron
ENCODING -1
SWIDTH 524 0
DWIDTH 34 0
BBX 28 51 3 0
BITMAP
0F801F00
07801E00
03C03C00
03E07C00
01F0F800
00F0F000
00F9F000
007FE000
007FE000
003FC000
001F8000
001F8000
00000000
00000000
00000000
00000000
7FFFFFF0
7FFFFFF0
7FFFFFF0
7FFFFFF0
7FFFFFF0
00000FF0
00001FE0
00003FC0
00003F80
00007F80
0000FF00
0001FE00
0003FC00
0007F800
0007F000
000FF000
001FE000
003FC000
007F8000
00FF0000
00FF0000
01FE0000
03FC0000
07F80000
0FF00000
0FE00000
1FE00000
3FC00000
7F800000
FF000000
FFFFFFF0
FFFFFFF0
FFFFFFF0
FFFFFFF0
FFFFFFF0
ENDCHAR
STARTCHAR minus
ENCODING -1
SWIDTH 837 0
DWIDTH 54 0
BBX 40 5 7 17
BITMAP
FFFFFFFFFF
FFFFFFFFFF
FFFFFFFFFF
FFFFFFFFFF
FFFFFFFFFF
ENDCHAR
STARTCHAR Gbreve
ENCODING -1
SWIDTH 774 0
DWIDTH 50 0
BBX 41 60 4 -1
BITMAP
001E001E0000
001F003E0000
000FC0FC0000
000FFFFC0000
0007FFF80000
0003FFF00000
00007F800000
000000000000
000000000000
000000000000
000000000000
00003FFC0000
0003FFFFC000
000FFFFFF800
003FFFFFFE00
00FFFFFFFF00
01FFE007FF00
03FE0000FF00
07F800001F00
07F000000F00
0FE000000300
1FC000000100
1F8000000000
3F8000000000
3F0000000000
7F0000000000
7E0000000000
7E0000000000
7E0000000000
FC0000000000
FC0000000000
FC0000000000
FC0000000000
FC0000000000
FC0000000000
FC00007FFF80
FC00007FFF80
FC00007FFF80
FC00007FFF80
FC00007FFF80
FC0000001F80
FC0000001F80
7E0000001F80
7E0000001F80
7E0000001F80
7F0000001F80
3F0000001F80
3F8000001F80
1F8000001F80
1FC000001F80
0FE000001F80
0FF000001F80
07F800001F80
03FE00007F80
01FFE003FF80
00FFFFFFFF00
003FFFFFFC00
000FFFFFF000
0003FFFFC000
00007FF80000
ENDCHAR
STARTCHAR gbreve
ENCODING -1
SWIDTH 634 0
DWIDTH 41 0
BBX 31 64 4 -13
BITMAP
03C003C0
03C003C0
03E007C0
01F00F80
01F81F80
00FFFF00
007FFE00
003FFC00
000FF000
00000000
00000000
00000000
00000000
00000000
00000000
003FC000
00FFF87E
03FFFC7E
07FFFE7E
0FFFFF7E
1FF01FFE
1FC007FE
3F8003FE
3F0001FE
7F0001FE
7E0000FE
7E0000FE
FE0000FE
FC00007E
FC00007E
FC00007E
FC00007E
FC00007E
FC00007E
FC00007E
FC00007E
FC00007E
FC00007E
FE0000FE
7E0000FE
7E0000FE
7F0001FE
3F0001FE
3F8003FE
1FC007FE
1FF01FFE
0FFFFF7E
07FFFE7E
03FFFC7E
00FFF87E
003FC07E
0000007E
000000FC
000000FC
000001FC
000001FC
080003F8
0E000FF8
0FC03FF0
0FFFFFE0
0FFFFFC0
0FFFFF80
07FFFE00
007FF000
ENDCHAR
STARTCHAR Idotaccent
ENCODING -1
SWIDTH 294 0
DWIDTH 19 0
BBX 6 58 6 0
BITMAP
FC
FC
FC
FC
FC
FC
00
00
00
00
00
FC
FC
FC
FC
FC
FC
FC
FC
FC
FC
FC
FC
FC
FC
FC
FC
FC
FC
FC
FC
FC
FC
FC
FC
FC
FC
FC
FC
FC
FC
FC
FC
FC
FC
FC
FC
FC
FC
FC
FC
FC
FC
FC
FC
FC
FC
FC
ENDCHAR
STARTCHAR Scedilla
ENCODING -1
SWIDTH 634 0
DWIDTH 41 0
BBX 33 60 4 -12
BITMAP
001FFE0000
00FFFFF000
03FFFFFC00
0FFFFFFC00
1FFFFFFC00
3FF003FC00
3FC0003C00
7F00000400
7E00000000
FE00000000
FC00000000
FC00000000
FC00000000
FC00000000
FC00000000
FC00000000
FE00000000
7F00000000
7FC0000000
3FF8000000
3FFF800000
1FFFFC0000
0FFFFF8000
03FFFFE000
00FFFFF000
000FFFFC00
00007FFC00
000007FE00
000001FF00
0000007F00
0000007F00
0000003F80
0000001F80
0000001F80
0000001F80
0000001F80
0000001F80
0000001F80
0000003F80
8000003F00
E000007F00
F80000FF00
FE0001FE00
FFE00FFC00
FFFFFFF800
FFFFFFF000
7FFFFFE000
07FFFF8000
007FF80000
0000F00000
0000780000
0000780000
00003C0000
00003C0000
00003C0000
00407C0000
007FFC0000
007FF80000
007FF00000
003FC00000
ENDCHAR
STARTCHAR scedilla
ENCODING -1
SWIDTH 520 0
DWIDTH 33 0
BBX 27 48 4 -12
BITMAP
007FE000
03FFFC00
0FFFFF00
1FFFFF80
3FFFFF80
7FC01F80
7F000380
FE000080
FC000000
FC000000
FC000000
FC000000
FC000000
FE000000
7F000000
7FE00000
3FFE0000
1FFFE000
0FFFF800
03FFFE00
003FFF80
0003FF80
00003FC0
00001FC0
00000FE0
000007E0
000007E0
000007E0
000007E0
80000FE0
F0001FC0
FF007FC0
FFFFFF80
FFFFFF00
FFFFFE00
3FFFF800
03FFC000
00078000
0003C000
0003C000
0001E000
0001E000
0001E000
0203E000
03FFE000
03FFC000
03FF8000
01FE0000
ENDCHAR
STARTCHAR Cacute
ENCODING -1
SWIDTH 698 0
DWIDTH 45 0
BBX 38 60 4 -1
BITMAP
000001F000
000003F000
000007E000
00000FC000
00000F8000
00001F0000
00003E0000
00007C0000
0000000000
0000000000
0000000000
00003FF800
0003FFFF80
000FFFFFE0
003FFFFFF8
00FFFFFFFC
01FFC00FFC
03FE0001FC
07F800007C
07F000001C
0FE000000C
1FC0000004
1F80000000
3F80000000
3F00000000
7F00000000
7E00000000
7E00000000
7E00000000
FE00000000
FC00000000
FC00000000
FC00000000
FC00000000
FC00000000
FC00000000
FC00000000
FC00000000
FC00000000
FC00000000
FC00000000
FE00000000
7E00000000
7E00000000
7E00000000
7F00000000
3F00000000
3F80000000
1F80000000
1FC0000004
0FE000000C
07F000001C
07F800007C
03FE0001FC
01FFC00FFC
00FFFFFFFC
003FFFFFF8
001FFFFFE0
0003FFFF80
00007FF800
ENDCHAR
STARTCHAR cacute
ENCODING -1
SWIDTH 549 0
DWIDTH 35 0
BBX 28 52 4 -1
BITMAP
00000FE0
00000FC0
00001F80
00003F00
00007E00
00007C00
0000F800
0001F800
0001F000
0003E000
0007C000
000F8000
00000000
00000000
00000000
0007FC00
003FFF80
00FFFFE0
03FFFFF0
07FFFFF0
0FFC03F0
1FF00070
1FC00010
3F800000
3F000000
7F000000
7E000000
7E000000
FE000000
FC000000
FC000000
FC000000
FC000000
FC000000
FC000000
FC000000
FC000000
FC000000
FE000000
7E000000
7E000000
7F000000
3F000000
3F800000
1FC00010
1FF00070
0FFC03F0
07FFFFF0
03FFFFF0
00FFFFE0
003FFF80
0007FC00
ENDCHAR
STARTCHAR Ccaron
ENCODING -1
SWIDTH 698 0
DWIDTH 45 0
BBX 38 60 4 -1
BITMAP
001F007C00
000F80F800
0007C1F000
0003E3E000
0001F7C000
0000FF8000
0000FF8000
00007F0000
0000000000
0000000000
0000000000
00003FF800
0003FFFF80
000FFFFFE0
003FFFFFF8
00FFFFFFFC
01FFC00FFC
03FE0001FC
07F800007C
07F000001C
0FE000000C
1FC0000004
1F80000000
3F80000000
3F00000000
7F00000000
7E00000000
7E00000000
7E00000000
FE00000000
FC00000000
FC00000000
FC00000000
FC00000000
FC00000000
FC00000000
FC00000000
FC00000000
FC00000000
FC00000000
FC00000000
FE00000000
7E00000000
7E00000000
7E00000000
7F00000000
3F00000000
3F80000000
1F80000000
1FC0000004
0FE000000C
07F000001C
07F800007C
03FE0001FC
01FFC00FFC
00FFFFFFFC
003FFFFFF8
001FFFFFE0
0003FFFF80
00007FF800
ENDCHAR
STARTCHAR ccaron
ENCODING -1
SWIDTH 549 0
DWIDTH 35 0
BBX 28 52 4 -1
BITMAP
03E007C0
01E00780
00F00F00
00F81F00
007C3E00
003C3C00
003E7C00
001FF800
001FF800
000FF000
0007E000
0007E000
00000000
00000000
00000000
0007FC00
003FFF80
00FFFFE0
03FFFFF0
07FFFFF0
0FFC03F0
1FF00070
1FC00010
3F800000
3F000000
7F000000
7E000000
7E000000
FE000000
FC000000
FC000000
FC000000
FC000000
FC000000
FC000000
FC000000
FC000000
FC000000
FE000000
7E000000
7E000000
7F000000
3F000000
3F800000
1FC00010
1FF00070
0FFC03F0
07FFFFF0
03FFFFF0
00FFFFE0
003FFF80
0007FC00
ENDCHAR
STARTCHAR dcroat
ENCODING -1
SWIDTH 634 0
DWIDTH 41 0
BBX 36 50 4 -1
BITMAP
0000007E00
0000007E00
0000007E00
0000007E00
0000007E00
0001FFFFF0
0001FFFFF0
0001FFFFF0
0001FFFFF0
0000007E00
0000007E00
0000007E00
0000007E00
003FC07E00
00FFF87E00
03FFFC7E00
07FFFE7E00
0FFFFF7E00
0FF83FFE00
1FE00FFE00
3F8003FE00
3F8003FE00
7F0001FE00
7E0000FE00
7E0000FE00
7E0000FE00
FC0000FE00
FC00007E00
FC00007E00
FC00007E00
FC00007E00
FC00007E00
FC00007E00
FC00007E00
FC00007E00
FC00007E00
FC0000FE00
7E0000FE00
7E0000FE00
7E0000FE00
7F0001FE00
3F8003FE00
3F8003FE00
1FE00FFE00
0FF01FFE00
0FFFFF7E00
07FFFE7E00
03FFFC7E00
00FFF87E00
003FC00000
ENDCHAR
STARTCHAR periodcentered
ENCODING -1
SWIDTH 317 0
DWIDTH 20 0
BBX 6 8 7 18
BITMAP
FC
FC
FC
FC
FC
FC
FC
FC
ENDCHAR
STARTCHAR Euro
ENCODING -1
SWIDTH 636 0
DWIDTH 41 0
BBX 36 49 0 -1
BITMAP
00000FF800
00007FFF00
0001FFFFC0
0003FFFFE0
0007FFFFF0
000FF80FF0
001FE001F0
003F8000F0
007F000070
007F000010
00FE000000
00FC000000
00FC000000
01FC000000
01F8000000
01F8000000
01F8000000
7FFFFFFE00
7FFFFFFC00
7FFFFFFC00
FFFFFFF800
03F0000000
03F0000000
03F0000000
03F0000000
03F0000000
03F0000000
7FFFFFC000
7FFFFF8000
7FFFFF8000
FFFFFF0000
01F8000000
01F8000000
01F8000000
01F8000000
01FC000000
00FC000000
00FE000000
007E000000
007F000010
003F800030
003FC000F0
001FE001F0
000FF80FF0
0007FFFFF0
0003FFFFE0
0001FFFFC0
00007FFF00
00000FF800
ENDCHAR
STARTCHAR c6459
ENCODING -1
SWIDTH 500 0
DWIDTH 32 0
BBX 18 6 7 40
BITMAP
FC0FC0
FC0FC0
FC0FC0
FC0FC0
FC0FC0
FC0FC0
ENDCHAR
STARTCHAR c6460
ENCODING -1
SWIDTH 500 0
DWIDTH 32 0
BBX 11 8 12 39
BITMAP
03E0
07E0
0FC0
1F80
1F00
3E00
7C00
F800
ENDCHAR
STARTCHAR c6461
ENCODING -1
SWIDTH 500 0
DWIDTH 32 0
BBX 21 7 6 40
BITMAP
0F8078
3FE078
7FF8F8
7FFFF0
F8FFF0
F03FE0
F00F80
ENDCHAR
STARTCHAR c6462
ENCODING -1
SWIDTH 500 0
DWIDTH 32 0
BBX 12 8 8 39
BITMAP
FC00
7E00
3F00
1F80
0F80
07C0
03E0
01F0
ENDCHAR
STARTCHAR c6463
ENCODING -1
SWIDTH 500 0
DWIDTH 32 0
BBX 19 8 6 39
BITMAP
03F800
07FC00
07FC00
0FBE00
1F1F00
3E0F80
7C07C0
F803E0
ENDCHAR
STARTCHAR c6466
ENCODING -1
SWIDTH 500 0
DWIDTH 32 0
BBX 19 8 6 39
BITMAP
F803E0
7C07C0
3E0F80
1F1F00
0FBE00
07FC00
07FC00
03F800
ENDCHAR
STARTCHAR c6467
ENCODING -1
SWIDTH 400 0
DWIDTH 26 0
BBX 21 26 2 22
BITMAP
000F80
001F80
003F80
007F80
007F80
00F780
01E780
03C780
03C780
078780
0F0780
1E0780
1E0780
3C0780
780780
700780
F00780
FFFFF8
FFFFF8
FFFFF8
000780
000780
000780
000780
000780
000780
ENDCHAR
STARTCHAR c6468
ENCODING -1
SWIDTH 500 0
DWIDTH 32 0
BBX 20 7 6 40
BITMAP
F000F0
F801F0
7E07E0
7FFFE0
3FFFC0
1FFF80
03FC00
ENDCHAR
STARTCHAR c6469
ENCODING -1
SWIDTH 500 0
DWIDTH 32 0
BBX 6 6 13 40
BITMAP
FC
FC
FC
FC
FC
FC
ENDCHAR
ENDFONT
